<svg width="835" height="88" viewBox="0 0 835 88" fill="none" xmlns="http://www.w3.org/2000/svg">
<path d="M6.17648 14.3386L2.81834 9.93187L0.181661 15.0681L5.7198 15.2282L6.17648 14.3386ZM5.24846 14.9853C6.02334 15.4443 6.82129 15.9471 7.64417 16.4908L8.19545 15.6565C7.36126 15.1053 6.54932 14.5936 5.75814 14.1249L5.24846 14.9853ZM19.4756 25.2945C23.0037 28.0616 26.8797 31.1303 31.1584 34.3746L31.7626 33.5778C27.4922 30.3398 23.6252 27.2781 20.0927 24.5077L19.4756 25.2945ZM43.172 43.0874C47.0282 45.7441 51.1543 48.4439 55.5782 51.1322L56.0975 50.2776C51.6917 47.6004 47.5817 44.9111 43.7393 42.2639L43.172 43.0874ZM68.4691 58.4291C72.6773 60.6394 77.1152 62.8059 81.7995 64.896L82.207 63.9828C77.5429 61.9018 73.1242 59.7446 68.9341 57.5438L68.4691 58.4291ZM95.5214 70.5026C100.008 72.1727 104.693 73.7618 109.587 75.2486L109.878 74.2917C105.004 72.811 100.338 71.2285 95.8703 69.5655L95.5214 70.5026ZM123.843 79.1254C128.511 80.2513 133.35 81.2819 138.366 82.2025L138.547 81.2189C133.548 80.3016 128.728 79.2748 124.077 78.1533L123.843 79.1254ZM152.96 84.4907C157.729 85.1149 162.644 85.6411 167.711 86.0588L167.793 85.0621C162.742 84.6457 157.842 84.1213 153.09 83.4992L152.96 84.4907ZM182.504 86.9443C187.3 87.1263 192.223 87.2134 197.275 87.1985L197.272 86.1985C192.234 86.2134 187.325 86.1264 182.541 85.945L182.504 86.9443ZM212.065 86.8714C214.524 86.771 217.012 86.6472 219.529 86.4991L219.471 85.5009C216.959 85.6486 214.477 85.7721 212.024 85.8722L212.065 86.8714Z" fill="#142f27"/>
<path d="M314.5 61C327.5 59.5 401.236 7.83567 520 1" stroke="#142f27" stroke-dasharray="14 14"/>
<path d="M835 49.5L829.591 47.4807L830.547 53.1746L835 49.5ZM624.395 9.9889C626.294 10.3958 628.449 11.019 630.852 11.8244L631.169 10.8762C628.746 10.064 626.553 9.42859 624.605 9.0111L624.395 9.9889ZM643.52 16.6419C647.377 18.2104 651.573 19.9647 656.096 21.8369L656.479 20.9129C651.96 19.0427 647.757 17.2856 643.897 15.7156L643.52 16.6419ZM668.695 26.9686C672.741 28.5799 676.981 30.2253 681.405 31.8688L681.753 30.9314C677.338 29.2911 673.105 27.6486 669.065 26.0396L668.695 26.9686ZM694.235 36.4259C698.424 37.842 702.748 39.2305 707.201 40.5667L707.488 39.6089C703.047 38.2763 698.734 36.8913 694.555 35.4786L694.235 36.4259ZM720.312 44.2325C724.629 45.3493 729.049 46.4019 733.567 47.3711L733.777 46.3934C729.273 45.4272 724.867 44.3779 720.562 43.2644L720.312 44.2325ZM746.959 49.934C751.368 50.6745 755.859 51.3254 760.427 51.8707L760.546 50.8778C755.994 50.3344 751.519 49.6858 747.124 48.9478L746.959 49.934ZM773.991 53.1492C778.465 53.4573 783.005 53.6565 787.606 53.7331L787.623 52.7333C783.039 52.6569 778.517 52.4585 774.06 52.1515L773.991 53.1492ZM801.221 53.5958C805.705 53.4296 810.24 53.1408 814.825 52.7178L814.733 51.7221C810.167 52.1433 805.65 52.431 801.184 52.5965L801.221 53.5958ZM828.344 51.0912C829.108 50.9776 829.874 50.8601 830.64 50.7387L830.484 49.751C829.72 49.8719 828.958 49.9889 828.197 50.102L828.344 51.0912Z" fill="#142f27"/>
</svg>
