<svg width="1920" height="1559" viewBox="0 0 1920 1559" fill="none" xmlns="http://www.w3.org/2000/svg">
<path d="M-392.254 407.858C-372.831 415.529 -352.761 422.612 -332.106 429.112C-331.376 429.973 -330.655 430.838 -329.924 431.699C-272.127 499.934 -215.697 553.511 -157.396 595.494C-113.75 626.933 -66.8549 653.84 -14.0384 677.769C33.0214 699.09 83.7589 717.53 141.062 734.158C247.511 765.041 361.248 784.794 471.237 803.89C498.019 808.541 525.053 813.239 552.167 818.123C579.587 838.628 606.84 856.647 634.222 872.39C680.852 899.206 730.249 921.185 785.23 939.591C834.224 955.998 886.571 969.163 945.278 979.85C991.079 988.186 1037.96 994.435 1085.19 999.459C1118.81 1021.87 1151.01 1046.94 1181.36 1074.37C1224.91 1113.72 1264.65 1157.9 1299.49 1205.71C1313.13 1224.43 1326 1243.69 1338.08 1263.42L1340.73 1264.56C1328.28 1244.1 1314.97 1224.11 1300.84 1204.73C1265.93 1156.83 1226.11 1112.55 1182.48 1073.13C1152.86 1046.36 1121.48 1021.84 1088.75 999.846C1152.79 1006.57 1217.44 1011.08 1280.84 1015.5C1313.92 1017.81 1347.37 1020.14 1380.92 1022.8C1385.03 1028.59 1389.11 1034.37 1393.17 1040.09C1466.78 1144.12 1542.9 1251.68 1635.02 1342.41C1674.47 1381.27 1715.58 1415.29 1757.88 1444.14L1766.2 1447.72C1721.39 1417.89 1677.87 1382.26 1636.19 1341.22C1544.18 1250.59 1468.1 1143.09 1394.53 1039.13C1390.75 1033.78 1386.93 1028.38 1383.1 1022.97C1448.75 1028.21 1514.75 1034.7 1578.99 1044.72C1631.63 1052.93 1678.88 1062.77 1723.45 1074.79C1773.48 1088.3 1818.86 1104.21 1862.19 1123.4C1869.69 1126.73 1877.14 1130.17 1884.56 1133.74C1894.72 1147.18 1905.15 1161.26 1915.94 1176.09C1936.98 1204.99 1958.02 1234.72 1978.37 1263.47C2013.31 1312.85 2048.82 1363.03 2086.34 1411.82L2087.1 1410.06C2049.81 1361.52 2014.49 1311.62 1979.73 1262.5C1959.38 1233.74 1938.34 1204.01 1917.29 1175.1C1907.18 1161.22 1897.4 1148 1887.85 1135.33C1932.02 1156.8 1974.64 1182.53 2014.88 1212.04C2055.65 1241.91 2093.97 1275.65 2129.08 1312.54L2129.8 1310.87C2094.75 1274.11 2056.52 1240.48 2015.88 1210.69C1974.65 1180.47 1930.95 1154.21 1885.65 1132.4C1840.27 1072.32 1800.52 1025.09 1760.05 982.926C1697.13 917.365 1634.49 866.87 1568.55 828.563C1529.68 805.976 1487.1 786.31 1442.01 770.115C1400.31 755.141 1355.01 742.612 1307.38 732.879C1251.26 721.416 1190.34 713.443 1122.89 708.775C1077.2 667.11 1031.15 632.942 983.356 605.177C944.487 582.591 901.907 562.925 856.809 546.73C815.11 531.755 769.816 519.226 722.178 509.493C640.705 492.855 549.114 483.562 442.163 481.079C376.264 479.551 309.167 480.452 244.286 481.321C236.757 481.421 229.203 481.525 221.646 481.62C201.28 459.155 180.615 436.874 159.696 415.325C79.308 332.529 -9.86359 256.133 -105.338 188.277C-185.338 131.44 -270.219 80.2304 -358.309 35.6429L-358.971 37.1802C-270.987 81.7144 -186.212 132.871 -106.341 189.637C-10.9508 257.442 78.1385 333.764 158.457 416.493C179.024 437.677 199.342 459.566 219.379 481.646C108.065 483.071 -6.34037 483.637 -118.251 471.245C-194.467 462.8 -265.8 448.18 -331.139 427.661C-375.134 375.443 -416.461 319.075 -456.429 263.572L-457.201 265.365C-417.909 319.916 -377.305 375.283 -334.127 426.716C-353.857 420.447 -373.045 413.645 -391.644 406.299C-428.843 391.614 -463.724 374.753 -496.154 355.834L-496.822 357.385C-464.369 376.305 -429.473 393.165 -392.263 407.862L-392.254 407.858ZM945.555 978.201C886.934 967.528 834.656 954.377 785.739 938.003C730.863 919.634 681.565 897.691 635.038 870.935C608.619 855.742 582.315 838.429 555.857 818.793C626.012 831.477 696.648 845.493 764.818 863.405C816.344 876.945 862.351 891.558 905.457 908.079C953.848 926.625 997.365 947.075 1038.5 970.607C1053.28 979.055 1067.83 988.016 1082.13 997.46C1036.02 992.5 990.268 986.349 945.552 978.207L945.555 978.201ZM1307.01 734.521C1354.57 744.237 1399.79 756.739 1441.41 771.689C1486.42 787.852 1528.9 807.477 1567.69 830.012C1633.49 868.246 1696.01 918.645 1758.82 984.09C1798.67 1025.6 1837.8 1072.03 1882.33 1130.83C1875.87 1127.75 1869.38 1124.77 1862.85 1121.87C1819.45 1102.64 1773.99 1086.7 1723.87 1073.18C1679.24 1061.13 1631.93 1051.28 1579.23 1043.06C1514.48 1032.97 1447.96 1026.45 1381.82 1021.19C1365.47 998.118 1348.78 974.663 1332.07 951.724C1272.93 870.496 1224.44 811.225 1174.84 759.548C1158.18 742.194 1141.54 725.899 1124.86 710.606C1191.38 715.288 1251.55 723.205 1307.01 734.53L1307.01 734.521ZM1122.17 710.413C1139.35 726.1 1156.48 742.835 1173.63 760.704C1223.17 812.326 1271.62 871.542 1330.72 952.704C1347.14 975.263 1363.56 998.312 1379.65 1021.02C1346.56 1018.41 1313.57 1016.11 1280.95 1013.83C1216.51 1009.34 1150.8 1004.75 1085.76 997.843C1070.56 987.725 1055.08 978.152 1039.34 969.153C998.13 945.582 954.532 925.09 906.061 906.517C862.895 889.977 816.836 875.343 765.247 861.79C695.952 843.584 624.119 829.402 552.843 816.554C518.049 790.513 482.978 760.443 447.015 725.866C434.397 713.73 421.921 701.298 409.587 688.662C428.32 691.601 447.382 694.15 466.76 696.297C587.125 709.633 710.328 707.98 829.476 706.382C894.341 705.514 961.423 704.613 1027.29 706.144C1060.34 706.909 1091.91 708.327 1122.17 710.413ZM244.276 483.002C309.148 482.137 376.223 481.234 442.09 482.764C548.939 485.24 640.441 494.526 721.81 511.142C769.372 520.858 814.587 533.36 856.212 548.31C901.218 564.473 943.701 584.097 982.487 606.633C1029.63 634.026 1075.09 667.666 1120.18 708.609C1090.53 706.603 1059.63 705.222 1027.32 704.48C961.424 702.951 894.33 703.846 829.447 704.721C710.352 706.32 587.198 707.964 466.94 694.643C446.823 692.414 427.052 689.749 407.63 686.665C364.546 642.402 323.097 595.631 282.706 550.052C263.154 527.991 243.277 505.555 223.106 483.289C230.177 483.196 237.232 483.105 244.274 483.009L244.276 483.002ZM-118.437 472.911C-5.9348 485.375 109.045 484.746 220.88 483.31C241.383 505.932 261.59 528.73 281.457 551.154C321.373 596.195 362.322 642.401 404.868 686.22C328.379 673.892 257.515 654.957 193.554 629.7C100.826 593.085 22.4829 543.035 -39.3137 480.952L-40.4987 482.135C21.4605 544.387 100.001 594.56 192.944 631.26C257.636 656.808 329.369 675.897 406.826 688.232C419.683 701.436 432.694 714.424 445.86 727.085C480.96 760.827 515.215 790.288 549.194 815.91C523.174 811.238 497.228 806.727 471.519 802.266C361.574 783.173 247.884 763.432 141.524 732.573C84.3008 715.972 33.6393 697.549 -13.3464 676.267C-66.0631 652.389 -112.859 625.532 -156.413 594.164C-214.597 552.261 -270.935 498.769 -328.641 430.642C-328.802 430.451 -328.957 430.263 -329.12 430.079C-264.369 450.216 -193.78 464.591 -118.432 472.936L-118.437 472.911Z" fill="#4f8072" fill-opacity="0.05"/>
</svg>
