<svg width="100" height="38" viewBox="0 0 100 38" fill="none" xmlns="http://www.w3.org/2000/svg">
<path fill-rule="evenodd" clip-rule="evenodd" d="M96.8163 25.1813C96.8762 25.866 97.4238 26.7375 98.3732 26.7375H98.9279C99.1436 26.7375 99.3198 26.5611 99.3198 26.3458V14.1365H99.3172C99.3064 13.9308 99.1364 13.7661 98.9279 13.7661H97.2082C96.9997 13.7661 96.8297 13.9308 96.819 14.1365H96.8163V15.1286C95.7622 13.8294 94.1006 13.2902 92.4346 13.2902C88.6468 13.2902 85.5765 16.363 85.5765 20.1537C85.5765 23.9447 88.6468 27.0176 92.4346 27.0176C94.1006 27.0176 95.917 26.3709 96.8163 25.1798V25.1813ZM92.4408 24.6154C90.0321 24.6154 88.0793 22.618 88.0793 20.1537C88.0793 17.6899 90.0321 15.6924 92.4408 15.6924C94.8504 15.6924 96.8028 17.6899 96.8028 20.1537C96.8028 22.618 94.8504 24.6154 92.4408 24.6154Z" fill="#0D0E10"/>
<path fill-rule="evenodd" clip-rule="evenodd" d="M83.4011 19.2834C83.4011 15.7221 81.1563 13.3196 77.5763 13.3196C75.8674 13.3196 74.4666 14.3086 73.9717 15.1581C73.8648 14.4939 73.5125 13.7956 72.4197 13.7956H71.8627C71.6472 13.7956 71.4713 13.9721 71.4713 14.1875V25.2118C71.4713 25.2122 71.4713 25.213 71.4713 25.2135V26.3978H71.4734C71.4847 26.6031 71.6548 26.768 71.8629 26.768H73.5831C73.6094 26.768 73.6352 26.7649 73.6602 26.7601C73.6716 26.7578 73.6821 26.7534 73.6932 26.7502C73.706 26.7463 73.7193 26.7432 73.7315 26.7382C73.7468 26.7319 73.7607 26.7234 73.7749 26.7154C73.7819 26.7111 73.7892 26.7082 73.7959 26.7037C73.8131 26.6926 73.8289 26.6793 73.8441 26.6657C73.8466 26.6632 73.8495 26.6615 73.852 26.6591C73.8691 26.6426 73.8848 26.6243 73.8986 26.6054C73.9416 26.5462 73.9679 26.4746 73.9722 26.3978H73.9744V19.1854C73.9744 17.2728 75.5239 15.7221 77.4352 15.7221C79.3465 15.7221 80.8961 17.2728 80.8961 19.1854L80.8976 25.214L80.898 25.2118C80.898 25.2172 80.8988 25.2227 80.8988 25.2284V26.3978H80.9012C80.9125 26.6031 81.0824 26.768 81.2904 26.768H83.0107C83.0372 26.768 83.0628 26.7649 83.0877 26.7601C83.0979 26.7582 83.1073 26.7541 83.1173 26.7513C83.1314 26.7472 83.1459 26.7437 83.1594 26.7382C83.1734 26.7324 83.1862 26.7243 83.1996 26.7168C83.2077 26.7122 83.2162 26.7089 83.224 26.7037C83.2398 26.6932 83.2544 26.6806 83.2687 26.6682C83.2723 26.6648 83.2764 26.6623 83.2798 26.6589C83.2962 26.6431 83.3107 26.6261 83.3239 26.6083C83.3249 26.607 83.326 26.6059 83.327 26.6046C83.3694 26.5459 83.3953 26.4752 83.3998 26.3988C83.3998 26.3982 83.4 26.3978 83.4 26.3978H83.4023L83.4011 19.2834Z" fill="#0D0E10"/>
<path fill-rule="evenodd" clip-rule="evenodd" d="M65.4865 25.1813C65.5466 25.8659 66.0943 26.7374 67.0431 26.7374H67.5982C67.8134 26.7374 67.9896 26.5611 67.9896 26.3457V14.1365H67.9874C67.9762 13.9308 67.806 13.7661 67.5982 13.7661H65.878C65.67 13.7661 65.5001 13.9308 65.4885 14.1365H65.4865V15.1286C64.4324 13.8294 62.7708 13.2902 61.1044 13.2902C57.3168 13.2902 54.2465 16.363 54.2465 20.1538C54.2465 23.9447 57.3168 27.0176 61.1044 27.0176C62.7708 27.0176 64.5868 26.3709 65.4863 25.1797L65.4865 25.1813ZM61.1111 24.6154C58.7024 24.6154 56.7495 22.6181 56.7495 20.1538C56.7495 17.6899 58.7024 15.6924 61.1111 15.6924C63.5201 15.6924 65.4727 17.6899 65.4727 20.1538C65.4727 22.6181 63.5201 24.6154 61.1111 24.6154Z" fill="#0D0E10"/>
<path fill-rule="evenodd" clip-rule="evenodd" d="M44.0739 23.4327C45.2223 24.2288 46.4758 24.6156 47.6803 24.6156C48.8279 24.6156 50.0142 24.0202 50.0142 22.9838C50.0142 21.6003 47.4291 21.3851 45.8049 20.8326C44.1804 20.2802 42.7812 19.1382 42.7812 17.2887C42.7812 14.4588 45.3008 13.29 47.6525 13.29C49.1425 13.29 50.6798 13.7818 51.6765 14.4861C52.0197 14.7464 51.8107 15.0453 51.8107 15.0453L50.8593 16.4051C50.7523 16.5583 50.5653 16.6906 50.297 16.5249C50.0286 16.3592 49.0872 15.6923 47.6525 15.6923C46.2176 15.6923 45.3534 16.3554 45.3534 17.1774C45.3534 18.163 46.4767 18.4729 47.7923 18.8089C50.0852 19.4274 52.5864 20.1709 52.5864 22.9838C52.5864 25.4772 50.2559 27.0181 47.6803 27.0181C45.7285 27.0181 44.0668 26.4613 42.6731 25.4378C42.3827 25.147 42.5855 24.8769 42.5855 24.8769L43.5322 23.5239C43.7249 23.271 43.9677 23.3592 44.0739 23.4327Z" fill="#0D0E10"/>
<path fill-rule="evenodd" clip-rule="evenodd" d="M37.4608 25.1813C37.5209 25.8659 38.0686 26.7374 39.0173 26.7374H39.5725C39.7877 26.7374 39.9641 26.5611 39.9641 26.3457V14.1365H39.9617C39.9504 13.9308 39.7805 13.7661 39.5725 13.7661H37.8523C37.6443 13.7661 37.4744 13.9308 37.4628 14.1365H37.4608V15.1286C36.4068 13.8294 34.7451 13.2902 33.0788 13.2902C29.2912 13.2902 26.2207 16.363 26.2207 20.1538C26.2207 23.9447 29.2912 27.0176 33.0788 27.0176C34.7451 27.0176 36.5611 26.3709 37.4605 25.1797L37.4608 25.1813ZM33.0855 24.6154C30.6766 24.6154 28.7237 22.6181 28.7237 20.1538C28.7237 17.6899 30.6766 15.6924 33.0855 15.6924C35.4943 15.6924 37.447 17.6899 37.447 20.1538C37.447 22.6181 35.4943 24.6154 33.0855 24.6154Z" fill="#0D0E10"/>
<path fill-rule="evenodd" clip-rule="evenodd" d="M16.6059 20.6206C14.0571 20.6206 11.9907 22.6869 11.9907 25.2361C11.9907 27.785 14.0571 29.8513 16.6059 29.8513C19.1549 29.8513 21.2212 27.785 21.2212 25.2361C21.2212 22.6869 19.1549 20.6206 16.6059 20.6206ZM4.61523 20.6211C2.06633 20.6211 0 22.6869 0 25.2361C0 27.785 2.06633 29.8513 4.61523 29.8513C7.16424 29.8513 9.23067 27.785 9.23067 25.2361C9.23067 22.6869 7.16424 20.6211 4.61523 20.6211ZM15.2258 14.8515C15.2258 17.4006 13.1595 19.4671 10.6106 19.4671C8.06161 19.4671 5.99538 17.4006 5.99538 14.8515C5.99538 12.3029 8.06161 10.2363 10.6106 10.2363C13.1595 10.2363 15.2258 12.3029 15.2258 14.8515Z" fill="#F06A6A"/>
</svg>
