<svg width="80" height="35" viewBox="0 0 80 35" fill="none" xmlns="http://www.w3.org/2000/svg">
<path fill-rule="evenodd" clip-rule="evenodd" d="M49.4073 27.4959C44.7792 30.9071 38.0711 32.7272 32.2956 32.7272C24.1974 32.7272 16.9069 29.7319 11.3914 24.7503C10.9581 24.3585 11.3463 23.8247 11.8663 24.1297C17.8187 27.593 25.1785 29.6765 32.781 29.6765C37.9082 29.6765 43.5485 28.6156 48.7347 26.4143C49.5182 26.0815 50.1734 26.9274 49.4073 27.4959Z" fill="#FF9900"/>
<path fill-rule="evenodd" clip-rule="evenodd" d="M51.3313 25.2946C50.742 24.5388 47.4209 24.9375 45.9302 25.1143C45.4761 25.1698 45.4068 24.7746 45.8158 24.4903C48.4609 22.6287 52.8012 23.166 53.3074 23.79C53.8135 24.4175 53.1756 28.7682 50.69 30.8448C50.3087 31.1637 49.9447 30.9938 50.1145 30.5709C50.6727 29.1773 51.9241 26.0538 51.3313 25.2946Z" fill="#FF9900"/>
<path fill-rule="evenodd" clip-rule="evenodd" d="M46.0344 11.3479V9.53826C46.0344 9.26439 46.2424 9.08066 46.492 9.08066H54.5937C54.8537 9.08066 55.0617 9.26786 55.0617 9.53826V11.0879C55.0582 11.3479 54.8398 11.6876 54.4516 12.225L50.2534 18.2189C51.8134 18.1808 53.4601 18.413 54.8745 19.2104C55.1934 19.3906 55.2801 19.6541 55.3044 19.9141V21.8451C55.3044 22.1085 55.0132 22.4171 54.7081 22.2576C52.2155 20.9506 48.9048 20.8085 46.1488 22.2715C45.868 22.424 45.5733 22.1189 45.5733 21.8555V20.0216C45.5733 19.7269 45.5768 19.2242 45.8715 18.777L50.7352 11.802H46.5024C46.2424 11.802 46.0344 11.6183 46.0344 11.3479Z" fill="black"/>
<path fill-rule="evenodd" clip-rule="evenodd" d="M16.4807 22.6389H14.0159C13.7802 22.6216 13.593 22.4448 13.5756 22.2195V9.56949C13.5756 9.31642 13.7871 9.11535 14.0506 9.11535H16.349C16.5882 9.12574 16.7789 9.30948 16.7962 9.53828V11.1919H16.8413C17.441 9.59375 18.5677 8.84841 20.0861 8.84841C21.6288 8.84841 22.5925 9.59375 23.2859 11.1919C23.8821 9.59375 25.2376 8.84841 26.6902 8.84841C27.7233 8.84841 28.8534 9.27482 29.5433 10.2316C30.3233 11.2959 30.1638 12.8421 30.1638 14.1975L30.1603 22.1813C30.1603 22.4344 29.9489 22.6389 29.6854 22.6389H27.224C26.9779 22.6216 26.7803 22.424 26.7803 22.1813V15.4767C26.7803 14.9429 26.8288 13.6117 26.711 13.1055C26.5272 12.2562 25.976 12.017 25.2619 12.017C24.6656 12.017 24.0416 12.4156 23.7885 13.0535C23.5355 13.6914 23.5597 14.7591 23.5597 15.4767V22.1813C23.5597 22.4344 23.3483 22.6389 23.0848 22.6389H20.6234C20.3738 22.6216 20.1797 22.424 20.1797 22.1813L20.1762 15.4767C20.1762 14.0658 20.4085 11.9892 18.6578 11.9892C16.8863 11.9892 16.9557 14.0138 16.9557 15.4767V22.1813C16.9557 22.4344 16.7442 22.6389 16.4807 22.6389Z" fill="black"/>
<path fill-rule="evenodd" clip-rule="evenodd" d="M62.0366 8.84841C65.694 8.84841 67.6735 11.9892 67.6735 15.9829C67.6735 19.8413 65.486 22.9024 62.0366 22.9024C58.4451 22.9024 56.4899 19.7616 56.4899 15.8477C56.4899 11.9095 58.4694 8.84841 62.0366 8.84841ZM62.0574 11.4311C60.2409 11.4311 60.1264 13.9063 60.1264 15.449C60.1264 16.9952 60.1022 20.2955 62.0366 20.2955C63.9468 20.2955 64.0369 17.633 64.0369 16.0106C64.0369 14.9429 63.9918 13.6671 63.6694 12.6548C63.3921 11.7743 62.8409 11.4311 62.0574 11.4311Z" fill="black"/>
<path fill-rule="evenodd" clip-rule="evenodd" d="M72.416 22.6389H69.9616C69.7154 22.6216 69.5178 22.424 69.5178 22.1813L69.5144 9.52788C69.5352 9.29562 69.7397 9.11535 69.9893 9.11535H72.2739C72.4888 9.12574 72.6656 9.27135 72.7141 9.46895V11.4034H72.7592C73.4491 9.67349 74.4163 8.84841 76.1184 8.84841C77.2243 8.84841 78.3025 9.24708 78.9958 10.3391C79.6406 11.3514 79.6406 13.0535 79.6406 14.2773V22.2403C79.6129 22.4621 79.4083 22.6389 79.1657 22.6389H76.6939C76.4686 22.6216 76.2814 22.4552 76.2571 22.2403V15.3693C76.2571 13.9861 76.4166 11.9615 74.7144 11.9615C74.1147 11.9615 73.5635 12.3636 73.2896 12.9738C72.943 13.7469 72.8979 14.5165 72.8979 15.3693V22.1813C72.8944 22.4344 72.6795 22.6389 72.416 22.6389Z" fill="black"/>
<path fill-rule="evenodd" clip-rule="evenodd" d="M39.576 16.5965C39.576 17.5567 39.6002 18.3576 39.1149 19.2104C38.7231 19.9037 38.0991 20.3301 37.4093 20.3301C36.4629 20.3301 35.9082 19.609 35.9082 18.5448C35.9082 16.4439 37.7906 16.0626 39.576 16.0626V16.5965ZM42.0616 22.6043C41.8986 22.7499 41.6629 22.7603 41.4792 22.6632C40.661 21.9837 40.512 21.6683 40.0648 21.02C38.7127 22.3997 37.7525 22.8123 36.0018 22.8123C33.9252 22.8123 32.3132 21.5331 32.3132 18.9712C32.3132 16.9709 33.3948 15.6085 34.941 14.9429C36.2791 14.3535 38.1477 14.2495 39.576 14.0866V13.7676C39.576 13.1818 39.621 12.4884 39.2743 11.9823C38.9762 11.5281 38.4007 11.3409 37.8911 11.3409C36.9517 11.3409 36.1162 11.8228 35.9116 12.8212C35.87 13.0431 35.7071 13.2615 35.4818 13.2719L33.0932 13.0154C32.8921 12.9703 32.6668 12.8074 32.7257 12.4988C33.2735 9.60066 35.8943 8.72705 38.2378 8.72705C39.4373 8.72705 41.0042 9.04599 41.9506 9.95426C43.1501 11.074 43.0357 12.5682 43.0357 14.194V18.0351C43.0357 19.1896 43.5141 19.6957 43.9648 20.3197C44.1208 20.5416 44.1555 20.8085 43.9544 20.9749C43.4517 21.3944 42.5573 22.1744 42.065 22.6112L42.0616 22.6043Z" fill="black"/>
<path fill-rule="evenodd" clip-rule="evenodd" d="M7.26274 16.5965C7.26274 17.5567 7.287 18.3575 6.80167 19.2104C6.40993 19.9037 5.78939 20.3301 5.09605 20.3301C4.14964 20.3301 3.59844 19.609 3.59844 18.5447C3.59844 16.4439 5.48085 16.0626 7.26274 16.0626V16.5965ZM9.74836 22.6043C9.58543 22.7499 9.34969 22.7603 9.16596 22.6632C8.34782 21.9837 8.20221 21.6682 7.75154 21.02C6.39953 22.3997 5.44272 22.8123 3.68857 22.8123C1.61548 22.8123 0 21.533 0 18.9712C0 16.9709 1.08508 15.6085 2.62776 14.9428C3.9659 14.3535 5.83446 14.2495 7.26274 14.0866V13.7676C7.26274 13.1818 7.30781 12.4884 6.9646 11.9823C6.663 11.5281 6.08753 11.3409 5.58139 11.3409C4.64191 11.3409 3.80297 11.8228 3.59844 12.8212C3.55683 13.0431 3.3939 13.2615 3.17203 13.2719L0.780008 13.0154C0.578939 12.9703 0.35707 12.8074 0.412537 12.4988C0.963743 9.60066 3.5811 8.72705 5.92459 8.72705C7.12407 8.72705 8.69102 9.04599 9.63743 9.95426C10.8369 11.074 10.7225 12.5682 10.7225 14.194V18.0351C10.7225 19.1896 11.2009 19.6957 11.6516 20.3197C11.811 20.5416 11.8457 20.8085 11.6446 20.9749C11.142 21.3944 10.2476 22.1744 9.75529 22.6112L9.74836 22.6043Z" fill="black"/>
</svg>
