<svg width="119" height="65" viewBox="0 0 119 65" fill="none" xmlns="http://www.w3.org/2000/svg">
<g opacity="0.8">
<path d="M114.615 7.51504C112.985 7.51504 111.661 6.19135 111.661 4.56071C111.661 2.93008 112.985 1.60638 114.615 1.60638C116.246 1.60638 117.57 2.93008 117.57 4.56071C117.57 6.19135 116.246 7.51504 114.615 7.51504Z" fill="#4f8072"/>
<path d="M117.347 24.5384C117.969 23.0298 117.25 21.303 115.741 20.6815C114.232 20.06 112.506 20.7791 111.884 22.2878C111.263 23.7964 111.982 25.5232 113.49 26.1447C114.999 26.7662 116.726 26.0471 117.347 24.5384Z" fill="#4f8072"/>
<path d="M115.748 44.9893C117.255 44.3621 117.967 42.6325 117.34 41.1263C116.713 39.62 114.983 38.9075 113.477 39.5348C111.971 40.1621 111.258 41.8917 111.885 43.3979C112.513 44.9041 114.242 45.6166 115.748 44.9893Z" fill="#4f8072"/>
<path d="M117.348 62.2365C117.97 60.7279 117.251 59.0011 115.742 58.3796C114.233 57.7581 112.507 58.4772 111.885 59.9859C111.264 61.4945 111.983 63.2213 113.491 63.8428C115 64.4643 116.727 63.7451 117.348 62.2365Z" fill="#4f8072"/>
<path d="M77.7951 7.51504C76.1645 7.51504 74.8408 6.19135 74.8408 4.56071C74.8408 2.93008 76.1645 1.60638 77.7951 1.60638C79.4258 1.60638 80.7495 2.93008 80.7495 4.56071C80.7495 6.19135 79.4258 7.51504 77.7951 7.51504Z" fill="#4f8072"/>
<path d="M77.7951 26.3652C76.1645 26.3652 74.8408 25.0415 74.8408 23.4109C74.8408 21.7802 76.1645 20.4565 77.7951 20.4565C79.4258 20.4565 80.7495 21.7802 80.7495 23.4109C80.7495 25.0415 79.4258 26.3652 77.7951 26.3652Z" fill="#4f8072"/>
<path d="M77.7951 45.2154C76.1645 45.2154 74.8408 43.8917 74.8408 42.261C74.8408 40.6304 76.1645 39.3067 77.7951 39.3067C79.4258 39.3067 80.7495 40.6304 80.7495 42.261C80.7495 43.8917 79.4258 45.2154 77.7951 45.2154Z" fill="#4f8072"/>
<path d="M77.7951 64.0617C76.1645 64.0617 74.8408 62.738 74.8408 61.1073C74.8408 59.4767 76.1645 58.153 77.7951 58.153C79.4258 58.153 80.7495 59.4767 80.7495 61.1073C80.7495 62.738 79.4258 64.0617 77.7951 64.0617Z" fill="#4f8072"/>
<path d="M44.1596 5.2433C44.5358 3.65563 43.5537 2.06361 41.966 1.68742C40.3784 1.31123 38.7863 2.29333 38.4102 3.88101C38.034 5.46868 39.0161 7.0607 40.6037 7.43688C42.1914 7.81307 43.7834 6.83097 44.1596 5.2433Z" fill="#4f8072"/>
<path d="M41.2859 26.3652C39.6552 26.3652 38.3315 25.0415 38.3315 23.4109C38.3315 21.7803 39.6552 20.4566 41.2859 20.4566C42.9165 20.4566 44.2402 21.7803 44.2402 23.4109C44.2402 25.0415 42.9165 26.3652 41.2859 26.3652Z" fill="#4f8072"/>
<path d="M41.2859 45.2154C39.6552 45.2154 38.3315 43.8917 38.3315 42.2611C38.3315 40.6304 39.6552 39.3067 41.2859 39.3067C42.9165 39.3067 44.2402 40.6304 44.2402 42.2611C44.2402 43.8917 42.9165 45.2154 41.2859 45.2154Z" fill="#4f8072"/>
<path d="M41.2859 64.0617C39.6552 64.0617 38.3315 62.738 38.3315 61.1074C38.3315 59.4767 39.6552 58.153 41.2859 58.153C42.9165 58.153 44.2402 59.4767 44.2402 61.1074C44.2402 62.738 42.9165 64.0617 41.2859 64.0617Z" fill="#4f8072"/>
<path d="M5.00133 7.29028C6.50756 6.66299 7.22008 4.93343 6.59279 3.4272C5.9655 1.92098 4.23594 1.20846 2.72971 1.83575C1.22348 2.46304 0.510961 4.1926 1.13825 5.69882C1.76554 7.20505 3.4951 7.91757 5.00133 7.29028Z" fill="#4f8072"/>
<path d="M6.59978 24.5384C7.22128 23.0298 6.50212 21.303 4.9935 20.6815C3.48487 20.06 1.75806 20.7791 1.13656 22.2877C0.515058 23.7964 1.23421 25.5232 2.74284 26.1447C4.25146 26.7662 5.97827 26.047 6.59978 24.5384Z" fill="#4f8072"/>
<path d="M4.99889 44.9863C6.50512 44.359 7.21764 42.6294 6.59035 41.1232C5.96306 39.617 4.2335 38.9044 2.72727 39.5317C1.22104 40.159 0.508521 41.8886 1.13581 43.3948C1.7631 44.901 3.49266 45.6136 4.99889 44.9863Z" fill="#4f8072"/>
<path d="M3.8679 64.0617C2.23727 64.0617 0.913574 62.738 0.913574 61.1074C0.913574 59.4767 2.23727 58.153 3.8679 58.153C5.49854 58.153 6.82223 59.4767 6.82223 61.1074C6.82223 62.738 5.49854 64.0617 3.8679 64.0617Z" fill="#4f8072"/>
</g>
</svg>
