<svg width="65" height="120" viewBox="0 0 65 120" fill="none" xmlns="http://www.w3.org/2000/svg">
<g opacity="0.8">
<path d="M57.5572 115.512C57.5572 113.881 58.8809 112.557 60.5115 112.557C62.1421 112.557 63.4658 113.881 63.4658 115.512C63.4658 117.142 62.1421 118.466 60.5115 118.466C58.8809 118.466 57.5572 117.142 57.5572 115.512Z" fill="#4f8072"/>
<path d="M40.5337 118.243C42.0423 118.865 43.7691 118.146 44.3906 116.637C45.0121 115.129 44.293 113.402 42.7843 112.78C41.2757 112.159 39.5489 112.878 38.9274 114.387C38.3059 115.895 39.0251 117.622 40.5337 118.243Z" fill="#4f8072"/>
<path d="M20.0826 116.645C20.7099 118.151 22.4395 118.863 23.9457 118.236C25.4519 117.609 26.1645 115.879 25.5372 114.373C24.9099 112.867 23.1803 112.154 21.6741 112.782C20.1679 113.409 19.4554 115.138 20.0826 116.645Z" fill="#4f8072"/>
<path d="M2.83544 118.245C4.34407 118.866 6.07088 118.147 6.69238 116.638C7.31389 115.13 6.59473 113.403 5.0861 112.782C3.57748 112.16 1.85067 112.879 1.22916 114.388C0.60766 115.896 1.32682 117.623 2.83544 118.245Z" fill="#4f8072"/>
<path d="M57.5572 78.6916C57.5572 77.061 58.8809 75.7373 60.5115 75.7373C62.1421 75.7373 63.4658 77.061 63.4658 78.6916C63.4658 80.3223 62.1421 81.646 60.5115 81.646C58.8809 81.646 57.5572 80.3223 57.5572 78.6916Z" fill="#4f8072"/>
<path d="M38.7071 78.6916C38.7071 77.061 40.0308 75.7373 41.6614 75.7373C43.292 75.7373 44.6157 77.061 44.6157 78.6916C44.6157 80.3223 43.292 81.646 41.6614 81.646C40.0308 81.646 38.7071 80.3223 38.7071 78.6916Z" fill="#4f8072"/>
<path d="M19.857 78.6916C19.857 77.061 21.1807 75.7373 22.8113 75.7373C24.4419 75.7373 25.7656 77.061 25.7656 78.6916C25.7656 80.3223 24.4419 81.646 22.8113 81.646C21.1807 81.646 19.857 80.3223 19.857 78.6916Z" fill="#4f8072"/>
<path d="M1.01029 78.6916C1.01029 77.061 2.33398 75.7373 3.96462 75.7373C5.59525 75.7373 6.91895 77.061 6.91895 78.6916C6.91895 80.3223 5.59525 81.646 3.96462 81.646C2.33398 81.646 1.01029 80.3223 1.01029 78.6916Z" fill="#4f8072"/>
<path d="M59.8288 45.056C61.4165 45.4322 63.0085 44.4501 63.3847 42.8624C63.7609 41.2747 62.7788 39.6827 61.1911 39.3065C59.6035 38.9303 58.0114 39.9124 57.6353 41.5001C57.2591 43.0878 58.2412 44.6798 59.8288 45.056Z" fill="#4f8072"/>
<path d="M38.7071 42.1822C38.7071 40.5515 40.0308 39.2278 41.6614 39.2278C43.292 39.2278 44.6157 40.5515 44.6157 42.1822C44.6157 43.8128 43.292 45.1365 41.6614 45.1365C40.0308 45.1365 38.7071 43.8128 38.7071 42.1822Z" fill="#4f8072"/>
<path d="M19.857 42.1822C19.857 40.5515 21.1807 39.2278 22.8113 39.2278C24.4419 39.2278 25.7656 40.5515 25.7656 42.1822C25.7656 43.8128 24.4419 45.1365 22.8113 45.1365C21.1807 45.1365 19.857 43.8128 19.857 42.1822Z" fill="#4f8072"/>
<path d="M1.01029 42.1822C1.01029 40.5515 2.33398 39.2278 3.96462 39.2278C5.59525 39.2278 6.91895 40.5515 6.91895 42.1822C6.91895 43.8128 5.59525 45.1365 3.96462 45.1365C2.33398 45.1365 1.01029 43.8128 1.01029 42.1822Z" fill="#4f8072"/>
<path d="M57.7819 5.89775C58.4092 7.40398 60.1387 8.1165 61.6449 7.48921C63.1512 6.86192 63.8637 5.13236 63.2364 3.62613C62.6091 2.1199 60.8795 1.40738 59.3733 2.03467C57.8671 2.66197 57.1546 4.39152 57.7819 5.89775Z" fill="#4f8072"/>
<path d="M40.5337 7.49583C42.0423 8.11734 43.7691 7.39818 44.3906 5.88956C45.0121 4.38093 44.293 2.65412 42.7843 2.03262C41.2757 1.41112 39.5489 2.13027 38.9274 3.63889C38.3059 5.14752 39.0251 6.87433 40.5337 7.49583Z" fill="#4f8072"/>
<path d="M20.0856 5.89513C20.7129 7.40136 22.4424 8.11388 23.9486 7.48659C25.4549 6.8593 26.1674 5.12974 25.5401 3.62351C24.9128 2.11728 23.1833 1.40476 21.677 2.03205C20.1708 2.65934 19.4583 4.3889 20.0856 5.89513Z" fill="#4f8072"/>
<path d="M1.01029 4.76402C1.01029 3.13338 2.33398 1.80969 3.96462 1.80969C5.59525 1.80969 6.91895 3.13338 6.91895 4.76402C6.91895 6.39466 5.59525 7.71835 3.96462 7.71835C2.33398 7.71835 1.01029 6.39465 1.01029 4.76402Z" fill="#4f8072"/>
</g>
</svg>
