<svg width="40" height="41" viewBox="0 0 40 41" fill="none" xmlns="http://www.w3.org/2000/svg">
<path d="M13.6078 3.2019C7.86986 3.2019 3.20166 7.8701 3.20166 13.6081C3.20166 19.346 7.86986 24.0141 13.6078 24.0141C19.3458 24.0141 24.0139 19.346 24.0139 13.6081C24.0139 7.8701 19.3458 3.2019 13.6078 3.2019ZM13.6078 22.4132C8.75262 22.4132 4.80261 18.4632 4.80261 13.6081C4.80261 8.75287 8.75262 4.80285 13.6078 4.80285C18.463 4.80285 22.4129 8.75287 22.4129 13.6081C22.4129 18.4632 18.463 22.4132 13.6078 22.4132Z" fill="#4f8072"/>
<path d="M39.7657 34.6832L28.5566 23.4741C28.2439 23.1616 27.7372 23.1616 27.4245 23.4741L27.2349 23.6637L24.8453 21.2739C26.3402 19.0894 27.216 16.4492 27.216 13.608C27.216 6.10457 21.1114 0 13.608 0C6.10457 0 0 6.10457 0 13.608C0 21.1115 6.10457 27.216 13.608 27.216C16.4492 27.216 19.0894 26.3402 21.2741 24.8452L23.6638 27.2349L23.4624 27.4363C23.1499 27.7489 23.1499 28.2557 23.4624 28.5684L34.6715 39.7774C34.9842 40.0899 35.4909 40.0899 35.8036 39.7774L39.7658 35.8153C40.078 35.5029 40.0782 34.996 39.7657 34.6832ZM1.60079 13.6081C1.60079 6.98741 6.98717 1.60103 13.6079 1.60103C20.2286 1.60103 25.6149 6.98741 25.6149 13.6081C25.6149 20.2288 20.2286 25.6151 13.6079 25.6151C6.98717 25.6151 1.60079 20.2288 1.60079 13.6081ZM23.8611 22.5541L26.084 24.7769L24.7768 26.0841L22.5539 23.8612C23.0186 23.4555 23.4554 23.0188 23.8611 22.5541ZM35.2373 38.0793L25.1603 28.0024L27.9904 25.1722L38.0675 35.2493L35.2373 38.0793Z" fill="#4f8072"/>
<path d="M13.6076 19.2114C10.5179 19.2114 8.00427 16.6978 8.00427 13.6081C8.00427 13.166 7.64589 12.8076 7.20379 12.8076C6.76169 12.8076 6.40332 13.166 6.40332 13.6081C6.40332 17.5805 9.63515 20.8123 13.6076 20.8123C14.0497 20.8123 14.4081 20.4539 14.4081 20.0119C14.4081 19.5698 14.0497 19.2114 13.6076 19.2114Z" fill="#4f8072"/>
</svg>
