<svg width="40" height="38" viewBox="0 0 40 38" fill="none" xmlns="http://www.w3.org/2000/svg">
<path d="M35.4885 18.892L31.1367 12.1717C30.7994 11.6509 30.2276 11.3398 29.607 11.3398H10.4065C9.78686 11.3398 9.21553 11.6501 8.87811 12.1696L4.51279 18.8907C4.0667 19.5774 4.13561 20.4841 4.68037 21.0955L18.6383 36.7659C18.9838 37.1537 19.4797 37.3762 19.9991 37.3762C19.9992 37.3762 19.9991 37.3762 19.9992 37.3762C20.5185 37.3762 21.0146 37.1537 21.3601 36.7659L35.3196 21.0947C35.8636 20.484 35.933 19.5782 35.4885 18.892ZM28.7254 12.9023L25.0656 18.5616L21.4036 12.9023H28.7254ZM23.6297 19.2188H16.3685L19.9991 13.608L23.6297 19.2188ZM18.5947 12.9024L14.9427 18.5463L11.292 12.9024H18.5947ZM9.8474 13.5458L13.5169 19.2188H6.16279L9.8474 13.5458ZM6.49279 20.7813H14.3557L18.5132 34.2762L6.49279 20.7813ZM19.9991 33.7925L15.9906 20.7813H24.0076L19.9991 33.7925ZM21.485 34.2767L25.6426 20.7814H33.5062L21.485 34.2767ZM26.5015 19.2188L30.1676 13.5497L33.8386 19.2188H26.5015Z" fill="#4f8072"/>
<path d="M2.36977 19.2188H0.78125C0.349844 19.2188 0 19.5685 0 20C0 20.4315 0.349844 20.7812 0.78125 20.7812H2.36977C2.80117 20.7812 3.15102 20.4315 3.15102 20C3.15102 19.5685 2.80117 19.2188 2.36977 19.2188Z" fill="#4f8072"/>
<path d="M39.2189 19.2188H37.6304C37.199 19.2188 36.8491 19.5685 36.8491 20C36.8491 20.4315 37.199 20.7812 37.6304 20.7812H39.2189C39.6503 20.7812 40.0001 20.4315 40.0001 20C40.0001 19.5685 39.6503 19.2188 39.2189 19.2188Z" fill="#4f8072"/>
<path d="M34.152 5.86187C33.8468 5.55679 33.3523 5.55679 33.047 5.86187L30.452 8.45694C30.1469 8.76202 30.1469 9.25671 30.452 9.56179C30.6046 9.71437 30.8045 9.79062 31.0045 9.79062C31.2045 9.79062 31.4043 9.71429 31.5569 9.56179L34.152 6.96671C34.457 6.66163 34.457 6.16702 34.152 5.86187Z" fill="#4f8072"/>
<path d="M9.58156 8.4431L6.98656 5.84795C6.68156 5.54287 6.18703 5.54287 5.88164 5.84795C5.57656 6.15303 5.57656 6.64771 5.88164 6.95279L8.47672 9.54787C8.6293 9.70045 8.82922 9.7767 9.02914 9.7767C9.22906 9.7767 9.42898 9.70037 9.58156 9.54787C9.88664 9.24287 9.88664 8.74811 9.58156 8.4431Z" fill="#4f8072"/>
<path d="M20.02 0C19.5886 0 19.2388 0.349766 19.2388 0.78125V5.8725C19.2388 6.30398 19.5885 6.65375 20.02 6.65375C20.4514 6.65375 20.8013 6.30398 20.8013 5.8725V0.78125C20.8013 0.349844 20.4514 0 20.02 0Z" fill="#4f8072"/>
<path d="M20.5718 7.96304C20.4266 7.81772 20.225 7.73413 20.0195 7.73413C19.8141 7.73413 19.6125 7.81772 19.4672 7.96304C19.3219 8.10835 19.2383 8.30991 19.2383 8.51538C19.2383 8.72163 19.3218 8.92241 19.4672 9.06772C19.6125 9.21382 19.8141 9.29663 20.0195 9.29663C20.225 9.29663 20.4266 9.21382 20.5718 9.06772C20.7179 8.92241 20.8008 8.72085 20.8008 8.51538C20.8008 8.30991 20.7179 8.10843 20.5718 7.96304Z" fill="#4f8072"/>
</svg>
