<svg width="40" height="37" viewBox="0 0 40 37" fill="none" xmlns="http://www.w3.org/2000/svg">
<path d="M24.4445 9.6392C24.5971 9.79178 24.797 9.86803 24.9969 9.86803C25.1969 9.86803 25.3969 9.79178 25.5494 9.6392C25.8544 9.33412 25.8544 8.83943 25.5494 8.53428L25.5388 8.52373C25.2337 8.21865 24.739 8.21865 24.4339 8.52373C24.1288 8.82881 24.1288 9.3235 24.4339 9.62865L24.4445 9.6392Z" fill="#4f8072"/>
<path d="M37.0481 17.0312L39.7711 14.3082C39.9946 14.0848 40.0614 13.7487 39.9404 13.4568C39.8195 13.1648 39.5346 12.9745 39.2186 12.9745H33.574C32.8362 9.95421 31.2877 7.2021 29.074 4.98835C25.8574 1.77156 21.5804 0 17.0312 0C12.482 0 8.20507 1.77156 4.98835 4.98835C1.77156 8.20515 0 12.482 0 17.0312C0 21.5804 1.77156 25.8574 4.98835 29.0741C5.94492 30.0307 6.99577 30.8583 8.11913 31.5507L5.76546 35.7089C5.62859 35.9507 5.63046 36.2472 5.77046 36.4871C5.91038 36.7273 6.16734 36.875 6.44531 36.875H10.4687C10.7502 36.875 11.01 36.7236 11.1487 36.4786L12.8129 33.5383C14.175 33.8839 15.5894 34.0625 17.0312 34.0625C18.4731 34.0625 19.8875 33.8839 21.2496 33.5383L22.9138 36.4786C23.0525 36.7236 23.3122 36.875 23.5937 36.875H27.6172C27.8951 36.875 28.1521 36.7273 28.2921 36.4872C28.4321 36.2471 28.434 35.9507 28.2971 35.7089L25.9434 31.5507C27.0668 30.8583 28.1176 30.0307 29.0742 29.0742C31.287 26.8614 32.8363 24.1081 33.574 21.088H39.2187C39.5346 21.088 39.8196 20.8976 39.9405 20.6058C40.0614 20.3139 39.9946 19.9778 39.7712 19.7544L37.0481 17.0312ZM35.6196 16.25H30.1673L31.8803 14.537H37.3326L35.6196 16.25ZM10.0132 35.3125H7.78523L9.48569 32.3083C10.0693 32.5972 10.6684 32.8528 11.2814 33.072L10.0132 35.3125ZM26.2772 35.3125H24.0493L22.7811 33.072C23.394 32.8528 23.9932 32.5972 24.5768 32.3083L26.2772 35.3125ZM27.9693 27.9693C26.9372 29.0013 25.7846 29.8686 24.5438 30.56C24.5285 30.5675 24.513 30.5745 24.4979 30.583C24.4885 30.5884 24.4799 30.5946 24.4708 30.6003C23.519 31.1239 22.516 31.5443 21.4753 31.8547C21.4344 31.8629 21.3939 31.8749 21.354 31.8899C19.9669 32.2913 18.5152 32.5 17.0312 32.5C15.5472 32.5 14.0955 32.2913 12.7085 31.89C12.6685 31.875 12.628 31.8629 12.587 31.8548C11.5464 31.5443 10.5434 31.124 9.59171 30.6004C9.58257 30.5947 9.57397 30.5885 9.56452 30.5831C9.54944 30.5746 9.53405 30.5675 9.51874 30.5601C8.27796 29.8687 7.12531 29.0014 6.09328 27.9693C3.17156 25.0476 1.5625 21.1631 1.5625 17.0312C1.5625 12.8994 3.17156 9.01483 6.0932 6.0932C9.01483 3.17156 12.8994 1.5625 17.0312 1.5625C21.1631 1.5625 25.0476 3.17156 27.9693 6.0932C29.889 8.01296 31.2582 10.3779 31.9613 12.9745H31.5568C31.3496 12.9745 31.1508 13.0569 31.0043 13.2033L28.9308 15.2769C28.7216 13.8565 28.2624 12.4754 27.569 11.2194C27.3604 10.8416 26.8851 10.7046 26.5074 10.913C26.1297 11.1216 25.9925 11.5969 26.2011 11.9746C26.9427 13.3179 27.357 14.7783 27.463 16.2501H24.0183C23.8444 14.6676 23.1451 13.2015 22.0031 12.0595C20.6751 10.7314 18.9094 9.99999 17.0312 9.99999C15.1531 9.99999 13.3874 10.7314 12.0594 12.0594C10.7314 13.3875 9.99999 15.1531 9.99999 17.0312C9.99999 18.9094 10.7314 20.6751 12.0594 22.003C13.3874 23.3311 15.1531 24.0625 17.0312 24.0625C18.9094 24.0625 20.6751 23.3311 22.003 22.0031C23.1451 20.8611 23.8443 19.3951 24.0183 17.8125H27.4596C27.2733 20.2547 26.2427 22.6247 24.4337 24.4337C22.4565 26.4111 19.8275 27.5 17.0312 27.5C14.235 27.5 11.606 26.4111 9.62874 24.4337C7.6514 22.4565 6.56249 19.8276 6.56249 17.0312C6.56249 14.2349 7.6514 11.606 9.62874 9.62874C12.9086 6.3489 18.032 5.62218 22.0879 7.86148C22.4656 8.06991 22.9409 7.93288 23.1495 7.55515C23.358 7.17741 23.2209 6.70218 22.8432 6.49359C20.6053 5.25804 17.9702 4.76562 15.4236 5.10734C12.7919 5.46031 10.406 6.64171 8.5239 8.5239C6.25148 10.7963 4.99999 13.8176 4.99999 17.0312C4.99999 20.2449 6.25148 23.2662 8.52382 25.5386C10.7962 27.811 13.8176 29.0625 17.0312 29.0625C20.2449 29.0625 23.2662 27.811 25.5386 25.5386C27.385 23.6922 28.5565 21.3609 28.9336 18.7885L31.0043 20.8592C31.1507 21.0057 31.3495 21.088 31.5567 21.088H31.9611C31.258 23.6845 29.8882 26.0503 27.9693 27.9693ZM19.5828 15.5581C19.3671 15.1844 18.8893 15.0564 18.5156 15.2722L16.6406 16.3547C16.3989 16.4942 16.25 16.7521 16.25 17.0312C16.25 17.3104 16.3989 17.5683 16.6406 17.7078L18.5156 18.7903C18.6387 18.8613 18.7729 18.8951 18.9055 18.8951C19.1755 18.8951 19.4381 18.755 19.5828 18.5044C19.7096 18.2848 19.7169 18.0296 19.6262 17.8125H22.4443C22.2787 18.9768 21.7446 20.0519 20.8982 20.8982C19.8653 21.9312 18.492 22.5 17.0312 22.5C15.5705 22.5 14.1972 21.9312 13.1642 20.8982C12.1313 19.8653 11.5625 18.492 11.5625 17.0312C11.5625 15.5705 12.1313 14.1972 13.1643 13.1642C14.1972 12.1313 15.5705 11.5625 17.0312 11.5625C18.492 11.5625 19.8653 12.1313 20.8983 13.1643C21.7446 14.0106 22.2788 15.0857 22.4444 16.25H19.6262C19.7169 16.0328 19.7096 15.7776 19.5828 15.5581ZM31.8803 19.5254L30.1673 17.8125H35.6196L37.3326 19.5254H31.8803Z" fill="#4f8072"/>
</svg>
