<svg width="40" height="40" viewBox="0 0 40 40" fill="none" xmlns="http://www.w3.org/2000/svg">
<path d="M20.0002 4.66675C11.9129 4.66675 5.3335 11.2462 5.3335 19.3334V19.3476C5.33346 22.0713 6.09191 24.7413 7.52385 27.0582C8.95579 29.3752 11.0046 31.2476 13.4408 32.4657L13.5612 32.526C13.8942 32.6911 14.1743 32.9462 14.3697 33.2624C14.5652 33.5785 14.6681 33.9432 14.6668 34.3149V38.0001C14.6674 38.5303 14.8783 39.0387 15.2533 39.4136C15.6282 39.7886 16.1366 39.9995 16.6668 40.0001H24.0002C24.5304 39.9995 25.0388 39.7886 25.4137 39.4136C25.7886 39.0387 25.9996 38.5303 26.0002 38.0001V34.1569C26.0014 33.8156 26.0894 33.4802 26.2559 33.1822C26.4224 32.8842 26.6619 32.6335 26.9519 32.4535L27.687 32.0012C28.1022 31.7457 28.5068 31.4661 28.8944 31.1705L29.1954 31.4715C29.5856 31.8618 30.1149 32.081 30.6668 32.081C31.2187 32.081 31.748 31.8618 32.1383 31.4715C32.5285 31.0813 32.7478 30.552 32.7478 30.0001C32.7478 29.4482 32.5285 28.9189 32.1383 28.5286L31.8127 28.203C33.6611 25.6811 34.6606 22.6371 34.6668 19.5103V19.3334C34.6668 11.2462 28.0874 4.66675 20.0002 4.66675ZM24.6668 38.0001C24.6666 38.1768 24.5963 38.3463 24.4713 38.4713C24.3464 38.5962 24.1769 38.6665 24.0002 38.6667H16.6668C16.4901 38.6665 16.3206 38.5962 16.1956 38.4713C16.0707 38.3463 16.0004 38.1768 16.0002 38.0001V36.6667H24.6668V38.0001ZM24.6668 34.1569V35.3334H16.0002V34.3149C16 33.9822 15.9504 33.6515 15.8529 33.3334H24.7725C24.7027 33.6024 24.6672 33.879 24.6668 34.1569ZM31.1954 30.5286C31.0551 30.6686 30.865 30.7473 30.6668 30.7473C30.4686 30.7473 30.2785 30.6686 30.1383 30.5286L23.4875 23.8779C23.8945 23.5863 24.2636 23.2453 24.5865 22.8627L31.1954 29.4715C31.3354 29.6118 31.414 29.8019 31.414 30.0001C31.414 30.1983 31.3354 30.3884 31.1954 30.5286ZM13.4567 22.9561L11.1756 23.5944L10.6875 22.5433L12.6672 21.2704L12.3247 18.3841L10.0964 17.5754L10.3243 16.4518L12.6917 16.5758L14.1318 14.0513L12.8046 12.1072L13.6637 11.3297L15.5157 12.8068L18.1777 11.6123L18.2546 9.29443L19.4261 9.16504L20.0455 11.4117L22.9111 11.9933L24.357 10.1658L25.3854 10.7417L24.553 12.9063L26.5389 15.0441L28.82 14.4058L29.3081 15.4569L27.3285 16.7297L27.6707 19.616L29.8993 20.4249L29.6713 21.5483L27.3041 21.4243L26.4794 22.8698L25.3402 21.7305C25.981 20.4768 26.1606 19.0377 25.8475 17.665C25.5343 16.2922 24.7485 15.0733 23.6274 14.2215C22.5063 13.3696 21.1214 12.9392 19.7149 13.0054C18.3085 13.0715 16.9701 13.6302 15.934 14.5835C14.8979 15.5369 14.23 16.8242 14.0471 18.2203C13.8643 19.6164 14.1783 21.0323 14.934 22.2203C15.6898 23.4083 16.8392 24.2927 18.1812 24.7187C19.5231 25.1448 20.9722 25.0854 22.2748 24.551L23.4012 25.6774L21.818 26.3879L21.741 28.7057L20.5695 28.8351L19.9501 26.5885L17.0846 26.007L15.6386 27.8344L14.6102 27.2585L15.4426 25.0938L13.4567 22.9561ZM20.0002 23.6667C19.0772 23.6667 18.1749 23.3931 17.4075 22.8803C16.6401 22.3675 16.0419 21.6387 15.6887 20.7859C15.3355 19.9332 15.2431 18.9949 15.4232 18.0897C15.6032 17.1844 16.0477 16.3529 16.7003 15.7002C17.353 15.0476 18.1845 14.6031 19.0897 14.4231C19.995 14.243 20.9333 14.3354 21.786 14.6886C22.6387 15.0419 23.3676 15.64 23.8804 16.4074C24.3931 17.1748 24.6668 18.0771 24.6668 19.0001C24.6654 20.2373 24.1733 21.4235 23.2985 22.2984C22.4236 23.1732 21.2374 23.6654 20.0002 23.6667ZM33.3335 19.5103C33.3278 22.2834 32.4628 24.9867 30.8577 27.248L27.4568 23.8472L28.0549 22.7988L30.7494 22.9399L31.4344 19.5636L28.898 18.6431L28.7507 17.4005L31.007 15.9497L29.552 12.8164L26.9624 13.541L26.0961 12.6085L27.0444 10.1426L24.0167 8.44702L22.3736 10.5237L21.1132 10.2678L20.4093 7.71501L16.9604 8.09603L16.8726 10.7365L15.7115 11.2575L13.6092 9.58065L11.0479 11.8987L12.5607 14.1146L11.9407 15.2013L9.24617 15.0602L8.56112 18.4365L11.0975 19.3571L11.245 20.5997L8.98845 22.0505L10.4436 25.1838L13.0332 24.4591L13.8995 25.3917L12.9512 27.8576L15.9789 29.5531L17.622 27.4766L18.8824 27.7323L19.5863 30.2851L23.0353 29.9041L23.123 27.2637L24.41 26.6861L27.9432 30.2194C27.6346 30.4481 27.3147 30.6647 26.9882 30.8657L26.2531 31.3179C25.955 31.502 25.688 31.7322 25.4621 32.0001H15.0675C14.8041 31.7281 14.4965 31.5027 14.1577 31.3335L14.0373 31.2733C11.8225 30.1659 9.9599 28.4637 8.65811 26.3573C7.35633 24.251 6.66681 21.8237 6.66683 19.3476V19.3334C6.66683 11.9814 12.6481 6.00008 20.0002 6.00008C27.3522 6.00008 33.3335 11.9814 33.3335 19.3334V19.5103Z" fill="#4f8072"/>
<path d="M36 17.3333H40V18.6666H36V17.3333Z" fill="#4f8072"/>
<path d="M19.3335 0H20.6668V3.33333H19.3335V0Z" fill="#4f8072"/>
<path d="M27.5249 4.86426L30.1912 2.19798L31.1339 3.14071L28.4676 5.80698L27.5249 4.86426Z" fill="#4f8072"/>
<path d="M33.5903 10.1348L36.9242 7.4668L37.7576 8.50813L34.4237 11.1761L33.5903 10.1348Z" fill="#4f8072"/>
<path d="M34.959 25.9109L35.6444 24.7682L38.9758 26.7662L38.2904 27.909L34.959 25.9109Z" fill="#4f8072"/>
<path d="M0 17.3333H4V18.6666H0V17.3333Z" fill="#4f8072"/>
<path d="M8.86035 3.13916L9.80308 2.19643L12.4694 4.86271L11.5266 5.80543L8.86035 3.13916Z" fill="#4f8072"/>
<path d="M2.25293 8.52246L3.08626 7.48113L6.42016 10.1491L5.58682 11.1904L2.25293 8.52246Z" fill="#4f8072"/>
<path d="M1.00293 26.7471L4.33437 24.7451L5.02108 25.8878L1.68964 27.8898L1.00293 26.7471Z" fill="#4f8072"/>
</svg>
