<svg width="859" height="552" viewBox="0 0 859 552" fill="none" xmlns="http://www.w3.org/2000/svg">

    <style>
    @keyframes pulse {
        0% {
          -webkit-transform: translateX(0px);
          transform: translateX(0px);
        }
        70% {
          -webkit-transform: translateX(15px);
          transform: translateX(15px);
        }
        100% {
          -webkit-transform: translateX(0px);
          transform: translateX(0px);
        }
      } 

      <!-- @keyframes rotate {  
        from { 
          -webkit-transform: rotate(360deg);
          transform: rotate(360deg); 
        } 

        to { 
          -webkit-transform: rotate(0deg);
          transform: rotate(0deg);
        }  
      }  -->

    <!-- #path1,#path2,#path3{
        animation: rotate 5s ease-in infinite;
      -webkit-animation: rotate 5s ease-in infinite;
      -webkit-transform-origin: center; -ms-transform-origin: center; transform-origin: center; transform-box: fill-box;
    } -->
    #path4,#path5,#path1,#path2,#path3{
        animation: pulse 5s ease-in-out infinite;
      -webkit-animation: pulse 5s ease-in-out infinite;
      -webkit-transform-origin: center; -ms-transform-origin: center; transform-origin: center; transform-box: fill-box;
    }

    #path1 {
      animation-delay: 1s;
    }

    #path2 {
      animation-delay: 2.5s;
    }
</style>

    <path d="M858.969 67.7146V67.4059H777.217V0H776.908V67.4059H693.839V0H693.53V67.4059H610.461V0H610.152V67.4059H527.082V0H526.773V67.4059H443.704V0H443.395V67.4059H360.326V0H360.017V67.4059H276.948V0H276.639V67.4059H193.569V0H193.261V67.4059H110.191V0H109.882V67.4059H26.8129V0H26.504V67.4059H-56.5654V0H-56.8742V67.4059H-139.939V0H-140.248V67.4059H-222V67.7146H-140.248V150.74H-222V151.049H-140.248V234.074H-222V234.383H-140.248V317.408H-222V317.717H-140.248V400.742H-222V401.051H-140.248V484.076H-222V484.385H-140.248V551.005H-139.939V484.385H-56.8696V551.005H-56.5608V484.385H26.5087V551.005H26.8175V484.385H109.887V551.005H110.196V484.385H193.265V551.005H193.574V484.385H276.643V551.005H276.952V484.385H360.022V551.005H360.33V484.385H443.4V551.005H443.709V484.385H526.778V551.005H527.087V484.385H610.156V551.005H610.465V484.385H693.535V551.005H693.844V484.385H776.913V551.005H777.222V484.385H858.974V484.076H777.222V401.051H858.974V400.742H777.222V317.717H858.974V317.408H777.222V234.383H858.974V234.074H777.222V151.049H858.974V150.74H777.222V67.7146H858.974H858.969ZM-56.8696 484.073H-139.939V401.048H-56.8696V484.073ZM-56.8696 400.739H-139.939V317.714H-56.8696V400.739ZM-56.8696 317.405H-139.939V234.38H-56.8696V317.405ZM-56.8696 234.071H-139.939V151.049H-56.8696V234.074V234.071ZM-56.8696 150.737H-139.939V67.7146H-56.8696V150.74V150.737ZM26.5087 484.072H-56.5608V401.046H26.5087V484.072ZM26.5087 400.738H-56.5608V317.712H26.5087V400.738ZM26.5087 317.404H-56.5608V234.378H26.5087V317.404ZM26.5087 234.069H-56.5608V151.049H26.5087V234.074V234.069ZM26.5087 150.735H-56.5608V67.7146H26.5087V150.74V150.735ZM109.887 484.07H26.8175V401.045H109.887V484.07ZM109.887 400.736H26.8175V317.711H109.887V400.736ZM109.887 317.402H26.8175V234.377H109.887V317.402ZM109.887 234.068H26.8175V151.049H109.887V234.074V234.068ZM109.887 150.734H26.8175V67.7146H109.887V150.74V150.734ZM193.265 484.069H110.196V401.043H193.265V484.069ZM193.265 400.734H110.196V317.709H193.265V400.734ZM193.265 317.4H110.196V234.375H193.265V317.4ZM193.265 234.066H110.196V151.049H193.265V234.074V234.066ZM193.265 150.732H110.196V67.7146H193.265V150.74V150.732ZM276.643 484.067H193.574V401.042H276.643V484.067ZM276.643 400.733H193.574V317.708H276.643V400.733ZM276.643 317.399H193.574V234.374H276.643V317.399ZM276.643 234.065H193.574V151.049H276.643V234.074V234.065ZM276.643 150.731H193.574V67.7146H276.643V150.74V150.731ZM360.022 484.065H276.952V401.04H360.022V484.065ZM360.022 400.731H276.952V317.706H360.022V400.731ZM360.022 317.397H276.952V234.372H360.022V317.397ZM360.022 234.063H276.952V151.049H360.022V234.074V234.063ZM360.022 150.729H276.952V67.7146H360.022V150.74V150.729ZM443.4 484.064H360.33V401.039H443.4V484.064ZM443.4 400.73H360.33V317.704H443.4V400.73ZM443.4 317.396H360.33V234.37H443.4V317.396ZM443.4 234.062H360.33V151.049H443.4V234.074V234.062ZM443.4 150.728H360.33V67.7146H443.4V150.74V150.728ZM526.778 484.062H443.709V401.037H526.778V484.062ZM526.778 400.728H443.709V317.703H526.778V400.728ZM526.778 317.394H443.709V234.369H526.778V317.394ZM526.778 234.06H443.709V151.049H526.778V234.074V234.06ZM526.778 150.726H443.709V67.7146H526.778V150.74V150.726ZM610.156 484.061H527.087V401.035H610.156V484.061ZM610.156 400.727H527.087V317.701H610.156V400.727ZM610.156 317.393H527.087V234.367H610.156V317.393ZM610.156 234.059H527.087V151.049H610.156V234.074V234.059ZM610.156 150.725H527.087V67.7146H610.156V150.74V150.725ZM693.535 484.059H610.465V401.034H693.535V484.059ZM693.535 400.725H610.465V317.7H693.535V400.725ZM693.535 317.391H610.465V234.366H693.535V317.391ZM693.535 234.057H610.465V151.049H693.535V234.074V234.057ZM693.535 150.723H610.465V67.7146H693.535V150.74V150.723ZM776.913 484.058H693.844V401.032H776.913V484.058ZM776.913 400.724H693.844V317.698H776.913V400.724ZM776.913 317.39H693.844V234.364H776.913V317.39ZM776.913 234.056H693.844V151.049H776.913V234.074V234.056ZM776.913 150.721H693.844V67.7146H776.913V150.74V150.721Z" fill="url(#paint0_radial_1009_18)"/>
    <path id="path1" d="M229.668 371.423C231.606 368.686 244.227 349.865 258.502 352.2C264.77 353.224 270.987 358.263 274.434 362.821C281.054 371.569 285.619 381.325 292.939 389.727C305.831 404.524 300.701 425.838 281.772 432.126C264.719 437.789 231.386 432.242 222.586 415.432C212.345 395.866 227.023 375.163 229.668 371.423Z" fill="url(#paint1_linear_1009_18)"/>
    <path id="path2" d="M132.817 150.619C133.577 149.545 138.528 142.163 144.128 143.078C146.586 143.48 149.025 145.457 150.377 147.244C152.973 150.676 154.764 154.503 157.635 157.798C162.692 163.602 160.68 171.963 153.255 174.429C146.566 176.651 133.491 174.475 130.04 167.881C126.022 160.206 131.78 152.086 132.817 150.619Z" fill="url(#paint2_linear_1009_18)"/>
<defs>
<radialGradient id="paint0_radial_1009_18" cx="0" cy="0" r="1" gradientUnits="userSpaceOnUse" gradientTransform="translate(318.487 275.503) rotate(90) scale(275.503 540.487)">
<stop stop-color="#9A9BE8"/>
<stop offset="1" stop-color="#D1E1FC" stop-opacity="0"/>
</radialGradient>
<linearGradient id="paint1_linear_1009_18" x1="291.725" y1="396.599" x2="235.574" y2="390.529" gradientUnits="userSpaceOnUse">
<stop stop-color="#D5D5FD"/>
<stop offset="1" stop-color="white"/>
</linearGradient>
<linearGradient id="paint2_linear_1009_18" x1="157.159" y1="160.494" x2="135.134" y2="158.113" gradientUnits="userSpaceOnUse">
<stop stop-color="#D5D5FD"/>
<stop offset="1" stop-color="white"/>
</linearGradient>
</defs>
</svg>
