<svg width="504" height="457" viewBox="0 0 504 457" fill="none" xmlns="http://www.w3.org/2000/svg">
<g style="mix-blend-mode:multiply">
<path opacity="0.04" d="M41.2471 94.9081L21.4206 39.0292L-36.8897 28.2593L-75.3688 73.3691L-55.5432 129.253L2.76711 140.023L41.2471 94.9081Z" stroke="#FBFBFB" stroke-width="0.42" stroke-miterlimit="10"/>
<path opacity="0.07" d="M41.1562 94.6862L21.3259 38.8017L-36.9797 28.0326L-75.4644 73.1463L-55.6341 129.031L2.67151 139.8L41.1562 94.6862Z" stroke="#F7F7F8" stroke-width="0.42" stroke-miterlimit="10"/>
<path opacity="0.11" d="M41.0654 94.4644L21.2351 38.5799L-37.0752 27.8099L-75.5552 72.9245L-55.7288 128.803L2.58157 139.573L41.0654 94.4644Z" stroke="#F3F4F4" stroke-width="0.42" stroke-miterlimit="10"/>
<path opacity="0.14" d="M40.9712 94.2369L21.1448 38.358L-37.1656 27.5881L-75.6447 72.6979L-55.8191 128.582L2.49122 139.351L40.9712 94.2369Z" stroke="#EFF0F0" stroke-width="0.42" stroke-miterlimit="10"/>
<path opacity="0.18" d="M40.8795 94.0149L21.0539 38.1313L-37.2564 27.3614L-75.7364 72.4759L-55.9108 128.36L2.39953 139.129L40.8795 94.0149Z" stroke="#ECECEC" stroke-width="0.42" stroke-miterlimit="10"/>
<path opacity="0.21" d="M40.789 93.793L20.9635 37.9094L-37.3469 27.1394L-75.8316 72.2531L-56.0004 128.133L2.30992 138.903L40.789 93.793Z" stroke="#E8E8E9" stroke-width="0.42" stroke-miterlimit="10"/>
<path opacity="0.25" d="M40.6991 93.5665L20.8679 37.6867L-37.4377 26.9176L-75.9215 72.0266L-56.0912 127.911L2.21438 138.68L40.6991 93.5665Z" stroke="#E4E4E5" stroke-width="0.42" stroke-miterlimit="10"/>
<path opacity="0.29" d="M40.6032 93.3436L20.7776 37.46L-37.5327 26.69L-76.0128 71.8046L-56.1872 127.688L2.12317 138.458L40.6032 93.3436Z" stroke="#E0E0E1" stroke-width="0.42" stroke-miterlimit="10"/>
<path opacity="0.32" d="M40.5123 93.1218L20.6868 37.2381L-37.6236 26.4682L-76.1036 71.5827L-56.2771 127.462L2.03322 138.232L40.5123 93.1218Z" stroke="#DCDDDE" stroke-width="0.42" stroke-miterlimit="10"/>
<path opacity="0.36" d="M40.4224 92.8951L20.5959 37.0162L-37.7144 26.2462L-76.1935 71.3561L-56.3679 127.24L1.94239 138.01L40.4224 92.8951Z" stroke="#D8D9DA" stroke-width="0.42" stroke-miterlimit="10"/>
<path opacity="0.39" d="M40.332 92.6733L20.5017 36.7888L-37.8039 26.0197L-76.2886 71.1334L-56.4583 127.018L1.84728 137.787L40.332 92.6733Z" stroke="#D4D5D6" stroke-width="0.42" stroke-miterlimit="10"/>
<path opacity="0.43" d="M40.2407 92.4513L20.4104 36.5668L-37.8952 25.7977L-76.3799 70.9114L-56.5487 126.791L1.75685 137.56L40.2407 92.4513Z" stroke="#D0D1D2" stroke-width="0.42" stroke-miterlimit="10"/>
<path opacity="0.46" d="M40.1455 92.2237L20.3191 36.3448L-37.9912 25.5749L-76.4704 70.6847L-56.6448 126.568L1.66554 137.338L40.1455 92.2237Z" stroke="#CCCDCF" stroke-width="0.42" stroke-miterlimit="10"/>
<path opacity="0.5" d="M40.0558 92.002L20.2302 36.1184L-38.0801 25.3484L-76.5601 70.463L-56.7345 126.347L1.57579 137.117L40.0558 92.002Z" stroke="#C8CACB" stroke-width="0.42" stroke-miterlimit="10"/>
<path opacity="0.54" d="M39.9645 91.7801L20.1389 35.8964L-38.1714 25.1265L-76.6514 70.241L-56.825 126.12L1.48537 136.89L39.9645 91.7801Z" stroke="#C5C6C7" stroke-width="0.42" stroke-miterlimit="10"/>
<path opacity="0.57" d="M39.8744 91.5534L20.0432 35.6736L-38.2624 24.9046L-76.7463 70.0135L-56.9159 125.898L1.38966 136.667L39.8744 91.5534Z" stroke="#C1C2C4" stroke-width="0.42" stroke-miterlimit="10"/>
<path opacity="0.61" d="M39.7832 91.3315L19.9529 35.447L-38.3574 24.677L-76.8375 69.7916L-57.0119 125.675L1.29847 136.445L39.7832 91.3315Z" stroke="#BDBEC0" stroke-width="0.42" stroke-miterlimit="10"/>
<path opacity="0.64" d="M39.6881 91.1088L19.8625 35.2252L-38.4478 24.4553L-76.9278 69.5698L-57.1013 125.449L1.209 136.219L39.6881 91.1088Z" stroke="#B9BABC" stroke-width="0.42" stroke-miterlimit="10"/>
<path opacity="0.68" d="M39.5982 90.8821L19.7717 35.0032L-38.5386 24.2333L-77.0177 69.3431L-57.1921 125.227L1.11818 135.997L39.5982 90.8821Z" stroke="#B5B6B8" stroke-width="0.42" stroke-miterlimit="10"/>
<path opacity="0.71" d="M39.5068 90.6602L19.6812 34.7766L-38.6291 24.0066L-77.1138 69.1203L-57.2835 125.005L1.02683 135.775L39.5068 90.6602Z" stroke="#B1B3B5" stroke-width="0.42" stroke-miterlimit="10"/>
<path opacity="0.75" d="M39.416 90.4382L19.5857 34.5537L-38.7199 23.7847L-77.2046 68.8984L-57.3735 124.778L0.932143 135.547L39.416 90.4382Z" stroke="#ADAFB1" stroke-width="0.42" stroke-miterlimit="10"/>
<path opacity="0.79" d="M39.3208 90.2107L19.4944 34.3318L-38.816 23.5618L-77.2951 68.6717L-57.4695 124.555L0.840834 135.325L39.3208 90.2107Z" stroke="#A9ABAD" stroke-width="0.42" stroke-miterlimit="10"/>
<path opacity="0.82" d="M39.2306 89.9889L19.405 34.1053L-38.9053 23.3354L-77.3853 68.4499L-57.5597 124.334L0.750609 135.104L39.2306 89.9889Z" stroke="#A5A7AA" stroke-width="0.42" stroke-miterlimit="10"/>
<path opacity="0.86" d="M39.1393 89.767L19.3137 33.8834L-38.9966 23.1134L-77.4766 68.228L-57.6502 124.107L0.660157 134.877L39.1393 89.767Z" stroke="#A2A3A6" stroke-width="0.42" stroke-miterlimit="10"/>
<path opacity="0.89" d="M39.0492 89.5404L19.218 33.6606L-39.0876 22.8915L-77.5715 68.0005L-57.7411 123.885L0.564467 134.654L39.0492 89.5404Z" stroke="#9E9FA2" stroke-width="0.42" stroke-miterlimit="10"/>
<path opacity="0.93" d="M38.958 89.3184L19.1277 33.4339L-39.1779 22.6648L-77.6627 67.7785L-57.8323 123.663L0.473263 134.432L38.958 89.3184Z" stroke="#9A9C9E" stroke-width="0.42" stroke-miterlimit="10"/>
<path opacity="0.96" d="M38.8634 89.0958L19.0378 33.2122L-39.2725 22.4422L-77.7525 67.5568L-57.926 123.436L0.384293 134.206L38.8634 89.0958Z" stroke="#96989B" stroke-width="0.42" stroke-miterlimit="10"/>
<path d="M18.9465 32.9902L-39.3638 22.2202L-77.8429 67.33L-58.0173 123.214L0.292985 133.984L38.773 88.8691L18.9465 32.9902Z" stroke="#929497" stroke-width="0.42" stroke-miterlimit="10"/>
</g>
<path d="M18.9465 32.9902L-39.3638 22.2202L-77.8429 67.33L-58.0173 123.214L0.292986 133.984L38.773 88.8691L18.9465 32.9902Z" fill="url(#paint0_linear_944_5592)"/>
<path d="M189.917 551.057L189.192 550.435L287.965 434.649L237.164 291.471L87.7729 263.879L-10.9967 379.67L-11.7226 379.052L87.4025 262.843L237.88 290.636L237.969 290.892L289.046 434.849L288.871 435.056L189.917 551.057Z" fill="#2A3A8C"/>
<path d="M184.38 536.8L49.1943 511.831L49.1155 511.597L3.14328 382.042L3.30532 381.853L92.5192 277.263L227.705 302.231L227.548 303.077L92.8543 278.199L4.12086 382.223L49.8417 511.076L184.536 535.954L184.38 536.8Z" fill="#2A3A8C"/>
<g style="mix-blend-mode:multiply">
<path opacity="0.02" d="M289.904 572.402L255.811 476.312L155.55 457.794L89.3813 535.365L123.474 631.454L223.736 649.973L289.904 572.402Z" fill="white" stroke="#929497" stroke-width="0.01" stroke-miterlimit="10"/>
<path opacity="0.05" d="M289.814 572.18L255.72 476.095L155.458 457.577L89.2909 535.143L123.384 631.233L223.646 649.751L289.814 572.18Z" fill="white" stroke="#929497" stroke-width="0.03" stroke-miterlimit="10"/>
<path opacity="0.07" d="M289.723 571.963L255.629 475.873L155.368 457.355L89.1997 534.926L123.294 631.011L223.555 649.529L289.723 571.963Z" fill="white" stroke="#929497" stroke-width="0.04" stroke-miterlimit="10"/>
<path opacity="0.1" d="M289.631 571.741L255.538 475.651L155.277 457.133L89.1084 534.704L123.202 630.793L223.463 649.312L289.631 571.741Z" fill="white" stroke="#929497" stroke-width="0.06" stroke-miterlimit="10"/>
<path opacity="0.12" d="M289.54 571.519L255.446 475.434L155.185 456.916L89.0175 534.482L123.111 630.572L223.372 649.09L289.54 571.519Z" fill="white" stroke="#929497" stroke-width="0.07" stroke-miterlimit="10"/>
<path opacity="0.15" d="M289.449 571.302L255.356 475.212L155.095 456.694L88.9263 534.265L123.019 630.355L223.281 648.873L289.449 571.302Z" fill="white" stroke="#929497" stroke-width="0.08" stroke-miterlimit="10"/>
<path opacity="0.17" d="M289.358 571.08L255.265 474.99L155.003 456.472L88.835 534.043L122.928 630.133L223.19 648.651L289.358 571.08Z" fill="white" stroke="#929497" stroke-width="0.1" stroke-miterlimit="10"/>
<path opacity="0.2" d="M289.266 570.862L255.172 474.773L154.911 456.255L88.7427 533.826L122.837 629.911L223.098 648.429L289.266 570.862Z" fill="white" stroke="#929497" stroke-width="0.11" stroke-miterlimit="10"/>
<path opacity="0.22" d="M289.176 570.641L255.083 474.551L154.821 456.033L88.6528 533.604L122.746 629.694L223.007 648.212L289.176 570.641Z" fill="white" stroke="#929497" stroke-width="0.12" stroke-miterlimit="10"/>
<path opacity="0.24" d="M289.084 570.419L254.991 474.329L154.73 455.811L88.5615 533.382L122.655 629.472L222.916 647.99L289.084 570.419Z" fill="white" stroke="#929497" stroke-width="0.14" stroke-miterlimit="10"/>
<path opacity="0.27" d="M288.993 570.202L254.9 474.112L154.638 455.594L88.4697 533.165L122.564 629.25L222.825 647.768L288.993 570.202Z" fill="white" stroke="#929497" stroke-width="0.15" stroke-miterlimit="10"/>
<path opacity="0.29" d="M288.902 569.98L254.809 473.89L154.547 455.372L88.3789 532.943L122.472 629.032L222.734 647.551L288.902 569.98Z" fill="white" stroke="#929497" stroke-width="0.17" stroke-miterlimit="10"/>
<path opacity="0.32" d="M288.811 569.758L254.717 473.673L154.455 455.155L88.2831 532.72L122.381 628.811L222.642 647.329L288.811 569.758Z" fill="white" stroke="#929497" stroke-width="0.18" stroke-miterlimit="10"/>
<path opacity="0.34" d="M288.72 569.541L254.626 473.451L154.36 454.932L88.1919 532.503L122.286 628.588L222.552 647.107L288.72 569.541Z" fill="white" stroke="#929497" stroke-width="0.19" stroke-miterlimit="10"/>
<path opacity="0.37" d="M288.623 569.318L254.53 473.228L154.269 454.71L88.1006 532.281L122.194 628.371L222.455 646.889L288.623 569.318Z" fill="white" stroke="#929497" stroke-width="0.21" stroke-miterlimit="10"/>
<path opacity="0.39" d="M288.532 569.096L254.438 473.011L154.177 454.493L88.0092 532.059L122.102 628.149L222.364 646.667L288.532 569.096Z" fill="white" stroke="#929497" stroke-width="0.22" stroke-miterlimit="10"/>
<path opacity="0.41" d="M288.441 568.879L254.348 472.789L154.086 454.271L87.918 531.842L122.011 627.931L222.273 646.45L288.441 568.879Z" fill="white" stroke="#929497" stroke-width="0.24" stroke-miterlimit="10"/>
<path opacity="0.44" d="M288.35 568.657L254.257 472.567L153.995 454.049L87.8272 531.62L121.92 627.71L222.182 646.228L288.35 568.657Z" fill="white" stroke="#929497" stroke-width="0.25" stroke-miterlimit="10"/>
<path opacity="0.46" d="M288.259 568.435L254.165 472.35L153.904 453.832L87.7362 531.398L121.829 627.488L222.091 646.006L288.259 568.435Z" fill="white" stroke="#929497" stroke-width="0.26" stroke-miterlimit="10"/>
<path opacity="0.49" d="M288.168 568.218L254.075 472.128L153.813 453.61L87.645 531.181L121.738 627.271L222 645.789L288.168 568.218Z" fill="white" stroke="#929497" stroke-width="0.28" stroke-miterlimit="10"/>
<path opacity="0.51" d="M288.077 567.996L253.983 471.906L153.722 453.388L87.5537 530.959L121.647 627.049L221.908 645.567L288.077 567.996Z" fill="white" stroke="#929497" stroke-width="0.29" stroke-miterlimit="10"/>
<path opacity="0.54" d="M287.985 567.779L253.892 471.689L153.63 453.171L87.4619 530.742L121.556 626.827L221.817 645.345L287.985 567.779Z" fill="white" stroke="#929497" stroke-width="0.31" stroke-miterlimit="10"/>
<path opacity="0.56" d="M287.894 567.557L253.8 471.467L153.539 452.949L87.3706 530.52L121.464 626.609L221.725 645.128L287.894 567.557Z" fill="white" stroke="#929497" stroke-width="0.32" stroke-miterlimit="10"/>
<path opacity="0.59" d="M287.804 567.335L253.711 471.246L153.449 452.727L87.2808 530.298L121.374 626.388L221.635 644.906L287.804 567.335Z" fill="white" stroke="#929497" stroke-width="0.33" stroke-miterlimit="10"/>
<path opacity="0.61" d="M287.711 567.118L253.618 471.028L153.357 452.51L87.1885 530.081L121.282 626.166L221.544 644.684L287.711 567.118Z" fill="white" stroke="#929497" stroke-width="0.35" stroke-miterlimit="10"/>
<path opacity="0.63" d="M287.62 566.896L253.527 470.806L153.266 452.288L87.0972 529.859L121.19 625.949L221.452 644.467L287.62 566.896Z" fill="white" stroke="#929497" stroke-width="0.36" stroke-miterlimit="10"/>
<path opacity="0.66" d="M287.53 566.674L253.436 470.589L153.174 452.071L87.0067 529.637L121.1 625.727L221.361 644.245L287.53 566.674Z" fill="white" stroke="#929497" stroke-width="0.37" stroke-miterlimit="10"/>
<path opacity="0.68" d="M287.438 566.457L253.345 470.367L153.083 451.849L86.915 529.42L121.009 625.505L221.271 644.023L287.438 566.457Z" fill="white" stroke="#929497" stroke-width="0.39" stroke-miterlimit="10"/>
<path opacity="0.71" d="M287.347 566.235L253.254 470.145L152.988 451.626L86.8193 529.197L120.912 625.287L221.179 643.806L287.347 566.235Z" fill="white" stroke="#929497" stroke-width="0.4" stroke-miterlimit="10"/>
<path opacity="0.73" d="M287.251 566.012L253.157 469.927L152.896 451.409L86.7284 528.975L120.822 625.065L221.083 643.583L287.251 566.012Z" fill="white" stroke="#929497" stroke-width="0.42" stroke-miterlimit="10"/>
<path opacity="0.76" d="M287.159 565.795L253.066 469.705L152.805 451.187L86.6362 528.758L120.729 624.848L220.991 643.366L287.159 565.795Z" fill="white" stroke="#929497" stroke-width="0.43" stroke-miterlimit="10"/>
<path opacity="0.78" d="M287.069 565.573L252.976 469.484L152.715 450.965L86.5464 528.536L120.64 624.626L220.901 643.144L287.069 565.573Z" fill="white" stroke="#929497" stroke-width="0.44" stroke-miterlimit="10"/>
<path opacity="0.8" d="M286.978 565.351L252.884 469.266L152.622 450.748L86.455 528.314L120.548 624.404L220.81 642.922L286.978 565.351Z" fill="white" stroke="#929497" stroke-width="0.46" stroke-miterlimit="10"/>
<path opacity="0.83" d="M286.886 565.134L252.793 469.044L152.531 450.526L86.3628 528.097L120.456 624.187L220.717 642.705L286.886 565.134Z" fill="white" stroke="#929497" stroke-width="0.47" stroke-miterlimit="10"/>
<path opacity="0.85" d="M286.796 564.912L252.703 468.823L152.441 450.304L86.273 527.875L120.366 623.965L220.628 642.483L286.796 564.912Z" fill="white" stroke="#929497" stroke-width="0.49" stroke-miterlimit="10"/>
<path opacity="0.88" d="M286.704 564.695L252.61 468.605L152.349 450.087L86.1807 527.658L120.275 623.743L220.536 642.261L286.704 564.695Z" fill="white" stroke="#929497" stroke-width="0.5" stroke-miterlimit="10"/>
<path opacity="0.9" d="M286.612 564.473L252.519 468.383L152.258 449.865L86.0894 527.436L120.183 623.526L220.444 642.044L286.612 564.473Z" fill="white" stroke="#929497" stroke-width="0.51" stroke-miterlimit="10"/>
<path opacity="0.93" d="M286.521 564.251L252.427 468.166L152.166 449.648L85.9984 527.214L120.092 623.304L220.353 641.822L286.521 564.251Z" fill="white" stroke="#929497" stroke-width="0.53" stroke-miterlimit="10"/>
<path opacity="0.95" d="M286.43 564.034L252.337 467.944L152.076 449.426L85.9072 526.997L120.001 623.082L220.263 641.6L286.43 564.034Z" fill="white" stroke="#929497" stroke-width="0.54" stroke-miterlimit="10"/>
<path opacity="0.98" d="M286.339 563.812L252.246 467.722L151.985 449.204L85.8164 526.775L119.91 622.865L220.171 641.383L286.339 563.812Z" fill="white" stroke="#929497" stroke-width="0.56" stroke-miterlimit="10"/>
<path d="M252.154 467.505L151.892 448.987L85.725 526.553L119.818 622.643L220.08 641.161L286.248 563.59L252.154 467.505Z" stroke="#929497" stroke-width="0.57" stroke-miterlimit="10"/>
</g>
<path d="M252.154 467.505L151.892 448.987L85.725 526.553L119.818 622.643L220.08 641.161L286.248 563.59L252.154 467.505Z" fill="url(#paint1_linear_944_5592)"/>
<g style="mix-blend-mode:multiply" opacity="0.8">
<path opacity="0.02" d="M22.0367 470.548L-99.2169 448.153L-179.236 541.963L-138.007 658.168L-16.7533 680.564L63.2661 586.753L22.0367 470.548Z" stroke="#FDFDFD" stroke-width="0.5" stroke-miterlimit="10"/>
<path opacity="0.04" d="M21.9766 470.317L-99.2722 447.923L-179.296 541.732L-138.062 657.938L-16.8134 680.333L63.2107 586.523L21.9766 470.317Z" stroke="#FBFBFB" stroke-width="0.5" stroke-miterlimit="10"/>
<path opacity="0.06" d="M21.9219 470.087L-99.3317 447.692L-179.351 541.502L-138.121 657.703L-16.8672 680.098L63.1513 586.292L21.9219 470.087Z" stroke="#F9F9F9" stroke-width="0.5" stroke-miterlimit="10"/>
<path opacity="0.08" d="M21.8614 469.857L-99.3922 447.461L-179.412 541.271L-138.181 657.472L-16.9277 679.867L63.0908 586.062L21.8614 469.857Z" stroke="#F6F7F7" stroke-width="0.5" stroke-miterlimit="10"/>
<path opacity="0.1" d="M21.8023 469.626L-99.4465 447.231L-179.47 541.036L-138.236 657.242L-16.9868 679.637L63.0326 585.826L21.8023 469.626Z" stroke="#F4F5F5" stroke-width="0.5" stroke-miterlimit="10"/>
<path opacity="0.12" d="M21.7434 469.39L-99.5055 446.996L-179.525 540.806L-138.295 657.011L-17.0466 679.406L62.9775 585.596L21.7434 469.39Z" stroke="#F2F2F3" stroke-width="0.5" stroke-miterlimit="10"/>
<path opacity="0.14" d="M21.6875 469.16L-99.566 446.765L-179.585 540.575L-138.356 656.78L-17.1024 679.176L62.917 585.365L21.6875 469.16Z" stroke="#F0F0F1" stroke-width="0.5" stroke-miterlimit="10"/>
<path opacity="0.16" d="M21.6275 468.929L-99.6261 446.534L-179.645 540.344L-138.416 656.549L-17.1625 678.945L62.8569 585.134L21.6275 468.929Z" stroke="#EEEEEF" stroke-width="0.5" stroke-miterlimit="10"/>
<path opacity="0.18" d="M21.5674 468.699L-99.6814 446.304L-179.706 540.113L-138.471 656.319L-17.2225 678.714L62.8016 584.904L21.5674 468.699Z" stroke="#ECECED" stroke-width="0.5" stroke-miterlimit="10"/>
<path opacity="0.2" d="M21.5122 468.469L-99.7413 446.073L-179.761 539.883L-138.531 656.088L-17.2777 678.484L62.7417 584.674L21.5122 468.469Z" stroke="#EAEAEB" stroke-width="0.5" stroke-miterlimit="10"/>
<path opacity="0.22" d="M21.4522 468.238L-99.8014 445.842L-179.821 539.652L-138.591 655.858L-17.3378 678.253L62.6816 584.443L21.4522 468.238Z" stroke="#E7E8E9" stroke-width="0.5" stroke-miterlimit="10"/>
<path opacity="0.24" d="M21.3936 468.007L-99.8552 445.612L-179.879 539.422L-138.644 655.623L-17.3955 678.018L62.6277 584.213L21.3936 468.007Z" stroke="#E5E6E7" stroke-width="0.5" stroke-miterlimit="10"/>
<path opacity="0.25" d="M21.3379 467.777L-99.9156 445.381L-179.934 539.187L-138.705 655.392L-17.4512 677.788L62.5682 583.977L21.3379 467.777Z" stroke="#E3E4E4" stroke-width="0.5" stroke-miterlimit="10"/>
<path opacity="0.27" d="M21.2784 467.541L-99.9752 445.146L-179.995 538.956L-138.765 655.161L-17.5116 677.557L62.5078 583.746L21.2784 467.541Z" stroke="#E1E2E2" stroke-width="0.5" stroke-miterlimit="10"/>
<path opacity="0.29" d="M21.2183 467.311L-100.031 444.916L-180.055 538.725L-138.82 654.931L-17.5717 677.326L62.4524 583.517L21.2183 467.311Z" stroke="#DFE0E0" stroke-width="0.5" stroke-miterlimit="10"/>
<path opacity="0.31" d="M21.1631 467.081L-100.09 444.685L-180.11 538.495L-138.88 654.7L-17.6268 677.096L62.3926 583.286L21.1631 467.081Z" stroke="#DDDDDE" stroke-width="0.5" stroke-miterlimit="10"/>
<path opacity="0.33" d="M21.1031 466.85L-100.15 444.454L-180.17 538.264L-138.94 654.47L-17.6869 676.865L62.3325 583.055L21.1031 466.85Z" stroke="#DBDBDC" stroke-width="0.5" stroke-miterlimit="10"/>
<path opacity="0.35" d="M21.043 466.619L-100.206 444.224L-180.23 538.034L-138.996 654.24L-17.747 676.634L62.2772 582.825L21.043 466.619Z" stroke="#D9D9DA" stroke-width="0.5" stroke-miterlimit="10"/>
<path opacity="0.37" d="M20.9883 466.389L-100.265 443.993L-180.285 537.804L-139.055 654.009L-17.8016 676.404L62.2178 582.594L20.9883 466.389Z" stroke="#D6D7D8" stroke-width="0.5" stroke-miterlimit="10"/>
<path opacity="0.39" d="M20.9283 466.158L-100.325 443.763L-180.345 537.573L-139.114 653.773L-17.8608 676.169L62.1577 582.363L20.9283 466.158Z" stroke="#D4D5D6" stroke-width="0.5" stroke-miterlimit="10"/>
<path opacity="0.41" d="M20.8682 465.927L-100.381 443.533L-180.404 537.337L-139.17 653.543L-17.9209 675.938L62.1032 582.128L20.8682 465.927Z" stroke="#D2D3D4" stroke-width="0.5" stroke-miterlimit="10"/>
<path opacity="0.43" d="M20.814 465.693L-100.44 443.297L-180.459 537.107L-139.229 653.312L-17.9759 675.708L62.0434 581.898L20.814 465.693Z" stroke="#D0D1D2" stroke-width="0.5" stroke-miterlimit="10"/>
<path opacity="0.45" d="M20.7539 465.462L-100.5 443.066L-180.519 536.876L-139.29 653.082L-18.036 675.477L61.9834 581.667L20.7539 465.462Z" stroke="#CECFD0" stroke-width="0.5" stroke-miterlimit="10"/>
<path opacity="0.47" d="M20.6939 465.231L-100.555 442.836L-180.579 536.646L-139.345 652.852L-18.0961 675.246L61.9233 581.436L20.6939 465.231Z" stroke="#CCCDCE" stroke-width="0.5" stroke-miterlimit="10"/>
<path opacity="0.49" d="M20.634 465L-100.615 442.605L-180.634 536.416L-139.405 652.621L-18.156 675.015L61.8681 581.206L20.634 465Z" stroke="#CACBCC" stroke-width="0.5" stroke-miterlimit="10"/>
<path opacity="0.51" d="M20.5791 464.77L-100.674 442.375L-180.694 536.185L-139.464 652.39L-18.2108 674.786L61.8086 580.975L20.5791 464.77Z" stroke="#C7C8CA" stroke-width="0.5" stroke-miterlimit="10"/>
<path opacity="0.53" d="M20.5196 464.539L-100.734 442.144L-180.753 535.954L-139.524 652.159L-18.2704 674.555L61.749 580.744L20.5196 464.539Z" stroke="#C5C6C8" stroke-width="0.5" stroke-miterlimit="10"/>
<path opacity="0.55" d="M20.4595 464.309L-100.789 441.914L-180.813 535.723L-139.578 651.925L-18.3296 674.319L61.6937 580.514L20.4595 464.309Z" stroke="#C3C4C6" stroke-width="0.5" stroke-miterlimit="10"/>
<path opacity="0.57" d="M20.4038 464.079L-100.85 441.683L-180.868 535.489L-139.639 651.694L-18.3852 674.089L61.6342 580.279L20.4038 464.079Z" stroke="#C1C2C4" stroke-width="0.5" stroke-miterlimit="10"/>
<path opacity="0.59" d="M20.3448 463.843L-100.909 441.447L-180.928 535.258L-139.699 651.463L-18.4452 673.858L61.5742 580.048L20.3448 463.843Z" stroke="#BFC0C2" stroke-width="0.5" stroke-miterlimit="10"/>
<path opacity="0.61" d="M20.2852 463.612L-100.964 441.217L-180.988 535.027L-139.754 651.233L-18.5048 673.628L61.5193 579.818L20.2852 463.612Z" stroke="#BDBEC0" stroke-width="0.5" stroke-miterlimit="10"/>
<path opacity="0.63" d="M20.23 463.382L-101.024 440.987L-181.043 534.797L-139.813 651.002L-18.5599 673.398L61.4595 579.587L20.23 463.382Z" stroke="#BBBCBE" stroke-width="0.5" stroke-miterlimit="10"/>
<path opacity="0.65" d="M20.1705 463.151L-101.083 440.756L-181.102 534.566L-139.873 650.771L-18.6195 673.167L61.3999 579.357L20.1705 463.151Z" stroke="#B8BABC" stroke-width="0.5" stroke-miterlimit="10"/>
<path opacity="0.67" d="M20.1104 462.921L-101.138 440.526L-181.163 534.335L-139.928 650.541L-18.6796 672.936L61.3445 579.126L20.1104 462.921Z" stroke="#B6B8BA" stroke-width="0.5" stroke-miterlimit="10"/>
<path opacity="0.69" d="M20.0547 462.691L-101.199 440.295L-181.218 534.105L-139.989 650.31L-18.7352 672.706L61.2842 578.896L20.0547 462.691Z" stroke="#B4B6B8" stroke-width="0.5" stroke-miterlimit="10"/>
<path opacity="0.71" d="M19.9947 462.46L-101.259 440.064L-181.278 533.874L-140.048 650.075L-18.7944 672.47L61.2241 578.665L19.9947 462.46Z" stroke="#B2B3B6" stroke-width="0.5" stroke-miterlimit="10"/>
<path opacity="0.73" d="M19.9351 462.229L-101.314 439.834L-181.337 533.639L-140.103 649.845L-18.854 672.24L61.1701 578.43L19.9351 462.229Z" stroke="#B0B1B4" stroke-width="0.5" stroke-miterlimit="10"/>
<path opacity="0.75" d="M19.8804 461.994L-101.373 439.598L-181.393 533.409L-140.163 649.614L-18.9095 672.01L61.1098 578.199L19.8804 461.994Z" stroke="#AEAFB2" stroke-width="0.5" stroke-miterlimit="10"/>
<path opacity="0.76" d="M19.8213 461.763L-101.432 439.368L-181.452 533.178L-140.222 649.383L-18.9686 671.779L61.0508 577.969L19.8213 461.763Z" stroke="#ACADAF" stroke-width="0.5" stroke-miterlimit="10"/>
<path opacity="0.78" d="M19.7613 461.533L-101.488 439.138L-181.512 532.947L-140.278 649.153L-19.0287 671.548L60.9954 577.739L19.7613 461.533Z" stroke="#AAABAD" stroke-width="0.5" stroke-miterlimit="10"/>
<path opacity="0.8" d="M19.7056 461.303L-101.548 438.907L-181.567 532.717L-140.338 648.922L-19.0844 671.318L60.935 577.508L19.7056 461.303Z" stroke="#A7A9AB" stroke-width="0.5" stroke-miterlimit="10"/>
<path opacity="0.82" d="M19.6455 461.072L-101.608 438.676L-181.627 532.486L-140.398 648.691L-19.1444 671.087L60.875 577.277L19.6455 461.072Z" stroke="#A5A7A9" stroke-width="0.5" stroke-miterlimit="10"/>
<path opacity="0.84" d="M19.586 460.841L-101.663 438.446L-181.687 532.256L-140.453 648.462L-19.204 670.856L60.8154 577.046L19.586 460.841Z" stroke="#A3A5A7" stroke-width="0.5" stroke-miterlimit="10"/>
<path opacity="0.86" d="M19.5261 460.61L-101.723 438.215L-181.742 532.026L-140.512 648.226L-19.263 670.621L60.7602 576.816L19.5261 460.61Z" stroke="#A1A3A5" stroke-width="0.5" stroke-miterlimit="10"/>
<path opacity="0.88" d="M19.4712 460.38L-101.782 437.985L-181.801 531.79L-140.571 647.995L-19.3178 670.391L60.7015 576.581L19.4712 460.38Z" stroke="#9FA1A3" stroke-width="0.5" stroke-miterlimit="10"/>
<path opacity="0.9" d="M19.4117 460.144L-101.842 437.749L-181.861 531.559L-140.632 647.764L-19.3783 670.16L60.6411 576.35L19.4117 460.144Z" stroke="#9D9EA1" stroke-width="0.5" stroke-miterlimit="10"/>
<path opacity="0.92" d="M19.3521 459.914L-101.897 437.519L-181.921 531.328L-140.687 647.534L-19.4379 669.929L60.5862 576.12L19.3521 459.914Z" stroke="#9B9C9F" stroke-width="0.5" stroke-miterlimit="10"/>
<path opacity="0.94" d="M19.2964 459.684L-101.957 437.288L-181.977 531.098L-140.747 647.303L-19.4935 669.699L60.5259 575.889L19.2964 459.684Z" stroke="#989A9D" stroke-width="0.5" stroke-miterlimit="10"/>
<path opacity="0.96" d="M19.2369 459.453L-102.017 437.057L-182.036 530.868L-140.807 647.073L-19.5531 669.468L60.4663 575.658L19.2369 459.453Z" stroke="#96989B" stroke-width="0.5" stroke-miterlimit="10"/>
<path opacity="0.98" d="M19.1768 459.222L-102.072 436.827L-182.096 530.637L-140.862 646.843L-19.6132 669.237L60.4109 575.428L19.1768 459.222Z" stroke="#949699" stroke-width="0.5" stroke-miterlimit="10"/>
<path d="M19.1211 458.992L-102.132 436.596L-182.152 530.407L-140.922 646.612L-19.6688 669.007L60.3506 575.197L19.1211 458.992Z" stroke="#929497" stroke-width="0.5" stroke-miterlimit="10"/>
</g>
<path d="M19.1211 458.992L-102.132 436.596L-182.152 530.407L-140.922 646.612L-19.6688 669.007L60.3506 575.197L19.1211 458.992Z" fill="url(#paint2_linear_944_5592)"/>
<path d="M0.0166926 481.386L-92.2871 464.338L-153.206 535.753L-121.817 624.218L-29.5132 641.266L31.406 569.851L0.0166926 481.386Z" fill="url(#paint3_linear_944_5592)"/>
<path d="M-14.2045 683.794L-151.307 658.471L-197.926 527.078L-107.448 421.007L29.6504 446.33L76.2696 577.722L-14.2092 683.793L-14.2045 683.794ZM-150.653 657.708L-14.5425 682.847L75.2873 577.541L29.0013 447.094L-107.11 421.954L-196.939 527.26L-150.653 657.708Z" fill="#2A3A8C"/>
<g style="mix-blend-mode:multiply" opacity="0.8">
<path opacity="0.08" d="M296.089 490.769L213.429 475.502L185.323 396.283L239.872 332.331L322.533 347.598L350.639 426.817L296.089 490.769ZM328.592 340.493L236.751 323.53L176.137 394.587L207.369 482.607L299.21 499.57L359.824 428.514L328.592 340.493Z" fill="#F7F7F7"/>
<path opacity="0.15" d="M295.937 490.326L213.277 475.059L185.171 395.84L239.721 331.888L322.381 347.155L350.487 426.374L295.937 490.326ZM328.44 340.05L236.599 323.087L175.985 394.143L207.218 482.164L299.059 499.127L359.672 428.07L328.44 340.05Z" fill="#EEEFEF"/>
<path opacity="0.23" d="M295.784 489.883L213.124 474.615L185.018 395.397L239.567 331.444L322.228 346.712L350.333 425.93L295.784 489.883ZM328.287 339.607L236.446 322.643L175.832 393.7L207.064 481.721L298.905 498.684L359.519 427.627L328.287 339.607Z" fill="#E6E6E7"/>
<path opacity="0.31" d="M295.631 489.439L212.971 474.172L184.865 394.953L239.414 331.001L322.075 346.268L350.181 425.487L295.631 489.439ZM328.134 339.163L236.293 322.2L175.679 393.257L206.911 481.277L298.752 498.24L359.366 427.184L328.134 339.163Z" fill="#DDDEDF"/>
<path opacity="0.38" d="M295.483 488.997L212.823 473.73L184.717 394.511L239.267 330.558L321.927 345.826L350.033 425.045L295.483 488.997ZM327.987 338.721L236.146 321.758L175.532 392.814L206.764 480.835L298.605 497.798L359.219 426.741L327.987 338.721Z" fill="#D5D6D7"/>
<path opacity="0.46" d="M295.331 488.554L212.67 473.286L184.565 394.068L239.114 330.115L321.774 345.383L349.88 424.601L295.331 488.554ZM327.834 338.278L235.993 321.314L175.379 392.371L206.611 480.392L298.452 497.355L359.066 426.298L327.834 338.278Z" fill="#CDCECF"/>
<path opacity="0.54" d="M295.178 488.111L212.518 472.843L184.412 393.624L238.962 329.672L321.622 344.939L349.728 424.158L295.178 488.111ZM327.681 337.834L235.84 320.871L175.227 391.928L206.459 479.948L298.3 496.911L358.913 425.855L327.681 337.834Z" fill="#C4C5C7"/>
<path opacity="0.62" d="M295.026 487.667L212.366 472.4L184.26 393.181L238.81 329.229L321.47 344.496L349.576 423.715L295.026 487.667ZM327.529 337.391L235.688 320.428L175.074 391.484L206.306 479.505L298.147 496.468L358.761 425.411L327.529 337.391Z" fill="#BCBDBF"/>
<path opacity="0.69" d="M294.877 487.23L212.217 471.962L184.111 392.743L238.661 328.791L321.321 344.058L349.427 423.277L294.877 487.23ZM327.381 336.953L235.54 319.99L174.926 391.047L206.158 479.067L297.999 496.03L358.613 424.974L327.381 336.953Z" fill="#B4B5B7"/>
<path opacity="0.77" d="M294.725 486.786L212.064 471.519L183.959 392.3L238.508 328.348L321.168 343.615L349.274 422.834L294.725 486.786ZM327.228 336.51L235.387 319.547L174.773 390.603L206.005 478.624L297.846 495.587L358.46 424.53L327.228 336.51Z" fill="#ABADAF"/>
<path opacity="0.85" d="M294.573 486.343L211.913 471.076L183.807 391.857L238.356 327.904L321.017 343.172L349.122 422.391L294.573 486.343ZM327.076 336.067L235.235 319.104L174.621 390.16L205.853 478.181L297.694 495.144L358.308 424.087L327.076 336.067Z" fill="#A3A4A7"/>
<path opacity="0.92" d="M294.419 485.9L211.759 470.632L183.653 391.413L238.203 327.461L320.863 342.728L348.969 421.947L294.419 485.9ZM326.923 335.623L235.082 318.66L174.468 389.717L205.7 477.737L297.541 494.7L358.155 423.644L326.923 335.623Z" fill="#9A9C9F"/>
<path d="M294.271 485.457L211.611 470.19L183.505 390.971L238.055 327.019L320.715 342.286L348.821 421.505L294.271 485.457ZM326.775 335.181L234.934 318.218L174.32 389.274L205.552 477.295L297.393 494.258L358.007 423.201L326.775 335.181Z" fill="#929497"/>
</g>
<path d="M326.775 335.181L234.934 318.218L174.32 389.274L205.552 477.295L297.393 494.258L358.007 423.201L326.775 335.181ZM294.271 485.457L211.611 470.19L183.505 390.971L238.055 327.019L320.715 342.286L348.821 421.505L294.271 485.457Z" fill="url(#paint4_linear_944_5592)"/>
<g style="mix-blend-mode:multiply" opacity="0.8">
<path opacity="0.03" d="M90.1702 571.157L-19.9379 550.82L-57.3814 445.292L15.2879 360.101L125.396 380.438L162.84 485.967L90.1702 571.157ZM133.468 370.975L11.1239 348.378L-69.6178 443.032L-28.0149 560.282L94.3295 582.879L175.071 488.226L133.468 370.975Z" fill="#929497"/>
<path opacity="0.06" d="M90.085 570.931L-20.0232 550.594L-57.4667 445.066L15.2026 359.876L125.311 380.213L162.754 485.741L90.085 570.931ZM133.383 370.749L11.0433 348.153L-69.6983 442.807L-28.0955 560.058L94.249 582.655L174.991 488.001L133.388 370.75L133.383 370.749Z" fill="#929497"/>
<path opacity="0.09" d="M90 570.706L-20.1082 550.369L-57.5517 444.84L15.1177 359.65L125.226 379.987L162.669 485.515L90 570.706ZM133.298 370.524L10.9584 347.927L-69.7833 442.581L-28.1805 559.832L94.164 582.429L174.906 487.775L133.303 370.524L133.298 370.524Z" fill="#929497"/>
<path opacity="0.11" d="M89.9188 570.481L-20.1894 550.143L-57.6329 444.615L15.0365 359.425L125.145 379.762L162.588 485.29L89.9188 570.481ZM133.217 370.299L10.8724 347.701L-69.8692 442.355L-28.2664 559.606L94.0781 582.203L174.82 487.549L133.217 370.299Z" fill="#929497"/>
<path opacity="0.14" d="M89.8338 570.255L-20.2743 549.918L-57.7178 444.39L14.9515 359.199L125.06 379.536L162.503 485.064L89.8338 570.255ZM133.132 370.073L10.7875 347.476L-69.9542 442.13L-28.3514 559.38L93.9931 581.977L174.735 487.324L133.132 370.073Z" fill="#929497"/>
<path opacity="0.17" d="M89.7475 570.034L-20.3606 549.697L-57.8041 444.168L14.8652 358.978L124.973 379.315L162.417 484.843L89.7475 570.034ZM133.046 369.852L10.7059 347.256L-70.0357 441.909L-28.4329 559.16L93.9115 581.757L174.653 487.103L133.05 369.853L133.046 369.852Z" fill="#929497"/>
<path opacity="0.2" d="M89.6673 569.809L-20.4408 549.472L-57.8844 443.944L14.785 358.753L124.893 379.09L162.337 484.619L89.6673 569.809ZM132.965 369.627L10.621 347.03L-70.1207 441.684L-28.5179 558.934L93.8266 581.531L174.568 486.878L132.965 369.627Z" fill="#929497"/>
<path opacity="0.23" d="M89.5814 569.583L-20.5268 549.246L-57.9703 443.718L14.6991 358.527L124.807 378.864L162.251 484.393L89.5814 569.583ZM132.879 369.401L10.535 346.804L-70.2066 441.458L-28.6038 558.709L93.7406 581.306L174.482 486.652L132.879 369.401Z" fill="#929497"/>
<path opacity="0.26" d="M89.4966 569.357L-20.6116 549.02L-58.0551 443.492L14.6142 358.302L124.722 378.639L162.166 484.167L89.4966 569.357ZM132.795 369.175L10.455 346.579L-70.2867 441.233L-28.6839 558.484L93.6606 581.081L174.402 486.427L132.799 369.176L132.795 369.175Z" fill="#929497"/>
<path opacity="0.29" d="M89.4111 569.132L-20.697 548.795L-58.1405 443.266L14.5288 358.076L124.637 378.413L162.08 483.941L89.4111 569.132ZM132.709 368.95L10.3695 346.354L-70.3722 441.007L-28.7693 558.258L93.5751 580.855L174.317 486.201L132.714 368.951L132.709 368.95Z" fill="#929497"/>
<path opacity="0.31" d="M89.3299 568.907L-20.7782 548.57L-58.2218 443.041L14.4476 357.851L124.556 378.188L161.999 483.716L89.3299 568.907ZM132.628 368.725L10.2836 346.128L-70.4581 440.781L-28.8553 558.032L93.4892 580.629L174.231 485.976L132.628 368.725Z" fill="#929497"/>
<path opacity="0.34" d="M89.2454 568.681L-20.8627 548.344L-58.3062 442.816L14.3631 357.625L124.471 377.962L161.915 483.491L89.2454 568.681ZM132.544 368.499L10.1991 345.902L-70.5426 440.556L-28.9397 557.806L93.4047 580.404L174.146 485.75L132.544 368.499Z" fill="#929497"/>
<path opacity="0.37" d="M89.1596 568.46L-20.9485 548.123L-58.392 442.595L14.2773 357.404L124.385 377.741L161.829 483.27L89.1596 568.46ZM132.458 368.278L10.1181 345.682L-70.6236 440.336L-29.0208 557.586L93.3237 580.183L174.065 485.53L132.463 368.279L132.458 368.278Z" fill="#929497"/>
<path opacity="0.4" d="M89.0789 568.235L-21.0292 547.898L-58.4727 442.37L14.1966 357.179L124.305 377.517L161.748 483.045L89.0789 568.235ZM132.377 368.053L10.0326 345.456L-70.7091 440.11L-29.1063 557.361L93.2382 579.958L173.98 485.304L132.377 368.053Z" fill="#929497"/>
<path opacity="0.43" d="M88.993 568.009L-21.1152 547.672L-58.5587 442.144L14.1107 356.954L124.219 377.291L161.662 482.819L88.993 568.009ZM132.291 367.827L9.94665 345.23L-70.795 439.884L-29.1922 557.135L93.1523 579.732L173.894 485.078L132.291 367.827Z" fill="#929497"/>
<path opacity="0.46" d="M88.9082 567.784L-21.2 547.447L-58.6435 441.918L14.0259 356.728L124.134 377.065L161.578 482.593L88.9082 567.784ZM132.206 367.602L9.86657 345.005L-70.8751 439.659L-29.2723 556.91L93.0722 579.507L173.814 484.853L132.211 367.603L132.206 367.602Z" fill="#929497"/>
<path opacity="0.49" d="M88.8228 567.558L-21.2854 547.221L-58.7289 441.693L13.9404 356.502L124.049 376.839L161.492 482.368L88.8228 567.558ZM132.121 367.376L9.78112 344.78L-70.9605 439.433L-29.3577 556.684L92.9868 579.281L173.728 484.628L132.126 367.377L132.121 367.376Z" fill="#929497"/>
<path opacity="0.51" d="M88.7425 567.333L-21.3656 546.996L-58.8092 441.468L13.8602 356.277L123.968 376.614L161.412 482.143L88.7425 567.333ZM132.041 367.151L9.69616 344.554L-71.0455 439.208L-29.4427 556.458L92.9018 579.055L173.643 484.402L132.041 367.151Z" fill="#929497"/>
<path opacity="0.54" d="M88.6571 567.107L-21.4511 546.77L-58.8946 441.242L13.7747 356.052L123.883 376.389L161.326 481.917L88.6571 567.107ZM131.955 366.925L9.61071 344.328L-71.1309 438.982L-29.5281 556.233L92.8164 578.83L173.558 484.176L131.955 366.925Z" fill="#929497"/>
<path opacity="0.57" d="M88.5713 566.886L-21.5369 546.549L-58.9804 441.021L13.689 355.831L123.797 376.168L161.241 481.696L88.5713 566.886ZM131.869 366.704L9.52966 344.108L-71.212 438.762L-29.6092 556.013L92.7353 578.61L173.477 483.956L131.874 366.705L131.869 366.704Z" fill="#929497"/>
<path opacity="0.6" d="M88.4906 566.661L-21.6176 546.324L-59.0611 440.796L13.6082 355.606L123.716 375.943L161.16 481.471L88.4906 566.661ZM131.789 366.479L9.44421 343.882L-71.2975 438.536L-29.6946 555.787L92.6499 578.384L173.391 483.73L131.789 366.479Z" fill="#929497"/>
<path opacity="0.63" d="M88.4046 566.436L-21.7035 546.099L-59.147 440.57L13.5223 355.38L123.63 375.717L161.074 481.245L88.4046 566.436ZM131.703 366.254L9.35827 343.656L-71.3834 438.31L-29.7806 555.561L92.5639 578.158L173.306 483.504L131.703 366.254Z" fill="#929497"/>
<path opacity="0.66" d="M88.3198 566.21L-21.7883 545.873L-59.2319 440.345L13.4375 355.154L123.546 375.491L160.989 481.019L88.3198 566.21ZM131.618 366.028L9.2782 343.432L-71.4635 438.085L-29.8607 555.336L92.4838 577.933L173.225 483.28L131.623 366.029L131.618 366.028Z" fill="#929497"/>
<path opacity="0.69" d="M88.2343 565.984L-21.8738 545.647L-59.3173 440.119L13.3521 354.928L123.46 375.265L160.904 480.794L88.2343 565.984ZM131.532 365.802L9.19275 343.206L-71.5489 437.86L-29.9461 555.11L92.3984 577.707L173.14 483.054L131.537 365.803L131.532 365.802Z" fill="#929497"/>
<path opacity="0.71" d="M88.1536 565.759L-21.9545 545.422L-59.398 439.894L13.2713 354.703L123.379 375.041L160.823 480.569L88.1536 565.759ZM131.452 365.577L9.1073 342.98L-71.6344 437.634L-30.0316 554.885L92.3129 577.482L173.055 482.828L131.452 365.577Z" fill="#929497"/>
<path opacity="0.74" d="M88.0687 565.533L-22.0395 545.196L-59.483 439.668L13.1864 354.478L123.295 374.815L160.738 480.343L88.0687 565.533ZM131.367 365.351L9.02234 342.754L-71.7193 437.408L-30.1165 554.659L92.228 577.256L172.97 482.602L131.367 365.351Z" fill="#929497"/>
<path opacity="0.77" d="M87.9829 565.313L-22.1253 544.975L-59.5688 439.447L13.1006 354.257L123.209 374.594L160.652 480.122L87.9829 565.313ZM131.281 365.131L8.94128 342.534L-71.8004 437.188L-30.1976 554.439L92.1469 577.036L172.889 482.382L131.286 365.131L131.281 365.131Z" fill="#929497"/>
<path opacity="0.8" d="M87.9017 565.087L-22.2065 544.75L-59.65 439.222L13.0194 354.032L123.128 374.369L160.571 479.897L87.9017 565.087ZM131.2 364.906L8.85534 342.308L-71.8863 436.962L-30.2835 554.213L92.061 576.81L172.803 482.156L131.2 364.906Z" fill="#929497"/>
<path opacity="0.83" d="M87.8167 564.862L-22.2914 544.525L-59.7349 438.997L12.9344 353.806L123.043 374.143L160.486 479.671L87.8167 564.862ZM131.115 364.68L8.77038 342.083L-71.9713 436.736L-30.3685 553.987L91.976 576.584L172.718 481.931L131.115 364.68Z" fill="#929497"/>
<path opacity="0.86" d="M87.7314 564.636L-22.3767 544.299L-59.8202 438.771L12.8491 353.58L122.957 373.917L160.401 479.446L87.7314 564.636ZM131.03 364.454L8.68982 341.858L-72.0518 436.512L-30.449 553.762L91.8955 576.359L172.637 481.706L131.034 364.455L131.03 364.454Z" fill="#929497"/>
<path opacity="0.89" d="M87.6465 564.41L-22.4617 544.073L-59.9052 438.545L12.7641 353.355L122.872 373.692L160.316 479.22L87.6465 564.41ZM130.945 364.228L8.60486 341.632L-72.1368 436.286L-30.534 553.537L91.8105 576.134L172.552 481.48L130.949 364.229L130.945 364.228Z" fill="#929497"/>
<path opacity="0.91" d="M87.5652 564.185L-22.5429 543.848L-59.9864 438.32L12.6829 353.13L122.791 373.467L160.235 478.995L87.5652 564.185ZM130.863 364.003L8.51892 341.406L-72.2227 436.06L-30.6199 553.311L91.7245 575.908L172.466 481.254L130.863 364.003Z" fill="#929497"/>
<path opacity="0.94" d="M87.4798 563.96L-22.6283 543.623L-60.0719 438.094L12.5975 352.904L122.706 373.241L160.149 478.769L87.4798 563.96ZM130.778 363.778L8.43347 341.181L-72.3082 435.834L-30.7054 553.085L91.6391 575.682L172.381 481.028L130.778 363.778Z" fill="#929497"/>
<path opacity="0.97" d="M87.394 563.739L-22.7141 543.402L-60.1576 437.873L12.5117 352.683L122.62 373.02L160.063 478.548L87.394 563.739ZM130.692 363.557L8.35241 340.96L-72.3892 435.614L-30.7864 552.865L91.558 575.462L172.3 480.808L130.697 363.558L130.692 363.557Z" fill="#929497"/>
<path d="M87.3128 563.514L-22.7953 543.177L-60.2389 437.648L12.4305 352.458L122.539 372.795L159.982 478.323L87.3128 563.514ZM130.611 363.332L8.26648 340.735L-72.4752 435.388L-30.8724 552.639L91.4721 575.236L172.214 480.582L130.611 363.332Z" fill="#929497"/>
</g>
<path d="M130.611 363.332L8.26648 340.735L-72.4752 435.388L-30.8724 552.639L91.4721 575.236L172.214 480.582L130.611 363.332ZM87.3128 563.514L-22.7953 543.177L-60.2389 437.648L12.4305 352.458L122.539 372.795L159.982 478.323L87.3128 563.514Z" fill="url(#paint5_linear_944_5592)"/>
<g style="mix-blend-mode:multiply" opacity="0.8">
<path opacity="0.03" d="M73.8279 383.904L-35.298 363.749L-72.4082 259.166L-0.387887 174.74L108.738 194.895L145.848 299.478L73.8279 383.904ZM116.742 185.512L-4.51181 163.116L-84.5312 256.927L-43.3018 373.132L77.9518 395.527L157.971 301.717L116.742 185.512Z" fill="#FBFCFC"/>
<path opacity="0.06" d="M73.7439 383.674L-35.382 363.518L-72.4922 258.936L-0.471871 174.509L108.654 194.665L145.764 299.248L73.7439 383.674ZM116.658 185.282L-4.5958 162.886L-84.6152 256.696L-43.3857 372.902L77.8678 395.297L157.887 301.487L116.658 185.282Z" fill="#F8F8F8"/>
<path opacity="0.1" d="M73.6586 383.448L-35.4672 363.293L-72.5775 258.71L-0.557164 174.283L108.569 194.439L145.679 299.022L73.6586 383.448ZM116.572 185.056L-4.67636 162.661L-84.6958 256.472L-43.4663 372.677L77.7872 395.072L157.807 301.262L116.577 185.057L116.572 185.056Z" fill="#F4F5F5"/>
<path opacity="0.13" d="M73.5793 383.219L-35.5465 363.063L-72.6567 258.48L-0.636429 174.054L108.489 194.21L145.6 298.792L73.5793 383.219ZM116.493 184.826L-4.76035 162.431L-84.7797 256.241L-43.5503 372.446L77.7032 394.842L157.723 301.031L116.493 184.826Z" fill="#F1F1F2"/>
<path opacity="0.16" d="M73.4944 382.988L-35.6315 362.833L-72.7417 258.25L-0.721383 173.823L108.404 193.979L145.515 298.562L73.4944 382.988ZM116.408 184.596L-4.84532 162.2L-84.8647 256.011L-43.6353 372.216L77.6183 394.611L157.638 300.801L116.408 184.596Z" fill="#EDEEEE"/>
<path opacity="0.19" d="M73.4094 382.762L-35.7164 362.607L-72.8267 258.024L-0.806344 173.598L108.32 193.753L145.43 298.336L73.4094 382.762ZM116.323 184.37L-4.93027 161.975L-84.9497 255.785L-43.7202 371.99L77.5333 394.386L157.553 300.575L116.323 184.37Z" fill="#EAEAEB"/>
<path opacity="0.23" d="M73.3244 382.532L-35.8014 362.376L-72.9116 257.793L-0.891312 173.367L108.235 193.523L145.345 298.106L73.3244 382.532ZM116.238 184.14L-5.01524 161.744L-85.0346 255.554L-43.8052 371.759L77.4484 394.155L157.468 300.345L116.238 184.14Z" fill="#E6E7E8"/>
<path opacity="0.26" d="M73.2392 382.306L-35.8867 362.15L-72.9969 257.568L-0.97659 173.141L108.149 193.297L145.259 297.88L73.2392 382.306ZM116.153 183.914L-5.0958 161.519L-85.1152 255.329L-43.8857 371.534L77.3678 393.93L157.387 300.12L116.158 183.915L116.153 183.914Z" fill="#E3E3E4"/>
<path opacity="0.29" d="M73.1599 382.077L-35.9659 361.921L-73.0762 257.338L-1.05586 172.912L108.07 193.067L145.18 297.65L73.1599 382.077ZM116.074 183.684L-5.17979 161.289L-85.1992 255.099L-43.9697 371.304L77.2838 393.7L157.303 299.889L116.074 183.684Z" fill="#DFE0E1"/>
<path opacity="0.32" d="M73.0744 381.851L-36.0514 361.695L-73.1616 257.112L-1.1413 172.686L107.985 192.842L145.095 297.424L73.0744 381.851ZM115.988 183.459L-5.26523 161.063L-85.2846 254.873L-44.0552 371.078L77.1984 393.474L157.218 299.664L115.988 183.459Z" fill="#DCDCDD"/>
<path opacity="0.35" d="M72.99 381.62L-36.1359 361.465L-73.2461 256.882L-1.22578 172.456L107.9 192.611L145.01 297.194L72.99 381.62ZM115.904 183.228L-5.34971 160.832L-85.3691 254.643L-44.1397 370.848L77.1139 393.243L157.133 299.433L115.904 183.228Z" fill="#D8D9DA"/>
<path opacity="0.39" d="M72.905 381.395L-36.2208 361.239L-73.3311 256.656L-1.31073 172.23L107.815 192.385L144.925 296.968L72.905 381.395ZM115.819 183.002L-5.43467 160.607L-85.4541 254.417L-44.2246 370.622L77.0289 393.018L157.048 299.207L115.819 183.002Z" fill="#D5D6D7"/>
<path opacity="0.42" d="M72.8207 381.164L-36.3051 361.009L-73.4154 256.426L-1.39505 171.999L107.731 192.155L144.841 296.738L72.8207 381.164ZM115.735 182.772L-5.51426 160.377L-85.5336 254.188L-44.3042 370.393L76.9493 392.788L156.969 298.978L115.739 182.773L115.735 182.772Z" fill="#D1D2D3"/>
<path opacity="0.45" d="M72.7405 380.934L-36.3854 360.779L-73.4956 256.196L-1.47529 171.77L107.651 191.925L144.761 296.508L72.7405 380.934ZM115.654 182.542L-5.59922 160.147L-85.6186 253.957L-44.3892 370.162L76.8644 392.558L156.884 298.747L115.654 182.542Z" fill="#CECFD0"/>
<path opacity="0.48" d="M72.655 380.709L-36.4708 360.553L-73.5811 255.97L-1.56075 171.544L107.565 191.7L144.675 296.282L72.655 380.709ZM115.569 182.316L-5.68467 159.921L-85.7041 253.731L-44.4746 369.936L76.779 392.332L156.798 298.521L115.569 182.316Z" fill="#CACBCD"/>
<path opacity="0.52" d="M72.5715 380.478L-36.5543 360.323L-73.6645 255.74L-1.64424 171.314L107.482 191.469L144.592 296.052L72.5715 380.478ZM115.485 182.086L-5.76816 159.69L-85.7876 253.501L-44.5581 369.706L76.6955 392.101L156.715 298.291L115.485 182.086Z" fill="#C7C8C9"/>
<path opacity="0.55" d="M72.4856 380.252L-36.6402 360.097L-73.7505 255.514L-1.73017 171.088L107.396 191.243L144.506 295.826L72.4856 380.252ZM115.399 181.86L-5.8541 159.465L-85.8735 253.275L-44.644 369.48L76.6095 391.876L156.629 298.065L115.399 181.86Z" fill="#C3C4C6"/>
<path opacity="0.58" d="M72.4016 380.022L-36.7242 359.867L-73.8345 255.284L-1.81417 170.857L107.312 191.013L144.422 295.596L72.4016 380.022ZM115.315 181.63L-5.93809 159.234L-85.9575 253.045L-44.728 369.25L76.5255 391.645L156.545 297.835L115.315 181.63Z" fill="#C0C1C3"/>
<path opacity="0.61" d="M72.3205 379.797L-36.8053 359.642L-73.9155 255.059L-1.89522 170.632L107.231 190.788L144.341 295.371L72.3205 379.797ZM115.234 181.405L-6.01914 159.009L-86.0385 252.82L-44.8091 369.025L76.4445 391.42L156.464 297.61L115.234 181.405Z" fill="#BCBDBF"/>
<path opacity="0.65" d="M72.2366 379.567L-36.8893 359.411L-73.9995 254.828L-1.9792 170.402L107.147 190.558L144.257 295.14L72.2366 379.567ZM115.15 181.174L-6.10313 158.779L-86.1225 252.589L-44.8931 368.794L76.3605 391.19L156.38 297.379L115.15 181.174Z" fill="#B9BABC"/>
<path opacity="0.68" d="M72.1511 379.341L-36.9747 359.185L-74.085 254.603L-2.06464 170.176L107.061 190.332L144.171 294.915L72.1511 379.341ZM115.065 180.949L-6.18857 158.553L-86.208 252.363L-44.9785 368.568L76.275 390.964L156.294 297.154L115.065 180.949Z" fill="#B5B7B9"/>
<path opacity="0.71" d="M72.0662 379.11L-37.0597 358.955L-74.1699 254.372L-2.14961 169.946L106.976 190.101L144.086 294.684L72.0662 379.11ZM114.98 180.718L-6.27354 158.322L-86.2929 252.133L-45.0635 368.338L76.1901 390.733L156.209 296.923L114.98 180.718Z" fill="#B2B3B5"/>
<path opacity="0.74" d="M71.9812 378.885L-37.1447 358.729L-74.2549 254.146L-2.23457 169.72L106.891 189.876L144.001 294.458L71.9812 378.885ZM114.895 180.492L-6.3585 158.097L-86.3779 251.907L-45.1484 368.112L76.1051 390.508L156.124 296.697L114.895 180.492Z" fill="#AEB0B2"/>
<path opacity="0.77" d="M71.9021 378.655L-37.2238 358.5L-74.334 253.917L-2.31368 169.49L106.812 189.646L143.922 294.229L71.9021 378.655ZM114.816 180.263L-6.4376 157.867L-86.457 251.678L-45.2275 367.883L76.026 390.278L156.045 296.468L114.816 180.263Z" fill="#ABACAE"/>
<path opacity="0.81" d="M71.8176 378.425L-37.3082 358.269L-74.4185 253.686L-2.39814 169.26L106.728 189.416L143.838 293.998L71.8176 378.425ZM114.731 180.032L-6.52207 157.637L-86.5415 251.447L-45.312 367.652L75.9415 390.048L155.961 296.237L114.731 180.032Z" fill="#A7A9AB"/>
<path opacity="0.84" d="M71.7317 378.199L-37.3942 358.043L-74.5044 253.46L-2.48409 169.034L106.642 189.19L143.752 293.772L71.7317 378.199ZM114.646 179.807L-6.60801 157.411L-86.6274 251.221L-45.398 367.426L75.8556 389.822L155.875 296.012L114.646 179.807Z" fill="#A4A5A8"/>
<path opacity="0.87" d="M71.6477 377.968L-37.4781 357.813L-74.5884 253.23L-2.56807 168.804L106.558 188.959L143.668 293.542L71.6477 377.968ZM114.562 179.576L-6.69199 157.181L-86.7114 250.991L-45.4819 367.196L75.7716 389.592L155.791 295.781L114.562 179.576Z" fill="#A0A2A4"/>
<path opacity="0.9" d="M71.5618 377.743L-37.5641 357.587L-74.6743 253.004L-2.654 168.578L106.472 188.733L143.582 293.316L71.5618 377.743ZM114.476 179.35L-6.77793 156.955L-86.7973 250.765L-45.5679 366.97L75.6857 389.366L155.705 295.555L114.476 179.35Z" fill="#9D9EA1"/>
<path opacity="0.94" d="M71.4784 377.512L-37.6474 357.357L-74.7577 252.774L-2.73734 168.348L106.389 188.503L143.499 293.086L71.4784 377.512ZM114.392 179.12L-6.85654 156.725L-86.8759 250.536L-45.6465 366.741L75.6071 389.136L155.626 295.326L114.397 179.121L114.392 179.12Z" fill="#999B9E"/>
<path opacity="0.97" d="M71.3972 377.287L-37.7286 357.132L-74.8389 252.549L-2.81855 168.123L106.307 188.278L143.418 292.861L71.3972 377.287ZM114.311 178.895L-6.94248 156.499L-86.9619 250.31L-45.7324 366.515L75.5211 388.91L155.541 295.1L114.311 178.895Z" fill="#96979A"/>
<path d="M71.3132 377.057L-37.8126 356.901L-74.9229 252.319L-2.90255 167.892L106.223 188.048L143.334 292.631L71.3132 377.057ZM114.227 178.665L-7.02647 156.269L-87.0459 250.079L-45.8164 366.284L75.4372 388.68L155.457 294.87L114.227 178.665Z" fill="#929497"/>
</g>
<path d="M114.227 178.665L-7.02647 156.269L-87.0459 250.079L-45.8164 366.284L75.4372 388.68L155.457 294.87L114.227 178.665ZM71.3132 377.057L-37.8126 356.901L-74.9229 252.319L-2.90255 167.892L106.223 188.048L143.334 292.631L71.3132 377.057Z" fill="url(#paint6_linear_944_5592)"/>
<path d="M1.34863 319.043L-140.444 292.854L-188.66 156.966L-95.0829 47.2627L46.7094 73.4518L94.9256 209.34L1.3495 319.038L1.34863 319.043ZM-139.77 292.065L0.996982 318.065L93.8999 209.155L46.0306 74.2446L-94.7368 48.2448L-187.64 157.154L-139.77 292.065Z" fill="url(#paint7_linear_944_5592)"/>
<g style="mix-blend-mode:multiply">
<path opacity="0.03" d="M72.1106 348.781L48.2211 281.451L-22.0328 268.475L-68.3972 322.829L-44.5086 390.163L25.7453 403.139L72.1106 348.781Z" stroke="#FCFCFC" stroke-width="0.5" stroke-miterlimit="10"/>
<path opacity="0.06" d="M72.0293 348.561L48.1352 281.23L-22.1187 268.254L-68.4831 322.608L-44.5936 389.938L25.6602 402.913L72.0293 348.561Z" stroke="#F9F9F9" stroke-width="0.5" stroke-miterlimit="10"/>
<path opacity="0.09" d="M71.944 348.335L48.0546 281.005L-22.1992 268.029L-68.5637 322.383L-44.6742 389.713L25.5796 402.689L71.944 348.335Z" stroke="#F6F6F6" stroke-width="0.5" stroke-miterlimit="10"/>
<path opacity="0.11" d="M71.8596 348.109L47.9701 280.78L-22.2837 267.804L-68.6481 322.157L-44.7587 389.487L25.4952 402.463L71.8596 348.109Z" stroke="#F3F3F3" stroke-width="0.5" stroke-miterlimit="10"/>
<path opacity="0.14" d="M71.7736 347.883L47.8842 280.554L-22.3697 267.578L-68.7341 321.932L-44.8446 389.261L25.4093 402.237L71.7736 347.883Z" stroke="#EFF0F0" stroke-width="0.5" stroke-miterlimit="10"/>
<path opacity="0.17" d="M71.6929 347.659L47.8035 280.329L-22.4551 267.352L-68.8195 321.706L-44.9301 389.035L25.3285 402.012L71.6929 347.659Z" stroke="#ECEDED" stroke-width="0.5" stroke-miterlimit="10"/>
<path opacity="0.2" d="M71.6081 347.433L47.7187 280.103L-22.5352 267.127L-68.8996 321.481L-45.0101 388.811L25.2437 401.787L71.6081 347.433Z" stroke="#E9EAEA" stroke-width="0.5" stroke-miterlimit="10"/>
<path opacity="0.23" d="M71.5222 347.207L47.6327 279.877L-22.6211 266.901L-68.9855 321.255L-45.097 388.589L25.1569 401.565L71.5222 347.207Z" stroke="#E6E7E7" stroke-width="0.5" stroke-miterlimit="10"/>
<path opacity="0.26" d="M71.4415 346.987L47.5473 279.656L-22.7066 266.681L-69.071 321.034L-45.1815 388.364L25.0723 401.34L71.4415 346.987Z" stroke="#E3E3E4" stroke-width="0.5" stroke-miterlimit="10"/>
<path opacity="0.29" d="M71.3557 346.761L47.4662 279.432L-22.7876 266.456L-69.152 320.809L-45.2626 388.139L24.9913 401.115L71.3557 346.761Z" stroke="#E0E0E1" stroke-width="0.5" stroke-miterlimit="10"/>
<path opacity="0.31" d="M71.2712 346.535L47.3817 279.206L-22.8721 266.23L-69.2365 320.584L-45.3471 387.913L24.9068 400.889L71.2712 346.535Z" stroke="#DDDDDE" stroke-width="0.5" stroke-miterlimit="10"/>
<path opacity="0.34" d="M71.1853 346.31L47.2958 278.98L-22.958 266.004L-69.3224 320.358L-45.433 387.687L24.8209 400.663L71.1853 346.31Z" stroke="#DADADB" stroke-width="0.5" stroke-miterlimit="10"/>
<path opacity="0.37" d="M71.1045 346.085L47.2151 278.755L-23.0435 265.778L-69.4079 320.132L-45.5185 387.462L24.7401 400.438L71.1045 346.085Z" stroke="#D7D7D8" stroke-width="0.5" stroke-miterlimit="10"/>
<path opacity="0.4" d="M71.0197 345.859L47.1303 278.529L-23.1236 265.553L-69.488 319.907L-45.5985 387.237L24.6553 400.213L71.0197 345.859Z" stroke="#D3D4D5" stroke-width="0.5" stroke-miterlimit="10"/>
<path opacity="0.43" d="M70.9343 345.633L47.0449 278.304L-23.209 265.328L-69.5734 319.681L-45.6848 387.016L24.569 399.992L70.9343 345.633Z" stroke="#D0D1D2" stroke-width="0.5" stroke-miterlimit="10"/>
<path opacity="0.46" d="M70.8526 345.413L46.9584 278.083L-23.2954 265.107L-69.6598 319.46L-45.7704 386.79L24.4835 399.766L70.8526 345.413Z" stroke="#CDCECF" stroke-width="0.5" stroke-miterlimit="10"/>
<path opacity="0.49" d="M70.7673 345.187L46.8779 277.858L-23.376 264.882L-69.7404 319.235L-45.851 386.565L24.4029 399.541L70.7673 345.187Z" stroke="#CACBCC" stroke-width="0.5" stroke-miterlimit="10"/>
<path opacity="0.51" d="M70.6819 344.962L46.7924 277.632L-23.4614 264.656L-69.8259 319.01L-45.9364 386.339L24.3174 399.315L70.6819 344.962Z" stroke="#C7C8CA" stroke-width="0.5" stroke-miterlimit="10"/>
<path opacity="0.54" d="M70.5964 344.736L46.7069 277.406L-23.5469 264.43L-69.9113 318.784L-46.0219 386.114L24.232 399.089L70.5964 344.736Z" stroke="#C4C5C7" stroke-width="0.5" stroke-miterlimit="10"/>
<path opacity="0.57" d="M70.5167 344.511L46.6272 277.181L-23.6314 264.205L-69.9958 318.558L-46.1063 385.888L24.1522 398.865L70.5167 344.511Z" stroke="#C1C2C4" stroke-width="0.5" stroke-miterlimit="10"/>
<path opacity="0.6" d="M70.4309 344.285L46.5414 276.956L-23.7124 263.98L-70.0768 318.333L-46.1874 385.663L24.0665 398.639L70.4309 344.285Z" stroke="#BEBFC1" stroke-width="0.5" stroke-miterlimit="10"/>
<path opacity="0.63" d="M70.3459 344.059L46.4565 276.73L-23.7974 263.754L-70.1618 318.108L-46.2732 385.442L23.9806 398.418L70.3459 344.059Z" stroke="#BABCBE" stroke-width="0.5" stroke-miterlimit="10"/>
<path opacity="0.66" d="M70.2642 343.839L46.3701 276.509L-23.8838 263.533L-70.2482 317.887L-46.3588 385.216L23.8951 398.192L70.2642 343.839Z" stroke="#B7B9BB" stroke-width="0.5" stroke-miterlimit="10"/>
<path opacity="0.69" d="M70.1794 343.614L46.29 276.284L-23.9639 263.308L-70.3283 317.662L-46.4389 384.991L23.815 397.967L70.1794 343.614Z" stroke="#B4B6B8" stroke-width="0.5" stroke-miterlimit="10"/>
<path opacity="0.71" d="M70.0935 343.388L46.204 276.058L-24.0498 263.082L-70.4142 317.436L-46.5248 384.766L23.7291 397.741L70.0935 343.388Z" stroke="#B1B3B5" stroke-width="0.5" stroke-miterlimit="10"/>
<path opacity="0.74" d="M70.008 343.162L46.1186 275.832L-24.1353 262.856L-70.4997 317.21L-46.6102 384.54L23.6436 397.516L70.008 343.162Z" stroke="#AEB0B2" stroke-width="0.5" stroke-miterlimit="10"/>
<path opacity="0.77" d="M69.9283 342.937L46.0388 275.608L-24.2198 262.631L-70.5842 316.985L-46.6947 384.314L23.5639 397.291L69.9283 342.937Z" stroke="#ABACAF" stroke-width="0.5" stroke-miterlimit="10"/>
<path opacity="0.8" d="M69.842 342.711L45.9526 275.382L-24.3013 262.406L-70.6657 316.759L-46.7763 384.089L23.4776 397.065L69.842 342.711Z" stroke="#A8A9AC" stroke-width="0.5" stroke-miterlimit="10"/>
<path opacity="0.83" d="M69.7575 342.486L45.8681 275.156L-24.3858 262.18L-70.7502 316.534L-46.8616 383.868L23.3922 396.844L69.7575 342.486Z" stroke="#A5A6A9" stroke-width="0.5" stroke-miterlimit="10"/>
<path opacity="0.86" d="M69.6758 342.266L45.7817 274.935L-24.4722 261.959L-70.8366 316.313L-46.9472 383.642L23.3067 396.618L69.6758 342.266Z" stroke="#A2A3A6" stroke-width="0.5" stroke-miterlimit="10"/>
<path opacity="0.89" d="M69.591 342.04L45.7016 274.71L-24.5523 261.734L-70.9167 316.088L-47.0272 383.418L23.2266 396.393L69.591 342.04Z" stroke="#9EA0A3" stroke-width="0.5" stroke-miterlimit="10"/>
<path opacity="0.91" d="M69.5051 341.814L45.6157 274.484L-24.6382 261.508L-71.0026 315.862L-47.1132 383.192L23.1407 396.168L69.5051 341.814Z" stroke="#9B9DA0" stroke-width="0.5" stroke-miterlimit="10"/>
<path opacity="0.94" d="M69.4197 341.588L45.5302 274.259L-24.7237 261.283L-71.0881 315.636L-47.1986 382.966L23.0552 395.942L69.4197 341.588Z" stroke="#989A9D" stroke-width="0.5" stroke-miterlimit="10"/>
<path opacity="0.97" d="M69.3389 341.363L45.4495 274.034L-24.8091 261.057L-71.1735 315.411L-47.2841 382.74L22.9745 395.717L69.3389 341.363Z" stroke="#95979A" stroke-width="0.5" stroke-miterlimit="10"/>
<path d="M45.3647 273.808L-24.8892 260.832L-71.2536 315.186L-47.3641 382.515L22.8897 395.491L69.2541 341.138L45.3647 273.808Z" stroke="#929497" stroke-width="0.5" stroke-miterlimit="10"/>
</g>
<path d="M45.3647 273.808L-24.8892 260.832L-71.2536 315.186L-47.3641 382.515L22.8897 395.491L69.2541 341.138L45.3647 273.808Z" fill="url(#paint8_linear_944_5592)"/>
<defs>
<linearGradient id="paint0_linear_944_5592" x1="-77.8429" y1="67.33" x2="38.773" y2="88.8691" gradientUnits="userSpaceOnUse">
<stop stop-color="#FFAF5F"/>
<stop offset="1" stop-color="#F69321"/>
</linearGradient>
<linearGradient id="paint1_linear_944_5592" x1="85.725" y1="526.553" x2="286.248" y2="563.59" gradientUnits="userSpaceOnUse">
<stop stop-color="#4E62B5"/>
<stop offset="1" stop-color="#2A3A8C"/>
</linearGradient>
<linearGradient id="paint2_linear_944_5592" x1="-182.152" y1="530.407" x2="60.3506" y2="575.197" gradientUnits="userSpaceOnUse">
<stop stop-color="#FFAF5F"/>
<stop offset="1" stop-color="#F69321"/>
</linearGradient>
<linearGradient id="paint3_linear_944_5592" x1="-153.206" y1="535.753" x2="31.406" y2="569.851" gradientUnits="userSpaceOnUse">
<stop stop-color="white"/>
<stop offset="1" stop-color="#D0D2D3"/>
</linearGradient>
<linearGradient id="paint4_linear_944_5592" x1="174.32" y1="389.274" x2="358.007" y2="423.201" gradientUnits="userSpaceOnUse">
<stop stop-color="#4E62B5"/>
<stop offset="1" stop-color="#2A3A8C"/>
</linearGradient>
<linearGradient id="paint5_linear_944_5592" x1="-72.4752" y1="435.388" x2="172.214" y2="480.582" gradientUnits="userSpaceOnUse">
<stop stop-color="#4E62B5"/>
<stop offset="1" stop-color="#2A3A8C"/>
</linearGradient>
<linearGradient id="paint6_linear_944_5592" x1="-87.0459" y1="250.079" x2="155.457" y2="294.87" gradientUnits="userSpaceOnUse">
<stop stop-color="#FFAF5F"/>
<stop offset="1" stop-color="#F69321"/>
</linearGradient>
<linearGradient id="paint7_linear_944_5592" x1="-188.66" y1="156.966" x2="94.92" y2="209.343" gradientUnits="userSpaceOnUse">
<stop stop-color="#FFAF5F"/>
<stop offset="1" stop-color="#F69321"/>
</linearGradient>
<linearGradient id="paint8_linear_944_5592" x1="-71.2536" y1="315.186" x2="69.2541" y2="341.138" gradientUnits="userSpaceOnUse">
<stop stop-color="#4E62B5"/>
<stop offset="1" stop-color="#2A3A8C"/>
</linearGradient>
</defs>
</svg>
