<svg width="41" height="51" viewBox="0 0 41 51" fill="none" xmlns="http://www.w3.org/2000/svg">
<path d="M22.832 6.21929C22.7684 6.21929 22.7036 6.21238 22.6396 6.19973C22.5778 6.18785 22.5161 6.1683 22.4563 6.14376C22.3973 6.11923 22.3401 6.08856 22.2872 6.05329C22.2332 6.01802 22.1833 5.97661 22.1381 5.93176C22.0929 5.88652 22.0519 5.8363 22.0154 5.78263C21.9802 5.72934 21.9499 5.67261 21.9253 5.6128C21.9008 5.55376 21.882 5.49204 21.8694 5.42917C21.8563 5.3663 21.8506 5.30151 21.8506 5.23787C21.8506 5.17423 21.8563 5.10944 21.8694 5.04657C21.882 4.9837 21.9008 4.92159 21.9253 4.86294C21.9499 4.80313 21.9802 4.74601 22.0154 4.69311C22.0519 4.63905 22.0929 4.58921 22.1381 4.54398C22.1833 4.49874 22.2336 4.45772 22.2872 4.42245C22.3401 4.38603 22.3973 4.35651 22.4563 4.33198C22.5161 4.30744 22.5778 4.28789 22.6396 4.27524C22.7661 4.2507 22.8968 4.2507 23.0233 4.27524C23.0862 4.28789 23.1479 4.30744 23.2069 4.33198C23.2667 4.35651 23.3235 4.38603 23.3768 4.42245C23.4304 4.45772 23.4807 4.49874 23.5259 4.54398C23.5711 4.58921 23.6122 4.63905 23.6474 4.69311C23.6827 4.74601 23.7134 4.80313 23.7379 4.86294C23.7624 4.92198 23.7808 4.9837 23.7939 5.04657C23.8065 5.10944 23.8134 5.17423 23.8134 5.23787C23.8134 5.30151 23.8065 5.3663 23.7939 5.42917C23.7808 5.49204 23.7624 5.55376 23.7379 5.6128C23.7134 5.67261 23.6827 5.72934 23.6474 5.78263C23.6122 5.8363 23.5711 5.88652 23.5259 5.93176C23.4807 5.97661 23.4304 6.01802 23.3768 6.05329C23.3235 6.08856 23.2667 6.11923 23.2069 6.14376C23.1479 6.1683 23.0862 6.18785 23.0233 6.19973C22.9604 6.21238 22.896 6.21929 22.832 6.21929Z" fill="#4f8072"/>
<path d="M14.9143 47.8761C13.4311 47.8761 12.2246 46.6696 12.2246 45.1868C12.2246 43.7035 13.4311 42.4971 14.9143 42.4971C16.3975 42.4971 17.6044 43.7035 17.6044 45.1868C17.6044 46.6696 16.3975 47.8761 14.9143 47.8761ZM14.9143 44.4599C14.5137 44.4599 14.1874 44.7858 14.1874 45.1868C14.1874 45.5874 14.5137 45.9132 14.9143 45.9132C15.3153 45.9132 15.6415 45.5874 15.6415 45.1868C15.6415 44.7858 15.3153 44.4599 14.9143 44.4599Z" fill="#4f8072"/>
<path d="M38.1124 8.26H29.1378V3.04814C29.1378 1.36747 27.77 0 26.0889 0H3.73983C2.05838 0 0.690918 1.36747 0.690918 3.04814V47.2004C0.690918 48.8811 2.05877 50.2485 3.73983 50.2485H26.0889C27.77 50.2485 29.1378 48.8811 29.1378 47.2004V30.2667H38.1124C39.5339 30.2667 40.6909 29.1101 40.6909 27.6886V10.8381C40.6905 9.41623 39.5339 8.26 38.1124 8.26ZM27.1746 47.2004C27.1746 47.7988 26.6877 48.2857 26.0889 48.2857H3.73983C3.14101 48.2857 2.65375 47.7988 2.65375 47.2004V42.087H27.175V47.2004H27.1746ZM27.1746 40.1242H2.65375V6.21934H18.7908C19.3328 6.21934 19.7722 5.78001 19.7722 5.23793C19.7722 4.69585 19.3328 4.25651 18.7908 4.25651H2.65375V3.04814C2.65375 2.44971 3.14101 1.96283 3.73983 1.96283H26.0889C26.6877 1.96283 27.175 2.44971 27.175 3.04814V8.26H18.5055C17.084 8.26 15.9274 9.41623 15.9274 10.8381V27.6886C15.9274 29.1101 17.084 30.2667 18.5055 30.2667H19.8807V32.0379C19.8807 32.3802 20.0589 32.6976 20.3511 32.8759C20.5079 32.9714 20.6846 33.0193 20.8621 33.0193C21.0158 33.0193 21.1703 32.9833 21.3114 32.9104L26.4454 30.2667H27.175V40.1242H27.1746ZM38.7277 27.6886C38.7277 28.0279 38.4517 28.3039 38.1124 28.3039H26.2074C26.0509 28.3039 25.8972 28.3411 25.7581 28.4128L21.8435 30.4285V29.2853C21.8435 28.7432 21.4038 28.3039 20.8621 28.3039H18.5055C18.1663 28.3039 17.8902 28.0279 17.8902 27.6886V10.8381C17.8902 10.4989 18.1663 10.2228 18.5055 10.2228H38.1124C38.4517 10.2228 38.7277 10.4989 38.7277 10.8381V27.6886Z" fill="#4f8072"/>
<path d="M8.58724 25.378C8.28592 25.378 7.98842 25.2396 7.79597 24.9781C6.6616 23.4358 6.06201 21.6083 6.06201 19.6934C6.06201 17.7781 6.6616 15.951 7.79597 14.4087C8.11724 13.9721 8.73139 13.8785 9.16804 14.1998C9.60469 14.521 9.69824 15.1352 9.37698 15.5719C8.49255 16.7745 8.02484 18.1994 8.02484 19.6934C8.02484 21.187 8.49255 22.612 9.37698 23.815C9.69824 24.2516 9.60469 24.8658 9.16804 25.187C8.99323 25.3159 8.78928 25.378 8.58724 25.378Z" fill="#4f8072"/>
<path d="M11.9798 23.4363C11.6747 23.4363 11.3741 23.2944 11.182 23.028C10.4801 22.0519 10.1094 20.8988 10.1094 19.6935C10.1094 18.4882 10.4801 17.3354 11.182 16.3594C11.4987 15.9192 12.1117 15.8188 12.5518 16.1355C12.9919 16.4517 13.0923 17.0651 12.7757 17.5052C12.3153 18.1455 12.0722 18.9018 12.0722 19.6935C12.0722 20.4851 12.3153 21.2415 12.7757 21.8817C13.0923 22.3218 12.9919 22.9348 12.5518 23.2515C12.3785 23.3761 12.1784 23.4363 11.9798 23.4363Z" fill="#4f8072"/>
<path d="M32.2657 27.1279C32.1879 27.1279 32.1085 27.1264 32.0269 27.1233C31.6569 27.1092 28.3159 26.8508 24.9204 22.2002C22.9944 19.5599 21.3594 16.7219 22.4286 13.8558C23.0373 12.2238 24.082 11.5119 24.3845 11.3337C24.8112 11.0415 25.323 10.9196 25.8332 10.9894C26.3788 11.0642 26.8553 11.3475 27.175 11.7872L28.8576 14.0924C29.5112 14.9871 29.3008 16.2576 28.3884 16.9247L27.826 17.3349C28.0499 17.9084 28.3539 18.5731 28.8894 19.3073C29.4242 20.0399 29.9659 20.5325 30.4444 20.9209L31.0056 20.5114C31.9165 19.8467 33.1904 20.0318 33.8456 20.9247L35.5293 23.2333C35.5297 23.2337 35.5301 23.2341 35.5301 23.2345C36.1427 24.0767 35.9794 25.2402 35.1414 26.0012C34.6426 26.454 33.9 27.1279 32.2657 27.1279ZM25.3736 13.0293C25.29 13.0799 24.6605 13.4889 24.2676 14.542C23.6657 16.1552 24.3143 18.0387 26.506 21.0432C29.364 24.9581 32.0813 25.1605 32.1085 25.1624C33.1026 25.1988 33.4047 24.9267 33.8218 24.5479C33.8977 24.4793 33.9288 24.4103 33.9349 24.3781L32.2611 22.0836C32.2554 22.0756 32.2086 22.0633 32.1626 22.097L31.2203 22.784C30.7572 23.1574 30.1131 23.1593 29.6339 22.7821C29.0474 22.3255 28.156 21.632 27.3038 20.4643C26.4497 19.2935 26.061 18.2335 25.8037 17.5315C25.6435 17.101 25.6968 16.4964 26.1763 16.1096C26.1886 16.0997 26.2016 16.0897 26.2147 16.0801L27.2306 15.3398C27.2785 15.3046 27.2781 15.2578 27.2724 15.2501L25.589 12.9434C25.5848 12.9377 25.5733 12.935 25.5668 12.9342C25.5518 12.9323 25.5223 12.9323 25.4894 12.9564C25.4426 12.9902 25.423 13.0055 25.3736 13.0293ZM33.943 24.3892V24.3896V24.3892ZM30.8377 21.2318C30.8392 21.2329 30.8408 21.2341 30.8427 21.2356C30.8408 21.2341 30.8392 21.2329 30.8377 21.2318Z" fill="#4f8072"/>
</svg>
