<svg width="60" height="51" viewBox="0 0 60 51" fill="none" xmlns="http://www.w3.org/2000/svg">
<path d="M20.7698 1.00503L20.7707 1.00003C21.5463 0.997535 22.3148 1.14814 23.0321 1.44325C23.7523 1.73953 24.4066 2.1756 24.9572 2.72625L25.6643 2.01915L24.9572 2.72625C25.5079 3.2769 25.944 3.93122 26.2402 4.6514C26.5365 5.37157 26.6872 6.14332 26.6834 6.92206V6.92685L26.6834 32.3118L26.6834 32.3152C26.6912 34.6384 26.2221 36.9385 25.305 39.0731L25.305 39.0731L25.3015 39.0815C24.4301 41.1618 23.167 43.0554 21.581 44.659C19.9795 46.2493 18.087 47.5167 16.0066 48.392L16.0066 48.392L15.9996 48.395C13.8645 49.3125 11.5638 49.7822 9.23987 49.775H9.23676L6.92784 49.7749L6.91973 49.775C6.75322 49.7763 6.5882 49.7436 6.43483 49.6787C6.28147 49.6139 6.143 49.5184 6.02795 49.398L6.01264 49.382L5.99664 49.3666C5.87643 49.2515 5.78104 49.113 5.71636 48.9596C5.65167 48.8063 5.61906 48.6413 5.62053 48.4748H5.62057V48.466L5.62061 43.8482L5.62053 43.8391C5.61901 43.6727 5.65157 43.5078 5.71622 43.3545C5.78087 43.2012 5.87622 43.0628 5.9964 42.9478L6.01253 42.9324L6.02795 42.9162C6.14299 42.7959 6.28145 42.7003 6.43483 42.6355C6.58821 42.5706 6.75324 42.5379 6.91973 42.5392L6.91973 42.5393H6.92784H9.22873C10.5778 42.5604 11.917 42.3055 13.1639 41.79C14.4087 41.2754 15.5353 40.5121 16.4746 39.5469C17.4402 38.6087 18.2042 37.4833 18.7197 36.2394C19.2362 34.9933 19.4924 33.6546 19.4725 32.3058V31.1613C19.4749 30.5746 19.3613 29.9932 19.1381 29.4506C18.9145 28.9072 18.5855 28.4135 18.17 27.998C17.7546 27.5826 17.2609 27.2536 16.7175 27.03C16.1749 26.8068 15.5935 26.6931 15.0068 26.6956H6.92784H6.91867L6.90951 26.6958C6.13352 26.71 5.36285 26.565 4.64507 26.2698L4.2647 27.1947L4.64507 26.2698C3.92729 25.9746 3.27764 25.5354 2.73621 24.9793L2.7268 24.9697L2.71712 24.9603C2.16145 24.4195 1.72247 23.7707 1.4273 23.0537C1.13213 22.3368 0.987011 21.5669 1.00091 20.7917L1.00107 20.7828V20.7738V6.9285V6.91987L1.00092 6.91125C0.98754 6.13545 1.13331 5.36514 1.42924 4.64788C1.72516 3.93061 2.16497 3.28161 2.72149 2.74094L2.73149 2.73122L2.74122 2.72123C3.28208 2.16564 3.93102 1.72672 4.64801 1.43153C5.36501 1.13634 6.13486 0.991137 6.91013 1.00487L6.91898 1.00503H6.92784H20.7698Z" stroke="#E6F0FB" stroke-width="2"/>
<path d="M57.2624 2.72109L57.272 2.73099L57.2819 2.74062C57.8379 3.28115 58.2772 3.92992 58.5726 4.64685C58.868 5.3638 59.0133 6.13369 58.9995 6.90898L58.9993 6.91788V6.92679L58.9993 32.3332L58.9993 32.3365C59.0071 34.6598 58.538 36.9599 57.6209 39.0945L57.6209 39.0945L57.6167 39.1044C55.8631 43.3112 52.5191 46.6552 48.3124 48.4088L48.3124 48.4087L48.3024 48.413C46.1672 49.3305 43.8665 49.8002 41.5426 49.793H41.5395H39.2382C38.891 49.7869 38.5596 49.6463 38.314 49.4007C38.0684 49.1551 37.9278 48.8238 37.9217 48.4766V43.8738C37.9278 43.5266 38.0684 43.1953 38.314 42.9497C38.5596 42.7041 38.891 42.5634 39.2382 42.5573H41.5395C44.2542 42.5573 46.8577 41.4789 48.7772 39.5594C50.6968 37.6398 51.7752 35.0363 51.7752 32.3216V31.1694C51.7777 30.5827 51.664 30.0013 51.4408 29.4588C51.2173 28.9154 50.8883 28.4217 50.4728 28.0062C50.0573 27.5908 49.5636 27.2617 49.0203 27.0382C48.4777 26.815 47.8963 26.7013 47.3096 26.7038L39.2306 26.7038L39.2256 26.7038C38.4468 26.7077 37.675 26.5572 36.9547 26.261C36.2345 25.9648 35.5801 25.5288 35.0295 24.9781C34.4788 24.4275 34.0428 23.7731 33.7466 23.0529C33.4504 22.3326 33.2999 21.5608 33.3038 20.7821V20.777V6.93174H33.3038L33.3038 6.9267C33.2999 6.14797 33.4504 5.37616 33.7466 4.65591C34.0428 3.93565 34.4788 3.28129 35.0295 2.73064C35.5801 2.17998 36.2345 1.74394 36.9547 1.44773C37.675 1.15152 38.4468 1.00103 39.2256 1.00495V1.00497H39.2306H53.0759H53.0848L53.0937 1.00481C53.8689 0.990989 54.6388 1.13614 55.3557 1.43133C56.0727 1.72651 56.7216 2.16546 57.2624 2.72109Z" stroke="#E6F0FB" stroke-width="2"/>
</svg>
