<svg width="83" height="46" viewBox="0 0 83 46" fill="none" xmlns="http://www.w3.org/2000/svg">
<path d="M10.7804 45.0078C9.49532 44.4489 8.4532 43.3987 7.91597 42.0376L1.06355 24.6913C0.268436 22.6784 0.305627 20.4769 1.16874 18.4923C2.03185 16.5076 3.61695 14.9788 5.63146 14.1877L22.992 7.37151C25.0323 6.56991 27.3345 7.07226 28.8571 8.65062C30.3776 10.227 30.7961 12.5422 29.9236 14.5486L24.983 25.9091C44.6088 34.4442 67.52 25.4206 76.0553 5.79418L77.775 1.83984C78.3688 0.474574 79.9565 -0.150734 81.3217 0.44299C82.6869 1.03671 83.3122 2.62441 82.7184 3.98968L80.9987 7.94402C76.2897 18.772 67.6461 27.1185 56.6598 31.4454C45.6738 35.7719 33.6605 35.562 22.8329 30.8531C20.1068 29.6675 18.8535 26.4852 20.0389 23.7595L24.9797 12.3986C24.9799 12.3981 24.9801 12.3976 24.9803 12.3971C24.9773 12.3935 24.9733 12.3895 24.9696 12.3861C24.9673 12.3874 24.9647 12.388 24.962 12.3891L7.60127 19.2059C6.92907 19.4698 6.40017 19.9798 6.11212 20.6421C5.82407 21.3045 5.81171 22.0391 6.07702 22.7107L12.9294 40.057L12.9325 40.0646C12.9374 40.0651 12.9429 40.0657 12.9476 40.0655C12.9478 40.065 12.948 40.0645 12.9484 40.0635L14.1267 37.3542C14.7204 35.989 16.3086 35.3639 17.6738 35.9576C19.0385 36.5511 19.6643 38.139 19.0705 39.5043L17.8923 42.2136C17.0197 44.2199 15.0409 45.4926 12.851 45.4553C12.1221 45.4432 11.421 45.2864 10.7804 45.0078Z" fill="#4f8072"/>
</svg>
