<svg width="245" height="209" viewBox="0 0 245 209" fill="none" xmlns="http://www.w3.org/2000/svg">
<path d="M216.041 31.5152L230.027 14.8085C231.387 13.1829 231.173 10.761 229.548 9.39893L229.548 9.39891C227.923 8.03686 225.502 8.25047 224.141 9.87601L210.48 26.1955L188.462 19.3184L183.632 2.86637C183.035 0.831376 180.902 -0.33433 178.868 0.262698L178.868 0.26275C176.834 0.859778 175.67 2.99346 176.267 5.02845L181.097 21.4805L164.648 41.1305C163.824 42.1145 163.546 43.4458 163.908 44.6778L169.819 64.8145L155.012 82.5023L132.994 75.6249L127.083 55.4882C126.721 54.2562 125.768 53.2862 124.543 52.9037L100.082 45.2634L94.171 25.1266C93.8093 23.8946 92.8561 22.9247 91.6311 22.5422L67.1704 14.9018L66.6675 13.1889C66.0701 11.1539 63.9372 9.98816 61.9035 10.5852L61.9033 10.5852C59.8696 11.1823 58.7052 13.3159 59.3026 15.3509L59.8054 17.0639L44.9987 34.7514L22.9807 27.8743L22.4779 26.1613C21.8805 24.1263 19.7475 22.9606 17.7138 23.5577L17.7136 23.5577C15.6799 24.1547 14.5155 26.2884 15.1129 28.3234L15.6158 30.0363L1.63041 46.743C0.269631 48.3686 0.483963 50.7905 2.10914 52.1526L2.10918 52.1526C3.73434 53.5147 6.15492 53.301 7.5157 51.6755L21.1772 35.356L43.1952 42.2331L48.5278 60.3979L34.5424 77.1046C33.1816 78.7301 33.396 81.1521 35.0211 82.5141L35.0211 82.5141C36.6463 83.8762 39.0669 83.6626 40.4277 82.037L54.0891 65.7172L76.1072 72.5946L81.4398 90.7594L64.9905 110.409C64.1666 111.393 63.889 112.725 64.2507 113.957L70.1621 134.093L53.7128 153.743C52.8889 154.727 52.6113 156.059 52.973 157.291L58.8844 177.427L44.899 194.134C43.5382 195.76 43.7526 198.182 45.3778 199.544L45.3778 199.544C47.003 200.906 49.4235 200.692 50.7843 199.067L64.4459 182.747L86.4638 189.624L91.2936 206.076C91.891 208.111 94.0239 209.277 96.0576 208.68L96.0578 208.68C98.0915 208.083 99.2559 205.949 98.6585 203.914L93.8288 187.462L110.278 167.812C111.102 166.828 111.38 165.497 111.018 164.265L105.106 144.128L119.913 126.44L141.931 133.318L147.843 153.454C148.204 154.686 149.157 155.656 150.383 156.039L174.843 163.679L180.755 183.816C181.116 185.048 182.069 186.018 183.295 186.4L207.755 194.041L208.258 195.754C208.855 197.789 210.988 198.954 213.022 198.357L213.022 198.357C215.056 197.76 216.22 195.627 215.623 193.592L215.12 191.879L231.569 172.229C232.393 171.245 232.671 169.913 232.309 168.681L225.819 146.573C225.457 145.341 224.504 144.371 223.279 143.988L198.818 136.348L193.486 118.183L208.293 100.495L228.608 106.841C230.631 107.473 232.783 106.344 233.414 104.32L233.414 104.32C234.045 102.295 232.916 100.142 230.893 99.5099L210.096 93.014L204.764 74.8492L219.57 57.1617L239.885 63.5069C241.909 64.139 244.061 63.0102 244.692 60.9859L244.692 60.9858C245.323 58.9614 244.194 56.8079 242.171 56.1759L221.374 49.68L216.041 31.5152ZM171.852 44.4876L186.658 26.8001L208.676 33.6772L214.009 51.842L199.202 69.5295L177.184 62.6524L171.852 44.4876ZM202.731 95.1761L187.924 112.864L165.906 105.986L160.574 87.8216L175.381 70.1342L197.399 77.0113L202.731 95.1761ZM125.629 77.787L110.823 95.4745L88.8047 88.5974L83.4722 70.4326L98.2789 52.7451L120.297 59.6222L125.629 77.787ZM50.5602 40.071L65.3669 22.3835L87.3849 29.2606L92.7174 47.4254L77.9107 65.1129L55.8927 58.2358L50.5602 40.071ZM72.1945 113.767L87.0012 96.0791L109.019 102.956L114.352 121.121L99.545 138.808L77.527 131.931L72.1945 113.767ZM103.074 164.455L88.2673 182.142L66.2493 175.265L60.9168 157.101L75.7235 139.413L97.7415 146.29L103.074 164.455ZM116.384 100.794L131.191 83.1066L153.209 89.9837L158.541 108.149L143.735 125.836L121.717 118.959L116.384 100.794ZM149.296 131.156L164.103 113.468L186.121 120.345L191.453 138.51L176.647 156.198L154.629 149.32L149.296 131.156ZM224.365 168.872L209.559 186.559L187.541 179.682L182.208 161.517L197.015 143.83L219.033 150.707L224.365 168.872Z" fill="url(#paint0_linear_992_39)" fill-opacity="0.1"/>
<defs>
<linearGradient id="paint0_linear_992_39" x1="8.50336" y1="33.992" x2="238.576" y2="159.545" gradientUnits="userSpaceOnUse">
<stop stop-color="#9979F9" stop-opacity="0.54"/>
<stop offset="1" stop-color="#2B2CFF" stop-opacity="0.46"/>
</linearGradient>
</defs>
</svg>
