<svg width="16" height="14" viewBox="0 0 16 14" fill="none" xmlns="http://www.w3.org/2000/svg">
<path d="M15.848 5.98114L10.1813 0.481137C10.0373 0.341137 9.822 0.301804 9.63867 0.379137C9.454 0.457804 9.33333 0.639137 9.33333 0.839804V3.67447C4.17133 3.7638 0 7.99047 0 13.1731C0 13.4011 0.160667 13.5878 0.381333 13.6451C0.420667 13.6551 0.46 13.6598 0.499333 13.6598C0.682 13.6598 0.86 13.5551 0.951333 13.3905C2.448 10.6865 5.29733 9.00647 8.388 9.00647H9.33333V11.8398C9.33333 12.0405 9.454 12.2218 9.63867 12.3005C9.82133 12.3778 10.038 12.3385 10.1813 12.1985L15.848 6.69847C15.9453 6.60447 16 6.47514 16 6.3398C16 6.20447 15.9453 6.07514 15.848 5.98114Z" fill="url(#paint0_linear_226_538)"/>
<defs>
<linearGradient id="paint0_linear_226_538" x1="1.3005e-07" y1="10.7401" x2="16.4" y2="6.34009" gradientUnits="userSpaceOnUse">
<stop stop-color="#E74C61"/>
<stop offset="1" stop-color="#632AAC"/>
</linearGradient>
</defs>
</svg>
