<svg width="1902" height="990" viewBox="0 0 1902 990" fill="none" xmlns="http://www.w3.org/2000/svg">
<path d="M1939.99 121.717V121.163H1793.27V0.190918H1792.72V121.163H1643.64V0.190918H1643.08V121.163H1494V0.190918H1493.44V121.163H1344.36V0.190918H1343.81V121.163H1194.72V0.190918H1194.17V121.163H1045.09V0.190918H1044.53V121.163H895.45V0.190918H894.896V121.163H745.813V0.190918H745.259V121.163H596.176V0.190918H595.622V121.163H446.539V0.190918H445.985V121.163H296.902V0.190918H296.348V121.163H147.273V0.190918H146.719V121.163H0V121.717H146.719V270.721H0V271.275H146.719V420.279H0V420.832H146.719V569.836H0V570.39H146.719V719.394H0V719.948H146.719V868.952H0V869.506H146.719V989.068H147.273V869.506H296.356V989.068H296.91V869.506H445.993V989.068H446.547V869.506H595.63V989.068H596.184V869.506H745.267V989.068H745.822V869.506H894.904V989.068H895.459V869.506H1044.54V989.068H1045.1V869.506H1194.18V989.068H1194.73V869.506H1343.82V989.068H1344.37V869.506H1493.45V989.068H1494.01V869.506H1643.09V989.068H1643.64V869.506H1792.73V989.068H1793.28V869.506H1940V868.952H1793.28V719.948H1940V719.394H1793.28V570.39H1940V569.836H1793.28V420.832H1940V420.279H1793.28V271.275H1940V270.721H1793.28V121.717H1940H1939.99ZM296.356 868.946H147.273V719.943H296.356V868.946ZM296.356 719.389H147.273V570.385H296.356V719.389ZM296.356 569.831H147.273V420.827H296.356V569.831ZM296.356 420.273H147.273V271.275H296.356V420.279V420.273ZM296.356 270.715H147.273V121.717H296.356V270.721V270.715ZM445.993 868.944H296.91V719.94H445.993V868.944ZM445.993 719.386H296.91V570.382H445.993V719.386ZM445.993 569.828H296.91V420.824H445.993V569.828ZM445.993 420.27H296.91V271.275H445.993V420.279V420.27ZM445.993 270.712H296.91V121.717H445.993V270.721V270.712ZM595.63 868.941H446.547V719.937H595.63V868.941ZM595.63 719.383H446.547V570.379H595.63V719.383ZM595.63 569.825H446.547V420.821H595.63V569.825ZM595.63 420.267H446.547V271.275H595.63V420.279V420.267ZM595.63 270.71H446.547V121.717H595.63V270.721V270.71ZM745.267 868.938H596.184V719.934H745.267V868.938ZM745.267 719.38H596.184V570.376H745.267V719.38ZM745.267 569.822H596.184V420.819H745.267V569.822ZM745.267 420.265H596.184V271.275H745.267V420.279V420.265ZM745.267 270.707H596.184V121.717H745.267V270.721V270.707ZM894.904 868.935H745.822V719.931H894.904V868.935ZM894.904 719.378H745.822V570.374H894.904V719.378ZM894.904 569.82H745.822V420.816H894.904V569.82ZM894.904 420.262H745.822V271.275H894.904V420.279V420.262ZM894.904 270.704H745.822V121.717H894.904V270.721V270.704ZM1044.54 868.933H895.459V719.929H1044.54V868.933ZM1044.54 719.375H895.459V570.371H1044.54V719.375ZM1044.54 569.817H895.459V420.813H1044.54V569.817ZM1044.54 420.259H895.459V271.275H1044.54V420.279V420.259ZM1044.54 270.701H895.459V121.717H1044.54V270.721V270.701ZM1194.18 868.93H1045.1V719.926H1194.18V868.93ZM1194.18 719.372H1045.1V570.368H1194.18V719.372ZM1194.18 569.814H1045.1V420.81H1194.18V569.814ZM1194.18 420.256H1045.1V271.275H1194.18V420.279V420.256ZM1194.18 270.699H1045.1V121.717H1194.18V270.721V270.699ZM1343.82 868.927H1194.73V719.923H1343.82V868.927ZM1343.82 719.369H1194.73V570.365H1343.82V719.369ZM1343.82 569.811H1194.73V420.808H1343.82V569.811ZM1343.82 420.254H1194.73V271.275H1343.82V420.279V420.254ZM1343.82 270.696H1194.73V121.717H1343.82V270.721V270.696ZM1493.45 868.924H1344.37V719.92H1493.45V868.924ZM1493.45 719.366H1344.37V570.363H1493.45V719.366ZM1493.45 569.809H1344.37V420.805H1493.45V569.809ZM1493.45 420.251H1344.37V271.275H1493.45V420.279V420.251ZM1493.45 270.693H1344.37V121.717H1493.45V270.721V270.693ZM1643.09 868.922H1494.01V719.918H1643.09V868.922ZM1643.09 719.364H1494.01V570.36H1643.09V719.364ZM1643.09 569.806H1494.01V420.802H1643.09V569.806ZM1643.09 420.248H1494.01V271.275H1643.09V420.279V420.248ZM1643.09 270.69H1494.01V121.717H1643.09V270.721V270.69ZM1792.73 868.919H1643.64V719.915H1792.73V868.919ZM1792.73 719.361H1643.64V570.357H1792.73V719.361ZM1792.73 569.803H1643.64V420.799H1792.73V569.803ZM1792.73 420.245H1643.64V271.275H1792.73V420.279V420.245ZM1792.73 270.687H1643.64V121.717H1792.73V270.721V270.687Z" fill="url(#paint0_radial_243_180)" fill-opacity="0.1"/>
<defs>
<radialGradient id="paint0_radial_243_180" cx="0" cy="0" r="1" gradientUnits="userSpaceOnUse" gradientTransform="translate(920.5 418.691) rotate(46.7124) scale(579.733 293.703)">
<stop stop-color="#E34C64"/>
<stop offset="1" stop-color="#672BAA"/>
</radialGradient>
</defs>
</svg>
