<svg width="20" height="20" viewBox="0 0 20 20" fill="none" xmlns="http://www.w3.org/2000/svg">
<path d="M20 9.74099C20 12.1442 18.037 14.0995 15.625 14.0995H12.5C12.1545 14.0995 11.875 13.8207 11.875 13.4768C11.875 13.133 12.1545 12.8542 12.5 12.8542H15.625C17.348 12.8542 18.75 11.4575 18.75 9.74099C18.75 8.02452 17.348 6.62778 15.625 6.62778H15C14.6545 6.62778 14.375 6.34899 14.375 6.00514C14.375 3.6019 12.412 1.64665 10 1.64665C7.58797 1.64665 5.625 3.6019 5.625 6.00514C5.625 6.34899 5.34547 6.62778 5 6.62778H4.375C2.65203 6.62778 1.25 8.02452 1.25 9.74099C1.25 11.4575 2.65203 12.8542 4.375 12.8542H7.5C7.84547 12.8542 8.125 13.133 8.125 13.4768C8.125 13.8207 7.84547 14.0995 7.5 14.0995H4.375C1.96297 14.0995 0 12.1442 0 9.74099C0 7.33775 1.96297 5.3825 4.375 5.3825H4.40984C4.72172 2.5845 7.10938 0.401367 10 0.401367C12.8906 0.401367 15.2783 2.5845 15.5902 5.3825H15.625C18.0372 5.3825 20 7.33775 20 9.74099ZM12.0581 15.5272L10.625 16.9549V9.11835C10.625 8.77449 10.3455 8.49571 10 8.49571C9.65453 8.49571 9.375 8.77449 9.375 9.11835V16.9549L7.94187 15.5272C7.69766 15.2839 7.30219 15.2839 7.05813 15.5272C6.81406 15.7705 6.81391 16.1645 7.05813 16.4076L9.55813 18.8982C9.68016 19.0197 9.84016 19.0806 10 19.0806C10.1598 19.0806 10.3198 19.0197 10.4419 18.8982L12.9419 16.4076C13.1861 16.1643 13.1861 15.7703 12.9419 15.5272C12.6977 15.2841 12.3022 15.2839 12.0581 15.5272Z" fill="url(#paint0_linear_243_177)"/>
<defs>
<linearGradient id="paint0_linear_243_177" x1="5.33333" y1="1.7347" x2="12.6667" y2="19.7347" gradientUnits="userSpaceOnUse">
<stop stop-color="#E84C61"/>
<stop offset="1" stop-color="#632AAC"/>
</linearGradient>
</defs>
</svg>
