<svg width="40" height="31" viewBox="0 0 40 31" fill="none" xmlns="http://www.w3.org/2000/svg">
<path d="M33.8838 2.61186C31.2945 1.40949 28.526 0.535655 25.6315 0.0380859C25.276 0.675951 24.8607 1.53389 24.5744 2.21638C21.4975 1.75713 18.4489 1.75713 15.4286 2.21638C15.1423 1.53389 14.7176 0.675951 14.3589 0.0380859C11.4613 0.535655 8.68959 1.4127 6.10032 2.61823C0.877737 10.4511 -0.538019 18.0893 0.169861 25.6191C3.63375 28.1865 6.99068 29.7461 10.291 30.7666C11.1058 29.6536 11.8326 28.4704 12.4586 27.2234C11.2663 26.7737 10.1242 26.2188 9.04512 25.5745C9.3314 25.364 9.61143 25.1439 9.88197 24.9175C16.4637 27.9728 23.6148 27.9728 30.1179 24.9175C30.3916 25.1439 30.6716 25.364 30.9547 25.5745C29.8725 26.2219 28.7273 26.7768 27.5349 27.2266C28.161 28.4704 28.8846 29.6568 29.7026 30.7698C33.0061 29.7492 36.3661 28.1897 39.83 25.6191C40.6606 16.8902 38.4111 9.32204 33.8838 2.61186ZM13.3553 20.9884C11.3795 20.9884 9.75925 19.1577 9.75925 16.9284C9.75925 14.6991 11.3449 12.8653 13.3553 12.8653C15.3657 12.8653 16.9859 14.6959 16.9513 16.9284C16.9545 19.1577 15.3657 20.9884 13.3553 20.9884ZM26.6446 20.9884C24.6688 20.9884 23.0485 19.1577 23.0485 16.9284C23.0485 14.6991 24.6342 12.8653 26.6446 12.8653C28.6549 12.8653 30.2752 14.6959 30.2406 16.9284C30.2406 19.1577 28.6549 20.9884 26.6446 20.9884Z" fill="#4212B4"/>
</svg>
