<svg width="716" height="650" viewBox="0 0 716 650" fill="none" xmlns="http://www.w3.org/2000/svg">
<style>
    
      @keyframes top_to_left {
        0% {
          -webkit-transform: translateY(0px);
          transform: translateY(0px);
        }
        50% {
          -webkit-transform: translateY(20px);
          transform: translateY(20px);
        }
        100% {
          -webkit-transform: translateY(0px);
          transform: translateY(0px);
        }
      } 

      

   #path_01{
      animation: top_to_left 4s ease-in infinite;
      -webkit-animation: top_to_left 4s ease-in infinite;
    }
</style>
<path d="M381.745 491H330.059V335.941C330.059 329.087 332.782 322.514 337.628 317.667C342.475 312.82 349.048 310.098 355.902 310.098C381.459 310.098 406.441 302.519 427.691 288.321C448.94 274.122 465.502 253.942 475.282 230.331C485.062 206.719 487.621 180.738 482.635 155.673C477.65 130.608 465.343 107.584 447.272 89.5124C429.201 71.4412 406.177 59.1346 381.111 54.1487C356.046 49.1629 330.065 51.7218 306.453 61.5019C282.842 71.2819 262.662 87.8438 248.463 109.093C234.265 130.343 226.686 155.325 226.686 180.882H175C175.004 146.207 184.973 112.264 203.721 83.0945C222.468 53.9249 249.204 30.7578 280.744 16.3518C312.285 1.94576 347.301 -3.09213 381.623 1.83798C415.946 6.76809 448.128 21.4585 474.338 44.1599C500.549 66.8613 519.683 96.6171 529.461 129.884C539.24 163.151 539.253 198.528 529.496 231.802C519.74 265.076 500.627 294.845 474.432 317.564C448.237 340.283 416.065 354.996 381.745 359.949V491Z" fill="#678BBB" fill-opacity="0.05"/>
<g filter="url(#filter0_f_304_209)">
<ellipse cx="339" cy="577.502" rx="209" ry="22.5" fill="#4613B2" fill-opacity="0.15"/>
</g>
<path d="M5.52051 340.525C52.5112 105.105 440.103 130.705 561.413 168.398C871.852 277.232 613.283 401.961 635.898 491.812C684.001 682.925 370.162 668.028 205.482 613.768C59.4708 565.659 -22.7265 482.042 5.52051 340.525Z" fill="url(#paint0_linear_304_209)"/>
<path id="path_01" d="M289.781 142.929H295.551C299.43 142.93 303.242 143.95 306.602 145.887C309.962 147.825 312.754 150.611 314.696 153.966C316.638 157.322 317.662 161.128 317.666 165.004C317.67 168.88 316.654 172.689 314.719 176.049L317.567 184.586C317.664 184.875 317.69 185.182 317.644 185.483C317.598 185.784 317.481 186.07 317.303 186.317C317.125 186.564 316.891 186.765 316.619 186.904C316.348 187.042 316.048 187.115 315.743 187.115C315.637 187.115 315.531 187.106 315.427 187.089L304.436 185.259C301.636 186.49 298.61 187.122 295.551 187.115H289.781C283.916 187.115 278.291 184.787 274.143 180.644C269.996 176.501 267.666 170.881 267.666 165.022C267.666 159.162 269.996 153.543 274.143 149.4C278.291 145.256 283.916 142.929 289.781 142.929ZM276.862 177.928C278.555 179.628 280.568 180.975 282.786 181.893C285.004 182.81 287.381 183.279 289.781 183.272H295.551C298.248 183.279 300.914 182.684 303.352 181.531C303.706 181.364 304.103 181.308 304.489 181.373L312.909 182.774L310.789 176.421C310.698 176.15 310.67 175.863 310.704 175.58C310.739 175.296 310.837 175.024 310.99 174.784C312.739 172.023 313.714 168.844 313.813 165.579C313.913 162.314 313.134 159.081 311.556 156.22C309.979 153.358 307.662 150.971 304.846 149.309C302.031 147.647 298.821 146.771 295.551 146.771H289.781C286.168 146.771 282.636 147.842 279.632 149.847C276.627 151.853 274.286 154.703 272.903 158.038C271.52 161.373 271.158 165.042 271.863 168.583C272.568 172.123 274.308 175.375 276.862 177.928Z" fill="url(#paint1_linear_304_209)"/>
<path id="path_01" d="M292.765 152.605C291.801 152.602 290.846 152.79 289.956 153.159C289.065 153.528 288.257 154.07 287.577 154.754C287.567 154.763 287.558 154.773 287.548 154.783L286.792 155.579C285.958 156.421 285.492 157.56 285.497 158.746C285.502 159.931 285.976 161.066 286.817 161.902C287.657 162.739 288.795 163.207 289.98 163.206C291.165 163.204 292.302 162.733 293.14 161.895L293.909 161.126C294.059 160.976 294.179 160.798 294.26 160.601C294.341 160.405 294.383 160.195 294.383 159.982C294.383 159.77 294.341 159.559 294.26 159.363C294.179 159.167 294.06 158.988 293.909 158.838C293.759 158.688 293.581 158.569 293.384 158.487C293.188 158.406 292.978 158.364 292.765 158.364C292.553 158.364 292.343 158.406 292.146 158.487C291.95 158.569 291.772 158.688 291.621 158.838L290.853 159.607C290.723 159.737 290.565 159.836 290.392 159.898C290.219 159.96 290.035 159.983 289.852 159.965C289.669 159.947 289.492 159.888 289.335 159.794C289.177 159.699 289.043 159.571 288.941 159.418C288.782 159.179 288.711 158.892 288.739 158.606C288.767 158.321 288.893 158.054 289.096 157.85C289.106 157.841 289.115 157.831 289.125 157.821L289.878 157.028C290.65 156.263 291.693 155.836 292.78 155.839C293.866 155.843 294.907 156.277 295.673 157.047C296.44 157.817 296.87 158.86 296.868 159.946C296.867 161.033 296.434 162.074 295.666 162.843L293.909 164.599C293.031 165.473 292.335 166.512 291.86 167.656C291.386 168.801 291.144 170.028 291.147 171.267C291.147 171.696 291.318 172.107 291.621 172.411C291.925 172.714 292.336 172.884 292.765 172.884C293.194 172.884 293.606 172.714 293.909 172.411C294.213 172.107 294.383 171.696 294.383 171.267C294.381 170.453 294.54 169.647 294.851 168.895C295.163 168.143 295.62 167.461 296.197 166.887L297.954 165.131C298.98 164.104 299.679 162.797 299.962 161.374C300.245 159.95 300.1 158.475 299.544 157.134C298.989 155.793 298.049 154.647 296.842 153.841C295.635 153.035 294.217 152.605 292.765 152.605Z" fill="url(#paint2_linear_304_209)"/>
<circle id="path_01" cx="292.766" cy="176.119" r="1.61781" fill="#E3355C"/>
<path d="M415.166 458.137H405.781V559.788H415.166V458.137Z" fill="url(#paint3_linear_304_209)"/>
<path d="M375.418 555.615H445.56C448.934 555.615 451.633 558.346 451.633 561.69H369.346C369.346 558.315 372.075 555.615 375.418 555.615Z" fill="url(#paint4_linear_304_209)"/>
<path d="M453.749 435.339H370.45C364.877 435.339 360.359 439.859 360.359 445.434V454.608C360.359 460.183 364.877 464.703 370.45 464.703H453.749C459.321 464.703 463.839 460.183 463.839 454.608V445.434C463.839 439.859 459.321 435.339 453.749 435.339Z" fill="url(#paint5_linear_304_209)"/>
<path d="M341.099 390.328C341.099 390.328 327.144 392.507 311.442 403C308.957 404.657 307.608 407.541 307.976 410.486C309.847 425.398 317.576 473.601 343.062 520.698C344.412 523.184 344.78 526.068 344.197 528.829L339.78 549.448L331.561 557.149H352.723L366.8 519.011L360.789 517.108C356.127 515.636 352.907 511.34 352.846 506.431L352.14 465.531C352.754 447.306 340.977 434.726 340.977 434.726L374.744 433.069L341.099 390.297V390.328Z" fill="url(#paint6_linear_304_209)"/>
<path d="M323.342 560.862C321.409 563.378 344.074 566.722 355.514 561.199C355.514 561.199 371.37 533.585 371.37 519.348C371.37 519.348 370.113 516.464 360.789 517.109C360.789 517.109 355.453 549.816 349.84 553.467C344.228 557.119 334.107 553.836 334.107 553.836C334.107 553.836 326.163 557.119 323.342 560.862Z" fill="url(#paint7_linear_304_209)"/>
<path d="M370.481 435.339C370.297 435.033 334.107 430.982 334.107 430.982C334.107 430.982 335.303 441.998 331.592 457.155C327.881 472.312 274.761 537.973 274.761 537.973L280.343 555.646C263.106 561.66 246.177 562.611 229.492 558.714L264.026 537.973C264.026 537.973 296.352 427.822 316.134 408.155L352.416 395.605L370.512 435.37L370.481 435.339Z" fill="url(#paint8_linear_304_209)"/>
<path d="M451.633 371.244C451.633 371.244 472.489 402.264 474.206 416.408C475.924 430.553 468.502 436.321 446.603 437.273C424.736 438.224 366.31 438.193 366.31 438.193L316.472 395.575C316.472 395.575 352.785 382.596 362.231 378.945C371.677 375.294 451.602 371.244 451.602 371.244H451.633Z" fill="url(#paint9_linear_304_209)"/>
<path d="M278.226 549.663C278.226 549.663 284.238 555.462 280.159 561.936C280.159 561.936 232.651 570.374 219.739 566.539C219.739 566.539 222.408 560.433 236.945 553.468L235.872 554.296C234.522 555.339 235.319 557.518 237.006 557.395C246.575 556.843 266.388 555.094 278.196 549.663H278.226Z" fill="url(#paint10_linear_304_209)"/>
<path d="M395.231 367.132C395.231 367.132 370.941 343.998 359.01 328.687C352.539 320.403 350.515 309.51 353.52 299.447C358.979 281.068 368.671 262.014 369.56 259.038C370.91 254.497 398.145 254.681 398.145 254.681C398.145 254.681 451.725 289.475 472.764 348.385L449.118 355.749C449.118 355.749 435.132 332.277 421.3 317.335C421.3 317.335 445.223 348.938 446.051 361.886L395.231 367.132Z" fill="url(#paint11_linear_304_209)"/>
<path d="M366.248 233.633C366.524 234.584 373.639 258.148 374.192 258.639C374.744 259.13 389.772 259.928 396.856 255.11L384.865 229.981L366.248 233.663V233.633Z" fill="url(#paint12_linear_304_209)"/>
<path d="M377.933 184.142C377.933 184.142 365.113 189.572 356.372 208.105C347.662 226.637 354.164 235.197 362.353 236.394C370.542 237.591 382.779 237.376 395.721 225.41C408.664 213.443 394.617 177.729 377.933 184.142Z" fill="url(#paint13_linear_304_209)"/>
<path d="M387.012 215.499C387.012 215.499 396.703 188.376 372.658 188.038L367.015 191.996C367.015 191.996 358.182 176.962 372.658 169.782C387.134 162.602 408.756 168.984 414.89 188.499C421.055 208.013 417.436 220.623 407.192 229.951C396.949 239.278 392.716 228.693 392.716 228.693C392.716 228.693 398.298 219.948 396.028 215.284C393.759 210.621 388.514 216.266 388.514 216.266L387.012 215.499Z" fill="url(#paint14_linear_304_209)"/>
<path  d="M389.71 218.537C389.71 218.537 394.617 204.576 401.119 210.13C407.652 215.683 395.813 223.047 391.182 225.41L389.71 218.537Z" fill="url(#paint15_linear_304_209)"/>
<path d="M345.791 368.851L363.641 351.638L388.33 362.07C388.33 362.07 412.896 365.874 426.943 362.07L440.99 358.265L472.764 348.385L477.763 362.499C479.02 366.089 477.763 370.047 474.665 372.256C471.905 374.22 468.685 376.368 466.63 377.258C462.459 379.099 363.487 376 363.487 376L345.791 368.881V368.851Z" fill="url(#paint16_linear_304_209)"/>
<path d="M413.019 191.567C409.921 188.406 411.946 183.068 416.301 182.393C430.409 180.183 451.878 182.423 460.925 212.615C471.108 246.611 477.702 263.609 484.51 266.616C488.957 268.58 489.264 274.778 484.817 276.772C481.535 278.245 476.812 278.767 470.095 277.294C418.141 265.849 431.176 210.13 413.05 191.597L413.019 191.567Z" fill="url(#paint17_linear_304_209)"/>
<path d="M413.296 376.982C413.296 376.982 413.142 376.982 413.05 376.982L309.571 376.859C307.025 376.859 304.939 374.773 304.939 372.226C304.939 369.68 307.025 367.562 309.571 367.593L413.05 367.716C415.596 367.716 417.681 369.802 417.681 372.349C417.681 374.834 415.719 376.859 413.296 376.982Z" fill="url(#paint18_linear_304_209)"/>
<path d="M216.549 282.971H302.731C309.08 282.971 314.876 286.653 317.575 292.39L357.415 376.89H250.317C246.207 376.89 242.526 374.374 241.024 370.569L210.139 292.359C208.36 287.849 211.673 282.94 216.549 282.94V282.971Z" fill="url(#paint19_linear_304_209)"/>
<path d="M277.275 326.295C279.146 332.094 277.766 337.739 274.208 338.874C270.651 340.01 266.234 336.236 264.363 330.437C262.493 324.638 263.873 318.992 267.43 317.857C270.988 316.722 275.404 320.496 277.275 326.295Z" fill="url(#paint20_linear_304_209)"/>
<path d="M146.101 580.928C145.61 580.928 145.089 580.836 144.598 580.621C142.666 579.762 141.776 577.492 142.605 575.528L222.07 386.431C222.898 384.468 225.137 383.547 227.038 384.406C228.971 385.265 229.86 387.536 229.032 389.5L149.567 578.596C148.953 580.069 147.542 580.928 146.07 580.928H146.101Z" fill="url(#paint21_linear_304_209)"/>
<path d="M533.583 580.928C532.111 580.928 530.73 580.038 530.086 578.596L450.621 389.5C449.793 387.536 450.683 385.265 452.615 384.406C454.547 383.547 456.755 384.468 457.583 386.431L537.048 575.528C537.877 577.492 536.987 579.762 535.055 580.621C534.564 580.836 534.074 580.928 533.552 580.928H533.583Z" fill="url(#paint22_linear_304_209)"/>
<path d="M557.934 380.755C558.18 379.589 557.842 378.362 557.045 377.441C556.247 376.521 555.021 375.999 553.763 375.999H121.903C120.216 375.999 118.652 376.797 117.762 378.116C116.873 379.435 116.75 381.092 117.456 382.534L122.148 392.046C123.221 394.224 125.552 395.605 128.098 395.605H550.757C553.119 395.605 555.174 394.01 555.634 391.831L557.934 380.755Z" fill="url(#paint23_linear_304_209)"/>
<path d="M235.657 580.928C234.185 580.928 232.805 580.038 232.161 578.596L152.695 389.469C151.867 387.505 152.757 385.235 154.689 384.376C156.621 383.516 158.829 384.437 159.657 386.401L239.123 575.497C239.951 577.461 239.061 579.731 237.129 580.591C236.638 580.805 236.148 580.897 235.626 580.897L235.657 580.928Z" fill="url(#paint24_linear_304_209)"/>
<path d="M444.058 580.928C443.567 580.928 443.046 580.836 442.555 580.621C440.623 579.762 439.734 577.492 440.562 575.528L520.027 386.431C520.855 384.468 523.094 383.547 524.995 384.406C526.928 385.265 527.817 387.536 526.989 389.5L447.524 578.596C446.91 580.069 445.499 580.928 444.027 580.928H444.058Z" fill="url(#paint25_linear_304_209)"/>
<defs>
<filter id="filter0_f_304_209" x="115" y="540.002" width="448" height="75" filterUnits="userSpaceOnUse" color-interpolation-filters="sRGB">
<feFlood flood-opacity="0" result="BackgroundImageFix"/>
<feBlend mode="normal" in="SourceGraphic" in2="BackgroundImageFix" result="shape"/>
<feGaussianBlur stdDeviation="7.5" result="effect1_foregroundBlur_304_209"/>
</filter>
<linearGradient id="paint0_linear_304_209" x1="597.905" y1="527.318" x2="395.221" y2="161.018" gradientUnits="userSpaceOnUse">
<stop stop-color="#FB5188" stop-opacity="0.08"/>
<stop offset="1" stop-color="#853398" stop-opacity="0"/>
</linearGradient>
<linearGradient id="paint1_linear_304_209" x1="292.666" y1="142.929" x2="292.666" y2="187.115" gradientUnits="userSpaceOnUse">
<stop stop-color="#4614B3"/>
<stop offset="1" stop-color="#EB3657"/>
</linearGradient>
<linearGradient id="paint2_linear_304_209" x1="292.8" y1="152.604" x2="292.8" y2="172.884" gradientUnits="userSpaceOnUse">
<stop stop-color="#4614B3"/>
<stop offset="1" stop-color="#EB3657"/>
</linearGradient>
<linearGradient id="paint3_linear_304_209" x1="403.144" y1="555.124" x2="423.464" y2="427.303" gradientUnits="userSpaceOnUse">
<stop stop-color="#4714B3"/>
<stop offset="1" stop-color="#EC3657"/>
</linearGradient>
<linearGradient id="paint4_linear_304_209" x1="411.302" y1="556.413" x2="431.622" y2="428.561" gradientUnits="userSpaceOnUse">
<stop stop-color="#4A15B2"/>
<stop offset="1" stop-color="#E8365A"/>
</linearGradient>
<linearGradient id="paint5_linear_304_209" x1="322.39" y1="451.662" x2="663.438" y2="445.408" gradientUnits="userSpaceOnUse">
<stop stop-color="#EB3658"/>
<stop offset="0.66" stop-color="#EC3657"/>
<stop offset="1" stop-color="#EB3657"/>
</linearGradient>
<linearGradient id="paint6_linear_304_209" x1="307.945" y1="473.754" x2="374.744" y2="473.754" gradientUnits="userSpaceOnUse">
<stop stop-color="#F9B776"/>
<stop offset="1" stop-color="#F47960"/>
</linearGradient>
<linearGradient id="paint7_linear_304_209" x1="348.828" y1="517.293" x2="338.975" y2="668.036" gradientUnits="userSpaceOnUse">
<stop stop-color="#CB236D"/>
<stop offset="1" stop-color="#4C246D"/>
</linearGradient>
<linearGradient id="paint8_linear_304_209" x1="229.492" y1="478.295" x2="370.481" y2="478.295" gradientUnits="userSpaceOnUse">
<stop stop-color="#F9B776"/>
<stop offset="1" stop-color="#F47960"/>
</linearGradient>
<linearGradient id="paint9_linear_304_209" x1="365.574" y1="519.41" x2="390.927" y2="425.987" gradientUnits="userSpaceOnUse">
<stop stop-color="#A737D5"/>
<stop offset="1" stop-color="#EF497A"/>
</linearGradient>
<linearGradient id="paint10_linear_304_209" x1="253.967" y1="511.095" x2="244.144" y2="661.869" gradientUnits="userSpaceOnUse">
<stop stop-color="#CB236D"/>
<stop offset="1" stop-color="#4C246D"/>
</linearGradient>
<linearGradient id="paint11_linear_304_209" x1="386.03" y1="273.888" x2="461.008" y2="436.973" gradientUnits="userSpaceOnUse">
<stop stop-color="#A737D5"/>
<stop offset="1" stop-color="#EF497A"/>
</linearGradient>
<linearGradient id="paint12_linear_304_209" x1="387.84" y1="284.719" x2="380.78" y2="239.463" gradientUnits="userSpaceOnUse">
<stop stop-color="#F9B776"/>
<stop offset="1" stop-color="#F47960"/>
</linearGradient>
<linearGradient id="paint13_linear_304_209" x1="357.354" y1="199.421" x2="419.66" y2="241.708" gradientUnits="userSpaceOnUse">
<stop stop-color="#F9B776"/>
<stop offset="1" stop-color="#F47960"/>
</linearGradient>
<linearGradient id="paint14_linear_304_209" x1="466.078" y1="119.892" x2="361.541" y2="228.588" gradientUnits="userSpaceOnUse">
<stop stop-color="#CB236D"/>
<stop offset="1" stop-color="#4C246D"/>
</linearGradient>
<linearGradient id="paint15_linear_304_209" x1="361.095" y1="193.899" x2="423.402" y2="236.216" gradientUnits="userSpaceOnUse">
<stop stop-color="#F9B776"/>
<stop offset="1" stop-color="#F47960"/>
</linearGradient>
<linearGradient id="paint16_linear_304_209" x1="428.323" y1="363.113" x2="560.786" y2="363.113" gradientUnits="userSpaceOnUse">
<stop stop-color="#F9B776"/>
<stop offset="1" stop-color="#F47960"/>
</linearGradient>
<linearGradient id="paint17_linear_304_209" x1="512.512" y1="164.535" x2="407.974" y2="273.231" gradientUnits="userSpaceOnUse">
<stop stop-color="#CB236D"/>
<stop offset="1" stop-color="#4C246D"/>
</linearGradient>
<linearGradient id="paint18_linear_304_209" x1="430.827" y1="349.443" x2="348.69" y2="376.371" gradientUnits="userSpaceOnUse">
<stop stop-color="#2B3582"/>
<stop offset="1" stop-color="#150E42"/>
</linearGradient>
<linearGradient id="paint19_linear_304_209" x1="318.005" y1="295.581" x2="258.817" y2="358.118" gradientUnits="userSpaceOnUse">
<stop stop-color="#2B3582"/>
<stop offset="1" stop-color="#150E42"/>
</linearGradient>
<linearGradient id="paint20_linear_304_209" x1="282.244" y1="311.168" x2="255.392" y2="351.567" gradientUnits="userSpaceOnUse">
<stop stop-color="#4915B3"/>
<stop offset="1" stop-color="#E3355D"/>
</linearGradient>
<linearGradient id="paint21_linear_304_209" x1="142.298" y1="482.498" x2="229.369" y2="482.498" gradientUnits="userSpaceOnUse">
<stop stop-color="#4714B3"/>
<stop offset="1" stop-color="#EA3658"/>
</linearGradient>
<linearGradient id="paint22_linear_304_209" x1="450.314" y1="482.498" x2="537.386" y2="482.498" gradientUnits="userSpaceOnUse">
<stop stop-color="#EA3658"/>
<stop offset="1" stop-color="#4714B3"/>
</linearGradient>
<linearGradient id="paint23_linear_304_209" x1="116.995" y1="385.787" x2="557.995" y2="385.787" gradientUnits="userSpaceOnUse">
<stop stop-color="#4714B3"/>
<stop offset="1" stop-color="#EB3657"/>
</linearGradient>
<linearGradient id="paint24_linear_304_209" x1="152.389" y1="482.483" x2="239.46" y2="482.483" gradientUnits="userSpaceOnUse">
<stop stop-color="#4714B3"/>
<stop offset="1" stop-color="#EA3658"/>
</linearGradient>
<linearGradient id="paint25_linear_304_209" x1="440.255" y1="482.498" x2="527.326" y2="482.498" gradientUnits="userSpaceOnUse">
<stop stop-color="#4714B3"/>
<stop offset="1" stop-color="#EA3658"/>
</linearGradient>
</defs>
</svg>
