<svg width="30" height="43" viewBox="0 0 30 43" fill="none" xmlns="http://www.w3.org/2000/svg">
<path d="M15 21.429C15 19.5346 15.7902 17.7178 17.1967 16.3782C18.6032 15.0387 20.5109 14.2861 22.5 14.2861C24.4891 14.2861 26.3968 15.0387 27.8033 16.3782C29.2098 17.7178 30 19.5346 30 21.429C30 23.3234 29.2098 25.1402 27.8033 26.4798C26.3968 27.8193 24.4891 28.5718 22.5 28.5718C20.5109 28.5718 18.6032 27.8193 17.1967 26.4798C15.7902 25.1402 15 23.3234 15 21.429Z" fill="#1ABCFE"/>
<path d="M0 35.7141C0 33.8197 0.790176 32.0029 2.1967 30.6634C3.60322 29.3238 5.51088 28.5713 7.5 28.5713H15V35.7141C15 37.6086 14.2098 39.4254 12.8033 40.7649C11.3968 42.1045 9.48912 42.857 7.5 42.857C5.51088 42.857 3.60322 42.1045 2.1967 40.7649C0.790176 39.4254 0 37.6086 0 35.7141H0Z" fill="#0ACF83"/>
<path d="M15 0V14.2857H22.5C24.4891 14.2857 26.3968 13.5332 27.8033 12.1936C29.2098 10.8541 30 9.03726 30 7.14286C30 5.24845 29.2098 3.43164 27.8033 2.09209C26.3968 0.752549 24.4891 0 22.5 0L15 0Z" fill="#FF7262"/>
<path d="M0 7.14286C0 9.03726 0.790176 10.8541 2.1967 12.1936C3.60322 13.5332 5.51088 14.2857 7.5 14.2857H15V0H7.5C5.51088 0 3.60322 0.752549 2.1967 2.09209C0.790176 3.43164 0 5.24845 0 7.14286H0Z" fill="#F24E1E"/>
<path d="M0 21.429C0 23.3234 0.790176 25.1402 2.1967 26.4798C3.60322 27.8193 5.51088 28.5718 7.5 28.5718H15V14.2861H7.5C5.51088 14.2861 3.60322 15.0387 2.1967 16.3782C0.790176 17.7178 0 19.5346 0 21.429H0Z" fill="#A259FF"/>
</svg>
