<svg width="50" height="52" viewBox="0 0 50 52" fill="none" xmlns="http://www.w3.org/2000/svg">
<path d="M45.1804 7.5337C46.2345 7.5337 47.0874 6.68078 47.0874 5.62671C47.0874 4.57264 46.2345 3.71973 45.1804 3.71973C44.1264 3.71973 43.2734 4.57264 43.2734 5.62671C43.2734 6.68078 44.1344 7.5337 45.1804 7.5337ZM45.1804 5.07956C45.4862 5.07956 45.7356 5.329 45.7356 5.63476C45.7356 5.94052 45.4862 6.18996 45.1804 6.18996C44.8666 6.18996 44.6252 5.94856 44.6252 5.63476C44.6252 5.32095 44.8747 5.07956 45.1804 5.07956Z" fill="url(#paint0_linear_243_111)"/>
<path d="M47.2964 0.637939H8.09462C6.60605 0.637939 5.39105 1.85294 5.39105 3.34151V7.46929H2.70357C1.215 7.46929 0 8.68429 0 10.1729V44.0721C0 45.5607 1.215 46.7757 2.70357 46.7757H20.6711V50.6862C20.6711 51.0564 20.9768 51.3621 21.347 51.3621H34.0441C34.4142 51.3621 34.72 51.0564 34.72 50.6862V46.7757H41.9054C43.3939 46.7757 44.6089 45.5607 44.6089 44.0721V39.9443H47.2964C48.785 39.9443 50 38.7294 50 37.2408V3.34151C50 1.85294 48.785 0.637939 47.2964 0.637939ZM6.74284 3.34151C6.74284 2.5932 7.35436 1.98973 8.09462 1.98973H47.2964C48.0447 1.98973 48.6482 2.60125 48.6482 3.34151V9.27167H22.9965L19.9791 6.14164C19.7457 5.90025 19.4239 5.76346 19.094 5.76346H12.4477C11.7718 5.76346 11.2166 6.31866 11.2166 6.99455V9.27167H6.74284V3.34151ZM2.70357 45.432C1.95526 45.432 1.35179 44.8204 1.35179 44.0802V10.1729C1.35179 9.42455 1.96331 8.82107 2.70357 8.82107H5.39105V37.2488C5.39105 38.7374 6.60605 39.9524 8.09462 39.9524H22.7712C23.0367 40.4674 23.1574 41.0467 23.1091 41.6421H22.0631C21.2906 41.6421 20.6711 42.2697 20.6711 43.0341V45.432H2.70357ZM27.0277 31.2784C27.1645 31.037 27.4139 30.8842 27.6955 30.8842C28.1139 30.8842 28.4519 31.2221 28.4519 31.6405C28.4519 31.9141 28.307 32.1635 28.0737 32.3003C27.8162 32.4532 27.5105 32.4371 27.1967 32.2601C27.1564 32.2359 27.1162 32.2038 27.1001 32.1635C26.8426 31.7532 26.9472 31.4313 27.0277 31.2784ZM27.0196 29.6611C26.5288 29.8301 26.1104 30.16 25.8529 30.6267C25.4667 31.3187 25.515 32.1635 25.9656 32.8877C26.1104 33.113 26.3035 33.2981 26.5369 33.4349C26.907 33.6441 27.3093 33.7567 27.7036 33.7567C28.0737 33.7567 28.4358 33.6602 28.7576 33.4751C29.4014 33.0969 29.8037 32.3969 29.8037 31.6486C29.8037 30.7232 29.2002 29.9427 28.3714 29.6611V26.1851L34.3499 36.9752C34.3418 36.9833 34.3338 36.9994 34.3096 37.0074C32.1934 37.5546 30.8095 39.534 30.9221 41.6421H24.477C24.5977 39.5259 23.2057 37.5465 21.0492 36.9431L27.0196 26.1851V29.6611ZM33.3682 50.0103H22.0229L22.0631 42.9859H33.328C33.3521 42.9859 33.3682 43.002 33.3682 43.0261V50.0103ZM43.2572 44.0721C43.2572 44.8204 42.6456 45.4239 41.9054 45.4239H34.72V43.0261C34.72 42.2537 34.0924 41.6341 33.328 41.6341H32.2819C32.2337 41.0387 32.3624 40.4593 32.6199 39.9443H43.2572V44.0721ZM47.2964 38.6006H33.9314C34.1487 38.4799 34.382 38.3753 34.6395 38.3109C35.066 38.1983 35.412 37.9006 35.589 37.4983C35.758 37.104 35.7338 36.6614 35.5246 36.2833L28.6048 23.8195C28.4277 23.4896 28.0818 23.2804 27.7036 23.2804C27.3173 23.2884 26.9714 23.4815 26.7863 23.8114L19.8584 36.2833C19.6492 36.6614 19.6331 37.112 19.8021 37.5063C19.971 37.9086 20.317 38.1983 20.7435 38.3109C21.001 38.3753 21.2263 38.4799 21.4516 38.6006H8.09462C7.34631 38.6006 6.74284 37.9891 6.74284 37.2488V10.6235H11.3293C12.0051 10.6235 12.5603 10.0683 12.5603 9.39236V7.11525H19.0377L22.055 10.2453C22.2884 10.4867 22.6102 10.6235 22.9401 10.6235H48.6482V37.2408C48.6482 37.9891 48.0447 38.6006 47.2964 38.6006Z" fill="url(#paint1_linear_243_111)"/>
<path d="M40.5779 7.5337C41.632 7.5337 42.4849 6.68078 42.4849 5.62671C42.4849 4.57264 41.632 3.71973 40.5779 3.71973C39.5238 3.71973 38.6709 4.57264 38.6709 5.62671C38.6709 6.68078 39.5238 7.5337 40.5779 7.5337ZM40.5779 5.07956C40.8836 5.07956 41.1331 5.329 41.1331 5.63476C41.1331 5.94052 40.8836 6.18996 40.5779 6.18996C40.2641 6.18996 40.0227 5.94856 40.0227 5.63476C40.0227 5.32095 40.2721 5.07956 40.5779 5.07956Z" fill="url(#paint2_linear_243_111)"/>
<path d="M35.9666 7.5337C37.0206 7.5337 37.8735 6.68078 37.8735 5.62671C37.8735 4.57264 37.0206 3.71973 35.9666 3.71973C34.9125 3.71973 34.0596 4.57264 34.0596 5.62671C34.0596 6.68078 34.9125 7.5337 35.9666 7.5337ZM35.9666 5.07956C36.2723 5.07956 36.5218 5.329 36.5218 5.63476C36.5218 5.94052 36.2723 6.18996 35.9666 6.18996C35.6527 6.18996 35.4114 5.94856 35.4114 5.63476C35.4114 5.32095 35.6608 5.07956 35.9666 5.07956Z" fill="url(#paint3_linear_243_111)"/>
<path d="M40.7223 16.5134C40.3281 16.9077 40.0786 17.4066 39.9821 17.9376H30.5276V16.8755C30.5276 16.1513 29.9402 15.564 29.2161 15.564H26.1665C25.4423 15.564 24.8549 16.1513 24.8549 16.8755V17.9376H15.4085C15.32 17.4146 15.0706 16.9158 14.6683 16.5054C13.6464 15.4996 11.9003 15.5157 10.9026 16.5134C10.3956 17.0204 10.1221 17.6882 10.1221 18.3963C10.1221 19.1124 10.4037 19.7883 10.9026 20.2791C11.4095 20.8021 12.0854 21.0677 12.7854 21.0677C13.228 21.0677 13.6786 20.9631 14.105 20.7458C14.5637 20.5125 14.9418 20.1262 15.1671 19.6515C15.2235 19.5308 15.2717 19.4101 15.312 19.2894H21.8697C18.3052 21.0274 15.6177 24.2943 14.6843 28.237H13.6383C12.9142 28.237 12.3268 28.8243 12.3268 29.5485V32.5981C12.3268 33.3223 12.9142 33.9096 13.6383 33.9096H16.6879C17.4121 33.9096 17.9994 33.3223 17.9994 32.5981V29.5485C17.9994 28.8243 17.4121 28.237 16.6879 28.237H16.0764C17.2029 23.9885 20.6065 20.6573 24.8791 19.6274V19.917C24.8791 20.6412 25.4665 21.2286 26.1906 21.2286H29.2402C29.9644 21.2286 30.5517 20.6412 30.5517 19.917V19.6274C34.8163 20.6573 38.2199 23.9885 39.3544 28.237H38.7992C38.0751 28.237 37.4877 28.8243 37.4877 29.5485V32.5981C37.4877 33.3223 38.0751 33.9096 38.7992 33.9096H41.8488C42.573 33.9096 43.1604 33.3223 43.1604 32.5981V29.5485C43.1604 28.8243 42.573 28.237 41.8488 28.237H40.7465C39.805 24.2943 37.1176 21.0194 33.5611 19.2894H40.1349C40.2637 19.6596 40.4729 19.9975 40.7545 20.2791C41.2614 20.8021 41.9373 21.0677 42.6374 21.0677C43.0799 21.0677 43.5305 20.9631 43.957 20.7458C44.4156 20.5125 44.7938 20.1262 45.0191 19.6515C45.5421 18.5492 45.357 17.3503 44.5282 16.5054C43.4742 15.5076 41.7281 15.5157 40.7223 16.5134ZM13.936 19.0802C13.8395 19.2733 13.6786 19.4423 13.4854 19.5389C12.7854 19.8929 12.1819 19.6676 11.852 19.3216C11.6026 19.0802 11.4658 18.7503 11.4658 18.3963C11.4658 18.0503 11.6026 17.7204 11.852 17.4629C12.1015 17.2135 12.4314 17.0767 12.7854 17.0767C13.1314 17.0767 13.4693 17.2135 13.7107 17.4549C14.1291 17.8894 14.2096 18.4928 13.936 19.0802ZM16.6718 32.5579L13.6625 32.5981L13.6222 29.5887H16.6316L16.6718 32.5579ZM41.8247 32.5579L38.8153 32.5981L38.7751 29.5887H41.7844L41.8247 32.5579ZM26.2148 19.9251L26.1987 18.9112C26.2148 18.8388 26.2148 18.7664 26.2067 18.6859V18.6779C26.2067 18.6538 26.2228 18.6377 26.2228 18.6135C26.2228 18.5733 26.2067 18.5411 26.1987 18.5089L26.1745 16.9238H29.1839L29.208 18.5089C29.2 18.5492 29.1839 18.5813 29.1839 18.6216C29.1839 18.6457 29.1919 18.6618 29.2 18.6859V18.694C29.1839 18.7986 29.1919 18.8952 29.2161 18.9837L29.2321 19.8929L26.2148 19.9251ZM43.7638 19.0802C43.6673 19.2733 43.5064 19.4423 43.3132 19.5389C42.6132 19.8929 42.0097 19.6676 41.6798 19.3216C41.4304 19.0802 41.2936 18.7503 41.2936 18.3963C41.2936 18.0503 41.4304 17.7204 41.6798 17.4629C41.9293 17.2135 42.2592 17.0767 42.6132 17.0767C42.9592 17.0767 43.2972 17.2135 43.5385 17.4549C43.957 17.8894 44.0374 18.4928 43.7638 19.0802Z" fill="url(#paint4_linear_243_111)"/>
<defs>
<linearGradient id="paint0_linear_243_111" x1="43.8074" y1="3.79492" x2="46.2751" y2="7.51213" gradientUnits="userSpaceOnUse">
<stop stop-color="#E44C64"/>
<stop offset="1" stop-color="#682BAA"/>
</linearGradient>
<linearGradient id="paint1_linear_243_111" x1="7" y1="1.63794" x2="40" y2="50.6379" gradientUnits="userSpaceOnUse">
<stop stop-color="#E44C64"/>
<stop offset="1" stop-color="#682BAA"/>
</linearGradient>
<linearGradient id="paint2_linear_243_111" x1="39.2049" y1="3.79492" x2="41.6725" y2="7.51213" gradientUnits="userSpaceOnUse">
<stop stop-color="#E44C64"/>
<stop offset="1" stop-color="#682BAA"/>
</linearGradient>
<linearGradient id="paint3_linear_243_111" x1="34.5935" y1="3.79492" x2="37.0612" y2="7.51213" gradientUnits="userSpaceOnUse">
<stop stop-color="#E44C64"/>
<stop offset="1" stop-color="#682BAA"/>
</linearGradient>
<linearGradient id="paint4_linear_243_111" x1="15.0487" y1="15.9256" x2="23.0103" y2="38.9303" gradientUnits="userSpaceOnUse">
<stop stop-color="#E44C64"/>
<stop offset="1" stop-color="#682BAA"/>
</linearGradient>
</defs>
</svg>
