<svg width="50" height="51" viewBox="0 0 50 51" fill="none" xmlns="http://www.w3.org/2000/svg">
<path d="M49.784 24.7898C49.6186 24.4833 49.3671 24.2319 49.0607 24.0665L42.0302 20.2808L49.0607 16.495C49.639 16.1837 49.9997 15.5801 50.0001 14.9235C49.9997 14.2668 49.639 13.6632 49.0607 13.352L25.8458 0.85156C25.3174 0.567058 24.6813 0.567058 24.1529 0.85156L0.937894 13.352C0.0699491 13.8204 -0.253791 14.9037 0.214659 15.7716C0.380086 16.0781 0.631523 16.3295 0.937894 16.4949L7.96851 20.2807L0.937894 24.0665C0.0699491 24.535 -0.253791 25.6183 0.214659 26.4862C0.380086 26.7927 0.631523 27.0441 0.937894 27.2095L7.9684 30.9952L0.937894 34.7811C0.0699491 35.2496 -0.253791 36.3329 0.214659 37.2008C0.380086 37.5073 0.631523 37.7587 0.937894 37.9241L24.1528 50.4244C24.6812 50.7089 25.3173 50.7089 25.8457 50.4244L49.0606 37.9241C49.9286 37.4556 50.2523 36.3723 49.7839 35.5044C49.6185 35.1979 49.367 34.9465 49.0606 34.7811L42.0301 30.9954L49.0606 27.2096C49.9286 26.741 50.2524 25.6577 49.784 24.7898ZM5.5505 14.9235L24.9993 4.45173L44.448 14.9235L24.9993 25.3952L5.5505 14.9235ZM44.448 36.3526L24.9993 46.8244L5.5505 36.3526L11.7328 33.024L24.1529 39.71C24.6813 39.9945 25.3174 39.9945 25.8458 39.71L38.2658 33.024L44.448 36.3526ZM24.9993 36.1098L5.5505 25.6381L11.7328 22.3094L24.1529 28.9954C24.6813 29.2799 25.3174 29.2799 25.8458 28.9954L38.2658 22.3094L44.4481 25.6381L24.9993 36.1098Z" fill="url(#paint0_linear_243_124)"/>
<defs>
<linearGradient id="paint0_linear_243_124" x1="14.5" y1="1.13794" x2="37" y2="49.6379" gradientUnits="userSpaceOnUse">
<stop stop-color="#E54C64"/>
<stop offset="1" stop-color="#682BAA"/>
</linearGradient>
</defs>
</svg>
