<svg width="50" height="30" viewBox="0 0 50 30" fill="none" xmlns="http://www.w3.org/2000/svg">
<path d="M12.0833 2.92939C10.4166 1.26269 3.3333 0.846094 1.0416 0.637695C0.8333 0.637695 0.624902 0.637696 0.416601 0.845996C0.208301 1.05439 0 1.47109 0 1.67939V20.4294C0 21.0544 0.416699 21.4711 1.0417 21.4711H7.29169C7.70839 21.4711 8.125 21.2628 8.33339 20.8461C8.33339 20.2211 12.0834 9.17939 12.5001 3.76279C12.5 3.55439 12.5 3.13779 12.0833 2.92939Z" fill="url(#paint0_linear_304_266)"/>
<path d="M34.3749 7.92933C32.2916 7.30433 30.4166 6.47103 28.7499 5.84604C24.9999 4.17934 23.3332 5.01274 19.9999 8.34603C18.5416 9.80433 17.4999 11.8877 17.7082 12.721C17.7082 12.9293 17.7082 12.9293 18.1249 13.1377C19.1666 13.5544 20.6249 13.7627 22.0832 11.471C22.2915 11.2627 22.4999 11.0543 22.9165 11.0543C23.5415 11.0543 23.7498 10.846 24.3748 10.6376C24.7915 10.4293 25.2081 10.2209 25.8331 10.0126C26.0414 10.0126 26.0414 10.0126 26.2498 10.0126C26.4581 10.0126 26.8748 10.2209 27.0831 10.2209C28.1249 11.2627 29.9999 12.721 31.8749 14.3877C34.7916 16.6794 37.7082 19.1794 39.1666 21.0544H39.3749C37.9166 16.8877 35.4166 9.80433 34.3749 7.92933Z" fill="url(#paint1_linear_304_266)"/>
<path d="M48.9577 2.72168C40.8327 2.72168 36.2494 4.80498 36.041 4.80498C35.8327 5.01328 35.6243 5.22168 35.416 5.42998C35.416 5.63828 35.416 6.05498 35.6243 6.26328C36.8743 8.34658 41.041 19.805 41.666 22.7216C41.8743 23.1383 42.291 23.5549 42.7077 23.5549H48.9577C49.5827 23.5549 49.9994 23.1382 49.9994 22.5132V3.76318C49.9994 3.13838 49.5827 2.72168 48.9577 2.72168Z" fill="url(#paint2_linear_304_266)"/>
<path d="M37.7079 23.1377C36.8746 21.2627 33.3329 18.5544 30.2079 16.0544C28.5413 14.596 26.8746 13.346 25.6246 12.3043C25.4163 12.5126 24.9996 12.5126 24.9996 12.721C24.3746 12.9293 24.1663 13.1377 23.3329 13.1377C21.6663 15.221 19.5829 16.0543 17.2913 15.221C16.2496 15.0127 15.6246 14.1793 15.4163 13.346C14.9996 11.2627 16.8746 8.346 18.333 6.8877H14.1663C13.333 11.0544 11.8746 16.471 10.833 19.3877C11.6663 20.221 12.4997 21.2627 13.1247 21.6794C17.083 25.0127 21.6664 28.3461 22.4997 28.9711C23.1247 29.3878 24.3747 29.8044 24.9997 29.8044C25.208 29.8044 25.4164 29.8044 25.6247 29.8044L22.2913 26.471C21.8746 26.0543 21.8746 25.4293 22.2913 25.0127C22.708 24.5961 23.333 24.596 23.7496 25.0127L27.9163 29.1794C28.333 29.5961 28.7496 29.3877 29.1663 29.3877C29.7913 29.1794 29.9996 28.7627 30.208 28.1377L25.4163 23.346C24.9996 22.9293 24.9996 22.3043 25.4163 21.8877C25.833 21.4711 26.458 21.471 26.8746 21.8877L32.0829 27.096C32.2912 27.3043 33.1246 27.3043 33.7496 27.096C33.9579 26.8877 34.3746 26.6793 34.5829 26.2627L28.7496 20.4293C28.3329 20.0126 28.3329 19.3876 28.7496 18.971C29.1663 18.5544 29.7913 18.5543 30.2079 18.971L36.2496 25.0127C36.6663 25.221 37.0829 25.0127 37.4996 24.8044C37.7079 24.596 38.1246 23.971 37.7079 23.1377Z" fill="url(#paint3_linear_304_266)"/>
<defs>
<linearGradient id="paint0_linear_304_266" x1="-0.125003" y1="-0.43373" x2="16.3491" y2="2.42287" gradientUnits="userSpaceOnUse">
<stop stop-color="#4815B3"/>
<stop offset="1" stop-color="#EA3659"/>
</linearGradient>
<linearGradient id="paint1_linear_304_266" x1="17.4647" y1="4.1877" x2="43.0123" y2="14.172" gradientUnits="userSpaceOnUse">
<stop stop-color="#4815B3"/>
<stop offset="1" stop-color="#EA3659"/>
</linearGradient>
<linearGradient id="paint2_linear_304_266" x1="35.2702" y1="1.65026" x2="54.2894" y2="5.49786" gradientUnits="userSpaceOnUse">
<stop stop-color="#4815B3"/>
<stop offset="1" stop-color="#EA3659"/>
</linearGradient>
<linearGradient id="paint3_linear_304_266" x1="10.5625" y1="5.70913" x2="43.4595" y2="16.9323" gradientUnits="userSpaceOnUse">
<stop stop-color="#4815B3"/>
<stop offset="1" stop-color="#EA3659"/>
</linearGradient>
</defs>
</svg>
