<svg width="50" height="48" viewBox="0 0 50 48" fill="none" xmlns="http://www.w3.org/2000/svg">
<path d="M46.8545 0.637939H28.7363C28.1971 0.637939 27.7598 1.07524 27.7598 1.6145C27.7598 2.15376 28.1971 2.59106 28.7363 2.59106H46.8545C47.5119 2.59106 48.0469 3.12554 48.0469 3.78247V29.6643H1.95312V3.78247C1.95312 3.12544 2.48809 2.59106 3.14551 2.59106H20.1504C20.6896 2.59106 21.127 2.15376 21.127 1.6145C21.127 1.07524 20.6896 0.637939 20.1504 0.637939H3.14551C1.41104 0.637939 0 2.04858 0 3.78247V35.0862C0 36.8207 1.41104 38.2317 3.14551 38.2317H19.1233L18.5212 43.399C18.3816 44.6229 17.348 45.5452 16.1164 45.5452C16.1154 45.5452 16.1146 45.5452 16.1137 45.5452C16.1054 45.5468 16.0872 45.5455 16.0739 45.5459C16.0636 45.5463 16.0533 45.5479 16.043 45.5486H14.7153C14.1761 45.5486 13.7388 45.9859 13.7388 46.5251C13.7388 47.0644 14.1761 47.5017 14.7153 47.5017H35.2848C35.824 47.5017 36.2613 47.0644 36.2613 46.5251C36.2613 45.9859 35.824 45.5486 35.2848 45.5486H33.9571C33.9468 45.5478 33.9364 45.5463 33.9262 45.5459C33.9133 45.5455 33.9003 45.5452 33.8875 45.5452C33.8857 45.5452 33.885 45.5452 33.8837 45.5452C32.6521 45.5451 31.6185 44.623 31.4789 43.399C31.4788 43.3982 31.4787 43.3973 31.4786 43.3966L30.8768 38.2317H46.8545C48.589 38.2317 50 36.8207 50 35.0862V3.78247C50 2.04858 48.589 0.637939 46.8545 0.637939V0.637939ZM29.5385 43.6217C29.6197 44.3328 29.8682 44.9875 30.2416 45.5485H19.7588C20.1322 44.9876 20.3805 44.3331 20.4614 43.6225L21.0896 38.2316H28.9104L29.5385 43.6217ZM48.0469 35.0862C48.0469 35.7436 47.5119 36.2786 46.8545 36.2786H3.14551C2.48809 36.2786 1.95312 35.7436 1.95312 35.0862V31.6174H48.0469V35.0862Z" fill="url(#paint0_linear_236_56)"/>
<path d="M42.4464 23.2315C44.2111 21.4667 45.183 19.1209 45.183 16.626C45.183 11.4748 40.9922 7.28394 35.8409 7.28394C30.6903 7.28394 26.5 11.4748 26.5 16.626C26.5 21.7766 30.6903 25.9669 35.8409 25.9669C38.3364 25.967 40.6823 24.9956 42.4464 23.2315ZM43.2217 16.9674C43.1545 18.4673 42.623 19.9227 41.7096 21.1136L36.8176 16.2215V9.30366C40.4369 9.78501 43.23 12.9743 43.23 16.6261C43.23 16.7403 43.2268 16.8541 43.2217 16.9674V16.9674ZM28.4531 16.626C28.4531 12.8831 31.251 9.78325 34.8644 9.30356V16.626C34.8644 16.885 34.9673 17.1333 35.1504 17.3166L40.3283 22.4945C39.0461 23.479 37.4851 24.0138 35.8409 24.0138C31.7674 24.0139 28.4531 20.6997 28.4531 16.626V16.626Z" fill="url(#paint1_linear_236_56)"/>
<path d="M15.8922 16.6253V23.9681H13.1511V9.25806C13.1511 8.7188 12.7138 8.28149 12.1745 8.28149H7.34834C6.80908 8.28149 6.37178 8.7188 6.37178 9.25806V23.9681H5.65332C5.11406 23.9681 4.67676 24.4054 4.67676 24.9447C4.67676 25.4839 5.11406 25.9212 5.65332 25.9212H23.322C23.8612 25.9212 24.2985 25.4839 24.2985 24.9447C24.2985 24.4054 23.8612 23.9681 23.322 23.9681H22.6716V16.6253C22.6716 16.0861 22.2343 15.6488 21.695 15.6488H16.8688C16.3295 15.6488 15.8922 16.086 15.8922 16.6253V16.6253ZM8.3249 23.9681V10.2346H11.1979V23.9681H8.3249ZM17.8453 17.6019H20.7184V23.9681H17.8453V17.6019Z" fill="url(#paint2_linear_236_56)"/>
<path d="M23.5935 1.98753C23.7981 2.47855 24.3765 2.72025 24.8689 2.51585C25.36 2.31205 25.6011 1.73197 25.3972 1.24037C25.1935 0.74935 24.6131 0.508042 24.1218 0.712046C23.6312 0.915756 23.3886 1.49632 23.5935 1.98753Z" fill="url(#paint3_linear_236_56)"/>
<defs>
<linearGradient id="paint0_linear_236_56" x1="5" y1="0.137941" x2="40" y2="47.1379" gradientUnits="userSpaceOnUse">
<stop stop-color="#E54C63"/>
<stop offset="1" stop-color="#682BAA"/>
</linearGradient>
<linearGradient id="paint1_linear_236_56" x1="28.3683" y1="7.0846" x2="42.5554" y2="24.9408" gradientUnits="userSpaceOnUse">
<stop stop-color="#E54C63"/>
<stop offset="1" stop-color="#682BAA"/>
</linearGradient>
<linearGradient id="paint2_linear_236_56" x1="6.63893" y1="8.09329" x2="19.6463" y2="26.3042" gradientUnits="userSpaceOnUse">
<stop stop-color="#E54C63"/>
<stop offset="1" stop-color="#682BAA"/>
</linearGradient>
<linearGradient id="paint3_linear_236_56" x1="23.7154" y1="0.618607" x2="25.1956" y2="2.48161" gradientUnits="userSpaceOnUse">
<stop stop-color="#E54C63"/>
<stop offset="1" stop-color="#682BAA"/>
</linearGradient>
</defs>
</svg>
