<svg width="50" height="51" viewBox="0 0 50 51" fill="none" xmlns="http://www.w3.org/2000/svg">
<path d="M36.5465 26.687L37.7737 25.4598C37.7741 25.4594 37.7745 25.459 37.7749 25.4586C37.7753 25.4582 37.7757 25.4578 37.7761 25.4575L42.1054 21.1282C42.1056 21.1279 42.1059 21.1277 42.1062 21.1275C42.1064 21.1273 42.1066 21.127 42.1068 21.1267L46.4369 16.7966C46.437 16.7965 46.4371 16.7964 46.4372 16.7963C46.4373 16.7962 46.4374 16.7961 46.4375 16.796L48.8159 14.4176C49.5795 13.6541 50 12.6389 50 11.5591C50 10.4793 49.5794 9.4641 48.8159 8.70072L41.9374 1.82211C41.1739 1.05863 40.1587 0.638028 39.0789 0.638028C37.999 0.638028 36.9839 1.05854 36.2204 1.82211L23.9509 14.0914L15.6229 5.76332C14.2287 4.36918 12.4814 3.3768 10.5698 2.8935L1.82393 0.682657C1.32393 0.556192 0.793848 0.702188 0.429102 1.06713C0.0642578 1.43188 -0.0817383 1.96166 0.0447266 2.46186L2.25566 11.2078C2.73887 13.1193 3.73125 14.8666 5.12539 16.2608L13.4535 24.5888L1.18398 36.8582C0.420508 37.6218 0 38.637 0 39.7167C0 40.7966 0.420508 41.8117 1.18408 42.5751L8.06269 49.4537C8.82627 50.2174 9.84141 50.6379 10.9213 50.6379C12.0011 50.6379 13.0162 50.2174 13.7797 49.4538L20.4864 42.7472C20.4875 42.7462 20.4885 42.7452 20.4896 42.7442C20.4906 42.7432 20.4916 42.7421 20.4926 42.7411L26.0491 37.1845L37.3284 48.4639C38.7755 49.911 40.6763 50.6346 42.5771 50.6346C44.478 50.6346 46.3788 49.9111 47.8259 48.4639C50.7201 45.5698 50.7201 40.8606 47.8259 37.9664L36.5465 26.687ZM5.0959 10.4898L3.48691 4.12494L9.85176 5.73402C11.2513 6.08773 12.5305 6.8143 13.5512 7.835L14.7061 8.98988L8.35176 15.3442L7.19688 14.1893C6.17617 13.1685 5.44971 11.8893 5.0959 10.4898ZM10.4233 17.4157L16.7776 11.0614L21.8793 16.163L15.525 22.5173L10.4233 17.4157ZM10.9213 47.7082C10.624 47.7082 10.3446 47.5924 10.1344 47.3823L3.25566 40.5037C3.04551 40.2935 2.92979 40.014 2.92979 39.7167C2.92979 39.4195 3.04551 39.14 3.25566 38.9297L38.2919 3.89359C38.5021 3.68344 38.7816 3.56762 39.0789 3.56762C39.3762 3.56762 39.6556 3.68344 39.8658 3.89359L46.7444 10.7723C46.9546 10.9824 47.0704 11.2619 47.0704 11.5591C47.0704 11.8564 46.9546 12.1359 46.7444 12.3461L45.4016 13.689L40.9331 9.22045C40.3612 8.64838 39.4337 8.64838 38.8615 9.22045C38.2895 9.79242 38.2895 10.72 38.8615 11.292L43.33 15.7606L41.0704 18.0202L38.7675 15.7173C38.1955 15.1452 37.268 15.1454 36.6959 15.7173C36.1238 16.2894 36.1238 17.2168 36.6959 17.7889L38.9988 20.0917L36.7393 22.3513L32.2708 17.8828C31.6987 17.3107 30.7713 17.3107 30.1992 17.8828C29.6271 18.4547 29.6271 19.3823 30.1992 19.9543L34.6677 24.4228L32.4081 26.6824L30.1052 24.3795C29.5332 23.8076 28.6057 23.8076 28.0336 24.3795C27.4615 24.9515 27.4615 25.879 28.0336 26.4511L30.3364 28.7539L28.116 30.9744L23.6476 26.5059C23.0755 25.9338 22.148 25.9338 21.576 26.5059C21.0039 27.0779 21.0039 28.0054 21.576 28.5775L26.0444 33.0459L23.7849 35.3055L21.482 33.0027C20.9101 32.4307 19.9825 32.4307 19.4104 33.0027C18.8384 33.5746 18.8384 34.5022 19.4104 35.0743L21.7133 37.3771L19.4537 39.6367L14.9854 35.1683C14.4134 34.5963 13.4858 34.5963 12.9138 35.1683C12.3417 35.7403 12.3417 36.6678 12.9138 37.2399L17.3821 41.7082L15.1226 43.9678L12.8197 41.665C12.2478 41.093 11.3202 41.093 10.7481 41.665C10.1761 42.2369 10.1761 43.1645 10.7481 43.7366L13.051 46.0394L11.7081 47.3823C11.4979 47.5925 11.2185 47.7082 10.9213 47.7082ZM29.1459 34.0877C29.148 34.0858 29.1499 34.0838 29.152 34.0818C29.154 34.0797 29.156 34.0778 29.1579 34.0757L33.4423 29.7913C33.4429 29.7908 33.4435 29.7903 33.4439 29.7897C33.4444 29.7891 33.445 29.7886 33.4456 29.788L34.475 28.7586L40.6822 34.9659L34.3279 41.3202L28.1207 35.1129L29.1459 34.0877ZM45.7543 46.3922C44.0024 48.1441 41.1519 48.1441 39.4 46.3922L36.3995 43.3916L42.7538 37.0373L45.7544 40.0378C47.5062 41.7899 47.5062 44.6404 45.7543 46.3922Z" fill="url(#paint0_linear_238_10)"/>
<defs>
<linearGradient id="paint0_linear_238_10" x1="5.5" y1="0.637939" x2="47" y2="54.1379" gradientUnits="userSpaceOnUse">
<stop stop-color="#E44C64"/>
<stop offset="1" stop-color="#692BAA"/>
</linearGradient>
</defs>
</svg>
