<svg width="103" height="102" viewBox="0 0 103 102" fill="none" xmlns="http://www.w3.org/2000/svg">
<circle cx="53" cy="51.8088" r="50" fill="url(#paint0_linear_207_41)"/>
<path d="M53 30.2463C41.6273 30.2463 32.375 39.4987 32.375 50.8713V50.8913C32.375 54.7215 33.4415 58.4761 35.4552 61.7344C37.4689 64.9926 40.3501 67.6257 43.7759 69.3387L43.9452 69.4234C44.4135 69.6555 44.8074 70.0143 45.0822 70.4589C45.357 70.9035 45.5018 71.4163 45.5 71.939V77.1213C45.5009 77.867 45.7974 78.5819 46.3247 79.1091C46.852 79.6364 47.5668 79.933 48.3125 79.9338H58.625C59.3707 79.933 60.0855 79.6364 60.6128 79.1091C61.1401 78.5819 61.4366 77.867 61.4375 77.1213V71.7169C61.4392 71.2369 61.563 70.7652 61.7971 70.3462C62.0312 69.9272 62.368 69.5746 62.7759 69.3215L63.8096 68.6854C64.3935 68.3261 64.9624 67.9329 65.5075 67.5173L65.9308 67.9405C66.4796 68.4893 67.2239 68.7976 68 68.7976C68.7761 68.7976 69.5204 68.4893 70.0692 67.9405C70.618 67.3918 70.9263 66.6474 70.9263 65.8713C70.9263 65.0952 70.618 64.3509 70.0692 63.8021L69.6113 63.3443C72.2107 59.7977 73.6162 55.5171 73.625 51.12V50.8713C73.625 39.4987 64.3727 30.2463 53 30.2463ZM59.5625 77.1213C59.5622 77.3699 59.4634 77.6082 59.2876 77.7839C59.1118 77.9597 58.8736 78.0586 58.625 78.0588H48.3125C48.0639 78.0586 47.8257 77.9597 47.6499 77.7839C47.4741 77.6082 47.3753 77.3699 47.375 77.1213V75.2463H59.5625V77.1213ZM59.5625 71.7169V73.3713H47.375V71.939C47.3748 71.4712 47.305 71.0061 47.1679 70.5588H59.711C59.6129 70.937 59.563 71.3261 59.5625 71.7169ZM68.7433 66.6146C68.546 66.8115 68.2787 66.9221 68 66.9221C67.7213 66.9221 67.454 66.8115 67.2567 66.6146L57.9041 57.262C58.4764 56.8519 58.9955 56.3724 59.4496 55.8344L68.7433 65.128C68.9402 65.3253 69.0507 65.5926 69.0507 65.8713C69.0507 66.15 68.9402 66.4174 68.7433 66.6146ZM43.7983 55.9657L40.5905 56.8633L39.9041 55.3852L42.688 53.5953L42.2064 49.5364L39.0729 48.3991L39.3933 46.8191L42.7224 46.9935L44.7477 43.4433L42.8812 40.7094L44.0894 39.6161L46.6937 41.6933L50.4371 40.0135L50.5454 36.754L52.1927 36.5721L53.0637 39.7314L57.0934 40.5493L59.1268 37.9793L60.573 38.7892L59.4024 41.8333L62.1951 44.8395L65.4029 43.9418L66.0893 45.4199L63.3054 47.2099L63.7867 51.2688L66.9206 52.4062L66.6 53.9861L63.2712 53.8117L62.1114 55.8444L60.5094 54.2423C61.4105 52.4793 61.6631 50.4555 61.2228 48.5251C60.7824 46.5947 59.6773 44.8805 58.1008 43.6827C56.5243 42.4848 54.5767 41.8794 52.5989 41.9725C50.6211 42.0656 48.739 42.8512 47.2819 44.1918C45.8249 45.5325 44.8856 47.3428 44.6286 49.306C44.3715 51.2693 44.813 53.2604 45.8757 54.931C46.9385 56.6016 48.5549 57.8453 50.442 58.4444C52.3292 59.0436 54.3669 58.9601 56.1987 58.2085L57.7828 59.7926L55.5563 60.7916L55.4481 64.0512L53.8006 64.2331L52.9296 61.0737L48.8999 60.2561L46.8665 62.8258L45.4203 62.0159L46.591 58.9719L43.7983 55.9657ZM53 56.9651C51.7021 56.9651 50.4333 56.5802 49.3541 55.8591C48.2749 55.138 47.4337 54.1131 46.937 52.9139C46.4403 51.7148 46.3104 50.3953 46.5636 49.1223C46.8168 47.8493 47.4418 46.68 48.3596 45.7622C49.2774 44.8444 50.4467 44.2194 51.7197 43.9662C52.9927 43.713 54.3122 43.8429 55.5114 44.3396C56.7105 44.8363 57.7354 45.6775 58.4565 46.7567C59.1776 47.8359 59.5625 49.1046 59.5625 50.4026C59.5605 52.1425 58.8685 53.8105 57.6382 55.0408C56.4079 56.2711 54.7399 56.9631 53 56.9651ZM71.75 51.12C71.7419 55.0198 70.5256 58.8212 68.2684 62.0013L63.4859 57.2188L64.327 55.7446L68.1162 55.943L69.0794 51.195L65.5126 49.9005L65.3054 48.1531L68.4784 46.113L66.4323 41.7068L62.7906 42.7258L61.5724 41.4144L62.906 37.9467L58.6482 35.5624L56.3377 38.4827L54.5652 38.1228L53.5754 34.533L48.7253 35.0688L48.6019 38.7819L46.9691 39.5146L44.0127 37.1565L40.4109 40.4162L42.5383 43.5324L41.6663 45.0606L37.8772 44.8622L36.9138 49.6101L40.4806 50.9046L40.688 52.652L37.5148 54.6922L39.5611 59.0984L43.2027 58.0794L44.4209 59.3908L43.0874 62.8584L47.3451 65.2428L49.6557 62.3226L51.4282 62.6823L52.418 66.2722L57.2682 65.7364L57.3914 62.0233L59.2014 61.2111L64.1699 66.1797C63.736 66.5013 63.286 66.806 62.8269 67.0886L61.7932 67.7246C61.3739 67.9834 60.9985 68.3072 60.6809 68.6838H46.0634C45.693 68.3013 45.2604 67.9844 44.7841 67.7465L44.6147 67.6618C41.5002 66.1045 38.8809 63.7108 37.0502 60.7487C35.2196 57.7867 34.25 54.3733 34.25 50.8913V50.8713C34.25 40.5325 42.6612 32.1213 53 32.1213C63.3388 32.1213 71.75 40.5325 71.75 50.8713V51.12Z" fill="white"/>
<path d="M75.5 48.0588H81.125V49.9338H75.5V48.0588Z" fill="white"/>
<path d="M52.0625 23.6838H53.9375V28.3713H52.0625V23.6838Z" fill="white"/>
<path d="M63.582 30.5244L67.3315 26.7749L68.6572 28.1006L64.9077 31.8501L63.582 30.5244Z" fill="white"/>
<path d="M72.1113 37.9358L76.7996 34.184L77.9715 35.6483L73.2832 39.4002L72.1113 37.9358Z" fill="white"/>
<path d="M74.0361 60.1209L74.9999 58.5139L79.6848 61.3237L78.721 62.9307L74.0361 60.1209Z" fill="white"/>
<path d="M24.875 48.0588H30.5V49.9338H24.875V48.0588Z" fill="white"/>
<path d="M37.335 28.0981L38.6607 26.7724L42.4101 30.5218L41.0844 31.8475L37.335 28.0981Z" fill="white"/>
<path d="M28.043 35.6686L29.2148 34.2043L33.9031 37.9561L32.7313 39.4205L28.043 35.6686Z" fill="white"/>
<path d="M26.2852 61.297L30.97 58.4817L31.9357 60.0887L27.2508 62.904L26.2852 61.297Z" fill="white"/>
<g filter="url(#filter0_f_207_41)">
<circle cx="34" cy="34.8088" r="8" fill="white"/>
</g>
<defs>
<filter id="filter0_f_207_41" x="0" y="0.808838" width="68" height="68" filterUnits="userSpaceOnUse" color-interpolation-filters="sRGB">
<feFlood flood-opacity="0" result="BackgroundImageFix"/>
<feBlend mode="normal" in="SourceGraphic" in2="BackgroundImageFix" result="shape"/>
<feGaussianBlur stdDeviation="13" result="effect1_foregroundBlur_207_41"/>
</filter>
<linearGradient id="paint0_linear_207_41" x1="20" y1="9.30884" x2="75.5" y2="101.809" gradientUnits="userSpaceOnUse">
<stop stop-color="#6129AC"/>
<stop offset="1" stop-color="#FB5155"/>
</linearGradient>
</defs>
</svg>
