<svg width="46" height="54" viewBox="0 0 46 54" fill="none" xmlns="http://www.w3.org/2000/svg">
<path d="M44.4486 9.63112L23.951 0.833334C23.6507 0.704471 23.3265 0.637939 22.9987 0.637939C22.6708 0.637939 22.3466 0.704471 22.0463 0.833334L1.5305 9.63905C1.12554 9.81367 0.778388 10.0954 0.528104 10.4526C0.27782 10.8099 0.13433 11.2283 0.113779 11.661C0.113779 11.6829 0.112199 11.7045 0.111803 11.7264C-0.117828 23.9814 -0.000838281 29.5276 0.528776 31.507C2.83082 40.1168 9.99148 47.4775 21.8122 53.3844C22.1459 53.5511 22.5152 53.6379 22.8898 53.6379C23.2644 53.6379 23.6337 53.5511 23.9674 53.3844C36.6477 47.0591 43.9042 39.285 45.5353 30.2781C46.1307 26.9864 46.0472 19.4052 45.8681 11.703C45.8575 11.2612 45.7183 10.8316 45.4669 10.4645C45.2154 10.0975 44.8622 9.80839 44.4486 9.63112ZM40.8642 29.4696C39.5507 36.7234 33.5062 43.1893 22.8911 48.7008C12.9721 43.5311 6.99501 37.3551 5.11686 30.3315C4.60523 28.4181 4.73901 18.279 4.82656 13.2934L22.9987 5.49298L41.1597 13.2884C41.2646 18.0885 41.3988 26.5135 40.8642 29.4696ZM37.9443 16.2806C38.1645 16.4962 38.3392 16.7521 38.4583 17.0337C38.5775 17.3153 38.6389 17.6172 38.6389 17.922C38.6389 18.2268 38.5775 18.5287 38.4583 18.8103C38.3392 19.092 38.1645 19.3479 37.9443 19.5634L22.7556 34.4308C22.5354 34.6463 22.274 34.8173 21.9862 34.934C21.6985 35.0506 21.3901 35.1107 21.0787 35.1107C20.7673 35.1107 20.4589 35.0506 20.1712 34.934C19.8835 34.8173 19.622 34.6463 19.4018 34.4308L11.7226 26.9141C11.5014 26.6988 11.3258 26.4428 11.2059 26.1609C11.0859 25.8791 11.0239 25.5768 11.0235 25.2714C11.0231 24.9661 11.0843 24.6636 11.2034 24.3815C11.3226 24.0993 11.4975 23.8429 11.7181 23.627C11.9387 23.411 12.2007 23.2398 12.489 23.1232C12.7773 23.0065 13.0863 22.9467 13.3982 22.9471C13.7102 22.9476 14.019 23.0082 14.307 23.1257C14.5949 23.2431 14.8564 23.415 15.0764 23.6315L21.0786 29.5065L34.5905 16.2806C34.8107 16.0651 35.0721 15.8941 35.3598 15.7774C35.6476 15.6608 35.9559 15.6007 36.2674 15.6007C36.5788 15.6007 36.8872 15.6608 37.1749 15.7774C37.4626 15.8941 37.724 16.0651 37.9443 16.2806Z" fill="url(#paint0_linear_238_64)"/>
<defs>
<linearGradient id="paint0_linear_238_64" x1="12" y1="0.637939" x2="28.5" y2="53.6379" gradientUnits="userSpaceOnUse">
<stop stop-color="#E54C63"/>
<stop offset="1" stop-color="#672BAB"/>
</linearGradient>
</defs>
</svg>
