<svg width="228" height="469" viewBox="0 0 228 469" fill="none" xmlns="http://www.w3.org/2000/svg">
<path fill-rule="evenodd" clip-rule="evenodd" d="M155.71 102.371C168.11 95.5231 184.694 90.7296 192.378 88.6753C193.519 88.3709 201.583 86.3166 202.724 85.9362C203.332 85.6318 206.071 84.4905 206.528 84.2623C206.756 89.8927 208.582 94.2296 211.853 97.6535C211.32 97.8817 208.353 99.4035 207.745 99.7078C206.832 100.24 205.539 102.751 204.93 103.512C198.235 111.197 176.782 122.99 159.818 129.458C155.634 131.512 149.472 130.523 146.505 126.719C144.603 125.425 142.701 123.979 141.484 123.142C131.899 116.903 114.021 94.3057 99.9473 58.4689C102.306 55.7298 110.141 52.2299 111.587 51.6212C117.825 49.2625 123.835 51.6972 126.117 53.5994C130.225 57.0994 135.018 63.8711 139.202 75.2841C142.016 83.0449 149.776 92.6318 155.482 101.838C155.558 101.99 155.71 102.219 155.786 102.371H155.71Z" fill="#0D187A"/>
<path fill-rule="evenodd" clip-rule="evenodd" d="M146.352 126.717C144.451 125.424 142.549 123.978 141.332 123.141C131.746 116.902 113.869 94.3044 99.7949 58.4677C114.021 42.1852 133.572 61.6633 138.821 76.1197C145.592 94.7609 151.906 110.663 155.481 130.522C151.83 130.978 148.787 129.837 146.352 126.793V126.717Z" fill="#0A125C"/>
<path fill-rule="evenodd" clip-rule="evenodd" d="M217.176 76.8824L219.686 72.6977C220.295 72.0129 221.208 71.4803 222.12 71.9368C225.544 73.7629 224.707 80.1541 220.219 83.578C225.544 83.7302 227.37 85.0237 227.674 87.4584C228.054 91.1867 227.37 105.263 224.935 106.252C222.957 107.089 213.144 108.002 211.318 106.404C209.949 105.263 211.394 104.274 209.568 102.371C208.96 101.763 206.373 101.687 204.471 100.165C201.961 98.1866 201.428 91.2628 203.102 87.3063C203.102 84.8715 203.406 83.3498 204.243 82.0563C207.362 77.2629 214.057 82.0563 217.176 76.8063V76.8824Z" fill="#F0B186"/>
<path fill-rule="evenodd" clip-rule="evenodd" d="M215.959 87.0021C217.252 87.3064 216.872 87.7629 218.697 87.9151C218.241 88.5238 216.643 89.0564 214.97 89.6651C212.992 88.9803 212.231 88.9042 211.47 90.1216C209.264 93.6977 210.025 101.154 210.253 103.208C209.416 101.306 204.471 101.687 203.254 98.6433C202.417 96.0564 201.657 89.589 203.102 88.2955C204.319 89.9694 206.373 90.6542 208.047 90.2738C211.09 89.6651 215.198 86.7738 216.035 87.0021H215.959Z" fill="#E7A376"/>
<path fill-rule="evenodd" clip-rule="evenodd" d="M8.57712 426.23L99.4838 374.499C109.358 369.953 123.543 366.347 133.652 371.599C142.821 376.38 158.025 386.177 164.686 390.018C169.78 392.918 187.413 403.499 176.441 409.456C144.075 427.092 112.023 446.844 79.1866 464.714C72.9955 468.085 63.9048 469.339 54.3439 468.555C44.8614 467.771 35.0655 465.028 27.4638 460.56C21.978 457.347 16.649 454.29 11.32 451.155C4.18852 447 0.426858 442.062 0.0350188 437.595C-0.356821 433.127 2.54279 429.051 8.57712 426.308V426.23Z" fill="white" fill-opacity="0.1"/>
<path fill-rule="evenodd" clip-rule="evenodd" d="M58.1047 378.492C57.6483 380.166 57.8765 381.612 57.0397 383.818C56.2029 386.025 55.2139 388.536 54.301 392.34C52.9317 398.275 54.8335 406.264 52.9317 414.709C51.9427 418.057 52.0188 420.796 54.301 423.764C56.5072 426.655 60.6152 431.372 66.0165 431.22C67.2337 431.22 69.7441 430.688 71.7221 428.481C73.7761 426.122 75.4497 422.698 75.1454 418.514C74.9933 416.916 74.0804 411.742 74.2325 407.025C74.3847 402.916 75.1454 400.633 75.0693 396.068C74.9933 391.275 74.6129 384.655 74.5368 381.612L58.1808 378.568L58.1047 378.492Z" fill="#4613B2"/>
<path fill-rule="evenodd" clip-rule="evenodd" d="M105.652 353.992C104.054 358.253 103.065 360.079 102.989 365.937C103.978 369.057 106.184 370.35 108.619 372.481L110.368 372.861C114.629 375.22 116.226 383.285 120.182 387.013C122.997 389.6 128.55 391.046 134.104 392.111C140.038 393.253 145.667 391.579 144.146 386.937C140.342 375.372 123.758 362.285 123.377 349.351L105.728 353.992H105.652Z" fill="#4613B2"/>
<path fill-rule="evenodd" clip-rule="evenodd" d="M130.529 271.438C130.073 293.655 124.063 333.905 124.823 355.818C118.129 360.459 109 359.394 105.348 353.611C103.066 333.524 100.404 306.438 100.099 295.405C99.8711 286.199 100.708 277.753 103.066 269.536C99.795 245.264 85.7212 212.166 89.0685 189.34C90.5139 179.297 97.1324 168.493 99.0342 160.275C115.542 180.667 128.171 170.851 135.017 169.101C135.017 176.101 135.474 175.188 135.322 182.569C134.561 207.601 133.42 234.308 132.051 260.253C132.051 264.133 131.746 268.394 130.681 271.514L130.529 271.438Z" fill="#0D187A"/>
<path fill-rule="evenodd" clip-rule="evenodd" d="M93.7086 287.569C89.7527 309.786 78.4176 360.46 75.679 382.373C68.528 386.329 59.399 384.275 56.8886 378.493C56.8125 358.406 56.5082 325.308 58.0297 314.276C59.2469 305.069 63.5831 291.297 67.2347 283.004C67.8433 258.732 60.1598 224.95 67.1586 202.124C70.2016 192.081 78.5698 181.276 81.7649 173.059C86.1772 179.907 91.5785 182.722 106.261 181.581C107.706 181.429 119.954 172.755 123.986 171.689C118.889 202.504 104.131 242.83 96.9798 276.461C96.3712 280.341 95.3822 284.602 93.7847 287.721L93.7086 287.569Z" fill="#0D187A"/>
<path fill-rule="evenodd" clip-rule="evenodd" d="M64.7227 73.0793C69.5915 70.112 81.7634 61.6664 92.4138 56.036C106.411 48.6556 120.561 46.373 129.614 62.7316C134.787 72.0141 137.982 85.2532 137.374 102.525C137.146 109.296 135.852 115.84 135.092 123.22C134.103 132.959 136.461 140.34 137.07 148.861C137.45 154.796 135.168 159.818 135.928 164.535C136.004 167.503 135.928 170.242 135.928 172.372C131.288 190.024 90.8162 192.459 72.178 180.361C72.7105 178.916 72.4823 175.187 73.3952 171.155C72.0258 166.742 70.5804 164.687 70.0479 159.437C68.8307 148.329 70.6565 141.785 65.7877 131.438C59.1693 117.438 51.714 102.144 51.4857 91.3401C51.2575 82.5901 58.4846 76.8076 64.7988 73.0032L64.7227 73.0793Z" fill="#D1E3F6"/>
<path fill-rule="evenodd" clip-rule="evenodd" d="M117.29 52.2314C101.011 57.2532 90.0558 57.2532 80.7747 62.3509C64.3427 71.4813 48.0627 81.9052 48.7474 92.8616C49.8885 111.198 64.7991 125.274 67.69 145.894C70.1243 163.318 52.7033 193.448 33 204.1C36.1951 212.393 48.5953 221.22 56.8113 218.557C79.8619 205.926 118.432 140.492 85.9478 71.0248C81.9159 62.427 108.694 60.9814 117.29 52.2314Z" fill="#4613B2"/>
<path fill-rule="evenodd" clip-rule="evenodd" d="M135.321 171.458C137.223 157.078 136.538 143.535 136.994 130.295C137.451 117.893 139.125 105.796 137.603 92.2522C135.853 76.6545 132.05 58.7742 121.171 52.7633C115.846 49.796 111.205 50.9373 96.8271 55.3503L97.8161 60.8285C124.29 68.285 132.05 94.0022 134.332 121.469C135.777 138.893 135.017 157.002 135.321 171.534V171.458Z" fill="#4613B2"/>
<path fill-rule="evenodd" clip-rule="evenodd" d="M112.421 77.415C122.691 92.7844 119.496 100.393 115.616 113.023C111.432 126.719 117.213 141.099 121.854 156.773C126.038 160.882 132.885 164.991 138.742 167.045C138.21 156.697 138.895 152.512 139.883 146.501C134.254 139.273 130.526 129.61 130.374 122.154C130.07 107.469 135.167 93.8496 115.768 75.0563C115.616 68.9694 114.551 67.9042 113.181 67.4476C111.584 66.915 112.725 66.3824 108.769 68.3607C106.182 69.6541 103.444 70.8715 104.965 73.6867C106.106 75.8171 107.476 76.4258 112.421 77.3389V77.415Z" fill="#4613B2"/>
<path fill-rule="evenodd" clip-rule="evenodd" d="M109.148 61.2848C109.3 60.4478 109.529 59.6109 109.681 58.6978C110.213 56.1109 109.529 51.1653 110.213 45.3827L87.9234 41.3501L83.0547 40.0566C85.7934 47.7414 84.8044 54.9696 83.359 61.3609C84.1958 69.1978 100.095 68.8173 108.464 68.7412C108.92 66.6869 108.616 63.8717 109.072 61.2848H109.148Z" fill="#E7A376"/>
<path fill-rule="evenodd" clip-rule="evenodd" d="M108.542 68.742C108.694 67.5246 108.313 65.242 108.313 63.1877C108.313 61.3616 108.77 56.6442 108.466 55.5029C110.367 55.5029 114.095 65.3181 117.138 69.0463C113.41 67.6768 112.041 67.8289 108.542 68.742Z" fill="#E3EFFF"/>
<path fill-rule="evenodd" clip-rule="evenodd" d="M83.513 59.6104C85.7192 67.0668 99.7169 69.0451 108.618 68.7407C107.172 71.7081 105.346 75.5124 106.107 77.9472C99.7929 77.8711 89.1425 77.6429 83.1326 71.0994C79.0246 66.6864 80.7743 62.1973 83.513 59.6104Z" fill="#E3EFFF"/>
<path fill-rule="evenodd" clip-rule="evenodd" d="M109.149 56.9477C106.334 56.1108 97.2055 54.589 94.695 53.5238C90.1305 51.5456 91.2717 47.4369 86.5551 41.1978C81.3059 39.4478 79.1758 37.4696 77.8826 34.8826C74.9917 28.6436 76.5132 20.5023 80.2409 15.1002C83.5121 10.3828 88.2287 7.94803 94.2386 7.41542C105.878 6.4263 112.344 10.7632 115.844 20.0458C116.148 20.8066 116.833 24.1544 116.833 24.9914C116.833 27.0457 116.376 27.5783 116.528 28.9479C116.604 29.8609 116.833 30.6218 117.822 31.7631C119.039 33.0566 119.724 36.6326 119.876 40.9696C120.104 45.9152 119.191 51.3173 118.43 53.2195C117.289 56.1108 113.561 57.7086 108.997 56.9477H109.149Z" fill="#F0B186"/>
<path fill-rule="evenodd" clip-rule="evenodd" d="M106.183 21.4162C103.216 20.6553 91.9568 17.6879 87.088 16.0901C82.0671 14.4923 76.5897 12.8945 73.5468 16.5466C71.1884 21.264 71.8731 28.7205 73.4707 32.6009C75.6768 38.1552 80.6217 42.416 86.8598 46.6008C89.2181 48.1986 87.1641 40.0574 87.3923 38.1552C89.0659 40.8182 90.3592 41.8834 91.3482 41.8834C92.0328 41.8834 92.8697 42.1117 92.1089 38.3835C90.8917 32.677 93.4022 31.1552 91.2721 27.7313C89.5985 24.9922 91.6525 24.9161 92.0328 23.6227C96.293 22.9379 100.553 24.1553 106.183 21.4162Z" fill="#642E40"/>
<path fill-rule="evenodd" clip-rule="evenodd" d="M84.5009 35.3378C79.7843 34.7291 80.8493 39.8269 82.1426 42.7182C83.0555 44.6964 84.7291 44.2399 85.7181 45.7617C86.8592 47.5877 88.6089 48.1964 89.9022 47.8921C92.5648 47.2834 90.0543 43.6312 89.4457 42.1095C89.2175 39.4465 87.4678 35.6422 84.5009 35.2617V35.3378Z" fill="#F0B186"/>
<path fill-rule="evenodd" clip-rule="evenodd" d="M73.2422 17.0027C76.7416 17.1549 81.6104 19.8179 86.9356 21.4157C94.3148 23.5461 102.455 24.5353 107.856 21.7962C110.975 20.1983 113.79 17.0788 113.942 15.481C116.681 -7.80149 74.4594 -2.77978 73.2422 17.0027Z" fill="#642E40"/>
<path fill-rule="evenodd" clip-rule="evenodd" d="M113.029 33.209C115.235 37.2416 118.583 37.7742 119.115 38.6872C119.648 39.6003 118.811 41.5024 116.833 42.6437C118.583 41.2742 118.963 39.6003 118.735 39.1437C117.746 37.7742 115.007 38.0785 113.029 33.209Z" fill="#AA6F48"/>
<path fill-rule="evenodd" clip-rule="evenodd" d="M100.857 37.7738C102.531 35.7956 104.129 34.6543 107.248 34.5021C103.9 34.1217 101.922 35.5673 100.857 37.7738Z" fill="#AA6F48"/>
<path fill-rule="evenodd" clip-rule="evenodd" d="M104.51 37.4688C105.423 37.2405 105.423 36.0232 104.966 35.4145C104.738 35.1101 104.434 34.958 103.901 35.034C103.597 35.034 102.912 35.4906 102.912 36.1753C102.912 37.0123 103.749 37.621 104.51 37.4688Z" fill="#AA6F48"/>
<path fill-rule="evenodd" clip-rule="evenodd" d="M113.637 31.003C114.474 28.7964 115.691 28.4921 116.984 28.416C116.071 28.7964 115.006 28.9486 113.713 31.3073V30.9269L113.637 31.003Z" fill="#AA6F48"/>
<path fill-rule="evenodd" clip-rule="evenodd" d="M115.994 31.3838C116.907 31.1556 116.907 29.9382 116.45 29.3295C116.222 29.0252 115.918 28.873 115.385 28.9491C115.081 28.9491 114.396 29.4056 114.396 30.0904C114.396 30.9273 115.233 31.536 115.994 31.3838Z" fill="#AA6F48"/>
<path fill-rule="evenodd" clip-rule="evenodd" d="M118.58 45.3053C118.124 45.4575 117.972 45.7619 117.515 46.0662C116.602 46.3706 116.374 46.5227 115.765 46.9792C114.776 47.8162 112.722 49.4901 109.527 49.414C112.494 49.7945 116.754 51.2401 118.808 48.5771C119.417 47.8162 118.961 46.8271 119.189 46.2184C119.417 45.7619 119.569 45.001 118.58 45.2293V45.3053Z" fill="#EA9F6F"/>
<path fill-rule="evenodd" clip-rule="evenodd" d="M118.733 46.371C116.831 48.0449 115.005 49.1862 111.962 49.4906C114.168 49.4906 117.059 49.034 118.809 47.4362V46.4471V46.2949L118.733 46.371Z" fill="#AA6F48"/>
<path fill-rule="evenodd" clip-rule="evenodd" d="M106.563 198.396C106.563 198.396 108.084 199.689 109.302 200.07C109.758 200.222 110.291 200.07 110.595 199.917L148.48 174.505L154.718 168.95L199.07 132.353C200.287 131.287 202.797 129.766 202.949 129.157C202.949 128.929 200.363 127.635 200.287 127.559C199.982 127.255 198.765 127.559 196.103 129.081L157.761 151.45C155.251 152.896 154.566 153.276 153.729 154.189L106.715 196.494C106.107 197.026 105.802 197.939 106.411 198.32L106.563 198.396Z" fill="#E0D8FF"/>
<path fill-rule="evenodd" clip-rule="evenodd" d="M109.074 198.395C108.922 198.852 108.009 200.982 111.356 199.765L151.143 176.102L157.381 170.548L200.744 132.352C203.559 129.841 204.624 127.178 198.766 130.678L160.424 153.048C157.914 154.493 157.229 154.874 156.392 155.787L109.074 198.395Z" fill="#D39FFB"/>
<path fill-rule="evenodd" clip-rule="evenodd" d="M97.89 168.645C98.9551 169.253 100.096 169.786 101.313 170.318C101.313 170.242 101.313 170.09 101.313 170.014C101.618 170.318 101.998 170.547 102.378 170.775C103.063 171.003 103.748 171.308 104.356 171.536C106.258 172.068 108.236 172.145 109.377 172.297C111.355 172.601 116.072 173.286 118.05 173.818C120.636 174.503 122.766 176.862 126.418 178.916L122.462 182.492C123.299 182.873 124.136 183.101 125.049 183.025C128.7 182.644 137.981 178.003 137.601 179.905C137.297 181.199 134.862 185.916 133.721 187.362C131.439 190.253 129.081 192.079 125.505 194.362C122.006 196.568 118.126 198.851 115.768 199.612C113.181 200.449 104.432 194.21 102.759 192.231C97.5858 185.992 99.6398 182.797 94.3906 180.362L97.814 168.797L97.89 168.645Z" fill="#F0B186"/>
<path fill-rule="evenodd" clip-rule="evenodd" d="M48.9745 89.5903C45.399 105.34 47.7573 130.905 46.0837 149.394C45.9316 150.764 46.0837 151.905 46.3119 152.97C46.3119 153.199 46.3119 153.503 46.3119 153.731C46.6162 157.764 49.7353 160.275 53.539 162.709C63.2765 169.025 71.2643 177.014 88.6854 182.492C89.9787 182.872 92.6413 182.492 94.2388 182.188C95.3039 182.492 96.7493 183.329 97.8904 183.633C97.6622 179.981 101.922 172.677 105.194 171.383C104.052 170.775 102.683 169.785 101.466 169.025C100.781 167.731 100.173 166.742 99.1837 165.829C93.0977 160.122 79.8608 150.383 69.895 144.753C71.1883 140.188 72.1012 135.47 73.0141 131.894C74.9159 124.362 76.2853 116.905 77.2742 109.677C77.6546 106.786 77.9589 105.34 78.3393 102.449C80.8497 80.6881 53.3108 70.4165 48.8985 89.5903H48.9745Z" fill="#0D187A"/>
</svg>
