<svg width="241" height="442" viewBox="0 0 241 442" fill="none" xmlns="http://www.w3.org/2000/svg">
<path d="M-29.6738 1.79358C-0.71349 -7.07175 28.941 25.6735 38.5139 49.2684C43.1828 60.7778 45.2556 73.3222 44.6395 85.7241C43.9484 99.6536 37.7689 112.285 36.6484 126.072C35.6628 138.159 37.6227 150.873 44.4584 160.891C62.2023 186.894 103.668 179.962 113.057 213.476C116.685 226.424 112.964 240.257 108.084 252.785C102.555 266.984 91.1111 286.822 96.0176 302.563C99.976 315.261 114.935 316.689 126.019 319.093C140.823 322.301 154.624 327.342 164.784 339.164C168.055 342.973 175.356 351.696 176.344 363.884C176.866 370.341 175.075 378.296 172.857 384.305C169.792 392.614 166.987 401.184 166.835 410.127C166.705 417.682 168.762 425.602 173.492 431.6C177.777 437.033 184.877 440.449 190.913 443.633C203.529 450.285 217.528 455.154 228.878 463.978C234.083 468.025 238.73 473.249 239.979 479.919C241.458 487.809 238.859 500.175 217.943 518.565C217.943 518.565 209.666 525.046 199.133 528.263C165.002 538.692 -161.053 491.463 -179.142 330.413C-187.657 254.609 -117.571 245.953 -66.9222 70.2998C-56.1313 32.8971 -49.0769 7.73305 -29.6738 1.79358Z" fill="url(#paint0_linear_317_321)" fill-opacity="0.6"/>
<defs>
<linearGradient id="paint0_linear_317_321" x1="149.5" y1="267.5" x2="-14.0158" y2="488.505" gradientUnits="userSpaceOnUse">
<stop stop-color="#5116AD"/>
<stop offset="1" stop-color="#E1345D"/>
</linearGradient>
</defs>
</svg>
