<svg width="308" height="291" viewBox="0 0 308 291" fill="none" xmlns="http://www.w3.org/2000/svg">
<path d="M44.0165 -30.6915L336.194 -73.3669L335.914 -72.6488L227.072 201.01L226.594 200.416L44.0165 -30.6915ZM334.824 -72.2814L45.6525 -30.0396L226.816 199.259L334.824 -72.2814Z" fill="url(#paint0_linear_212_94)" fill-opacity="0.2"/>
<path d="M210.759 205.907L48.5845 -40.8758L343.373 -57.9184L210.759 205.907ZM50.1696 -40.0763L210.655 204.148L341.918 -56.939L50.1696 -40.0763Z" fill="url(#paint1_linear_212_94)" fill-opacity="0.2"/>
<path d="M194.064 209.352L193.706 208.683L54.0322 -50.6134L349.181 -41.9013L194.064 209.352ZM55.5403 -49.6863L194.125 207.595L347.649 -41.0643L55.5403 -49.6863Z" fill="url(#paint2_linear_212_94)" fill-opacity="0.2"/>
<path d="M177.152 211.346L60.2991 -59.8259L61.0619 -59.7392L353.581 -25.4277L353.121 -24.8267L177.152 211.346ZM61.7171 -58.7812L177.345 209.607L351.948 -24.7299L61.7171 -58.7812Z" fill="url(#paint3_linear_212_94)" fill-opacity="0.2"/>
<path d="M160.116 211.855L67.3461 -68.4841L356.509 -8.65303L160.116 211.855ZM68.6641 -67.3087L160.463 210.13L354.834 -8.09071L68.6641 -67.3087Z" fill="url(#paint4_linear_212_94)" fill-opacity="0.2"/>
<path d="M143.105 210.869L142.925 210.13L75.1263 -76.4764L357.972 8.32737L143.105 210.869ZM76.328 -75.2034L143.609 209.182L356.253 8.73128L76.328 -75.2034Z" fill="url(#paint5_linear_212_94)" fill-opacity="0.2"/>
<path d="M126.24 208.42L83.5743 -83.7707L357.941 25.365L357.347 25.8428L126.24 208.42ZM84.6498 -82.3871L126.892 206.784L356.203 25.6304L84.6498 -82.3871Z" fill="url(#paint6_linear_212_94)" fill-opacity="0.2"/>
<path d="M109.66 204.49L92.617 -90.2986L356.432 42.3284L109.66 204.49ZM93.5763 -88.8174L110.449 202.918L354.674 42.4323L93.5763 -88.8174Z" fill="url(#paint7_linear_212_94)" fill-opacity="0.2"/>
<path d="M93.4802 199.144L102.192 -96.0047L353.446 59.1122L352.777 59.4707L93.4802 199.144ZM103.019 -94.4591L94.3973 197.649L351.678 59.0646L103.019 -94.4591Z" fill="url(#paint8_linear_212_94)" fill-opacity="0.2"/>
<path d="M77.8309 192.402L77.9176 191.639L112.232 -100.857L349.006 75.5717L77.8309 192.402ZM112.927 -99.2468L78.8886 190.994L347.264 75.3565L112.927 -99.2468Z" fill="url(#paint9_linear_212_94)" fill-opacity="0.2"/>
<path d="M62.8249 184.33L122.656 -104.833L343.164 91.5596L62.8249 184.33ZM123.218 -103.158L64.0002 183.012L341.439 91.2129L123.218 -103.158Z" fill="url(#paint10_linear_212_94)" fill-opacity="0.2"/>
<path d="M48.5926 174.982L133.396 -107.864L335.938 107.003L48.5926 174.982ZM133.8 -106.145L49.8755 173.767L334.261 106.486L133.81 -106.158L133.8 -106.145Z" fill="url(#paint11_linear_212_94)" fill-opacity="0.2"/>
<path d="M35.2074 164.418L35.4879 163.7L144.353 -109.962L327.408 121.739L326.66 121.85L35.2074 164.418ZM144.609 -108.211L36.601 163.329L325.772 121.087L144.609 -108.211Z" fill="url(#paint12_linear_212_94)" fill-opacity="0.2"/>
<path d="M22.8085 152.725L155.449 -111.08L317.61 135.692L22.8085 152.725ZM155.539 -109.332L24.2897 151.766L316.025 134.893L155.539 -109.332Z" fill="url(#paint13_linear_212_94)" fill-opacity="0.2"/>
<path d="M11.4867 140.01L166.604 -111.244L306.636 148.722L11.4867 140.01ZM166.566 -109.489L13.0323 139.183L305.141 147.805L166.543 -109.486L166.566 -109.489Z" fill="url(#paint14_linear_212_94)" fill-opacity="0.2"/>
<path d="M1.29705 126.357L1.7574 125.756L177.726 -110.417L294.566 160.746L1.29705 126.357ZM177.521 -108.687L2.91717 125.65L293.161 159.711L177.521 -108.687Z" fill="url(#paint15_linear_212_94)" fill-opacity="0.2"/>
<path d="M-7.6582 111.849L188.734 -108.659L281.505 171.68L-7.6582 111.849ZM188.388 -106.934L-5.99361 111.299L280.177 170.517L188.378 -106.921L188.388 -106.934Z" fill="url(#paint16_linear_212_94)" fill-opacity="0.2"/>
<path d="M-15.3203 96.6292L199.547 -105.913L267.526 181.433L-15.3203 96.6292ZM199.043 -104.226L-13.6012 96.2253L266.324 180.16L199.043 -104.226Z" fill="url(#paint17_linear_212_94)" fill-opacity="0.2"/>
<path d="M-21.6084 80.8046L-21.0143 80.3267L210.093 -102.251L252.758 189.94L-21.6084 80.8046ZM209.441 -100.615L-19.881 80.5522L251.66 188.56L209.418 -100.612L209.441 -100.615Z" fill="url(#paint18_linear_212_94)" fill-opacity="0.2"/>
<path d="M-26.5205 64.4806L220.252 -97.6806L237.308 197.118L-26.5205 64.4806ZM219.463 -96.1086L-24.7617 64.3766L236.339 195.649L219.463 -96.1086Z" fill="url(#paint19_linear_212_94)" fill-opacity="0.2"/>
<path d="M-29.9746 47.7992L-29.306 47.4406L229.991 -92.2329L221.292 202.926L-29.9746 47.7992ZM229.074 -90.7379L-28.2074 47.8467L220.452 201.37L229.074 -90.7379Z" fill="url(#paint20_linear_212_94)" fill-opacity="0.2"/>
<path d="M-31.959 30.8762L239.226 -85.9672L239.139 -85.2044L204.815 207.305L204.214 206.844L-31.959 30.8762ZM238.168 -84.5592L-30.2066 31.0783L204.13 205.682L238.168 -84.5592Z" fill="url(#paint21_linear_212_94)" fill-opacity="0.2"/>
<path d="M-32.4671 13.8397L247.862 -78.9176L188.041 210.232L-32.4671 13.8397ZM246.696 -77.6127L-30.7394 14.2094L187.481 208.581L246.696 -77.6127Z" fill="url(#paint22_linear_212_94)" fill-opacity="0.2"/>
<path d="M-31.4803 -3.17179L-30.7411 -3.35192L255.865 -71.1502L171.061 211.696L-31.4803 -3.17179ZM254.582 -69.9354L-29.7935 -2.66751L170.658 209.977L254.592 -69.9485L254.582 -69.9354Z" fill="url(#paint23_linear_212_94)" fill-opacity="0.2"/>
<path d="M-29.0196 -20.0267L263.158 -62.7021L262.878 -61.984L154.023 211.665L153.545 211.07L-29.0196 -20.0267ZM261.788 -61.6166L-27.3836 -19.3749L153.77 209.937L261.778 -61.6035L261.788 -61.6166Z" fill="url(#paint24_linear_212_94)" fill-opacity="0.2"/>
<path d="M137.048 210.169L-25.1128 -36.6036L269.675 -53.6462L137.048 210.169ZM-23.5408 -35.8141L136.944 208.41L268.207 -52.6769L-23.5408 -35.8141Z" fill="url(#paint25_linear_212_94)" fill-opacity="0.2"/>
<defs>
<linearGradient id="paint0_linear_212_94" x1="113.462" y1="113.988" x2="286.265" y2="-111.611" gradientUnits="userSpaceOnUse">
<stop stop-color="#EE4E5D"/>
<stop offset="0.0001" stop-color="white" stop-opacity="0"/>
<stop offset="0.95" stop-color="#C08DC9"/>
</linearGradient>
<linearGradient id="paint1_linear_212_94" x1="100.089" y1="121.137" x2="276.485" y2="-109.153" gradientUnits="userSpaceOnUse">
<stop stop-color="#EE4E5D"/>
<stop offset="0.0001" stop-color="white" stop-opacity="0"/>
<stop offset="0.95" stop-color="#C08DC9"/>
</linearGradient>
<linearGradient id="paint2_linear_212_94" x1="87.1898" y1="127.489" x2="265.837" y2="-105.74" gradientUnits="userSpaceOnUse">
<stop stop-color="#EE4E5D"/>
<stop offset="0.0001" stop-color="white" stop-opacity="0"/>
<stop offset="0.95" stop-color="#C08DC9"/>
</linearGradient>
<linearGradient id="paint3_linear_212_94" x1="74.877" y1="133.006" x2="254.415" y2="-101.386" gradientUnits="userSpaceOnUse">
<stop stop-color="#EE4E5D"/>
<stop offset="0.0001" stop-color="white" stop-opacity="0"/>
<stop offset="0.95" stop-color="#C08DC9"/>
</linearGradient>
<linearGradient id="paint4_linear_212_94" x1="71.8797" y1="144.268" x2="250.948" y2="-89.5103" gradientUnits="userSpaceOnUse">
<stop stop-color="#EE4E5D"/>
<stop offset="0.0001" stop-color="white" stop-opacity="0"/>
<stop offset="0.95" stop-color="#C08DC9"/>
</linearGradient>
<linearGradient id="paint5_linear_212_94" x1="71.1474" y1="155.752" x2="248.374" y2="-75.6223" gradientUnits="userSpaceOnUse">
<stop stop-color="#EE4E5D"/>
<stop offset="0.0001" stop-color="white" stop-opacity="0"/>
<stop offset="0.95" stop-color="#C08DC9"/>
</linearGradient>
<linearGradient id="paint6_linear_212_94" x1="71.0974" y1="166.183" x2="245.141" y2="-61.0365" gradientUnits="userSpaceOnUse">
<stop stop-color="#EE4E5D"/>
<stop offset="0.0001" stop-color="white" stop-opacity="0"/>
<stop offset="0.95" stop-color="#C08DC9"/>
</linearGradient>
<linearGradient id="paint7_linear_212_94" x1="71.7571" y1="175.457" x2="241.288" y2="-45.8695" gradientUnits="userSpaceOnUse">
<stop stop-color="#EE4E5D"/>
<stop offset="0.0001" stop-color="white" stop-opacity="0"/>
<stop offset="0.95" stop-color="#C08DC9"/>
</linearGradient>
<linearGradient id="paint8_linear_212_94" x1="73.1049" y1="183.537" x2="236.831" y2="-30.2116" gradientUnits="userSpaceOnUse">
<stop stop-color="#EE4E5D"/>
<stop offset="0.0001" stop-color="white" stop-opacity="0"/>
<stop offset="0.95" stop-color="#C08DC9"/>
</linearGradient>
<linearGradient id="paint9_linear_212_94" x1="75.1394" y1="190.34" x2="231.81" y2="-14.1974" gradientUnits="userSpaceOnUse">
<stop stop-color="#EE4E5D"/>
<stop offset="0.0001" stop-color="white" stop-opacity="0"/>
<stop offset="0.95" stop-color="#C08DC9"/>
</linearGradient>
<linearGradient id="paint10_linear_212_94" x1="77.8304" y1="195.824" x2="239.545" y2="-15.299" gradientUnits="userSpaceOnUse">
<stop stop-color="#EE4E5D"/>
<stop offset="0.0001" stop-color="white" stop-opacity="0"/>
<stop offset="0.95" stop-color="#C08DC9"/>
</linearGradient>
<linearGradient id="paint11_linear_212_94" x1="81.184" y1="199.946" x2="249.083" y2="-19.251" gradientUnits="userSpaceOnUse">
<stop stop-color="#EE4E5D"/>
<stop offset="0.0001" stop-color="white" stop-opacity="0"/>
<stop offset="0.95" stop-color="#C08DC9"/>
</linearGradient>
<linearGradient id="paint12_linear_212_94" x1="85.1496" y1="202.672" x2="257.963" y2="-22.9399" gradientUnits="userSpaceOnUse">
<stop stop-color="#EE4E5D"/>
<stop offset="0.0001" stop-color="white" stop-opacity="0"/>
<stop offset="0.95" stop-color="#C08DC9"/>
</linearGradient>
<linearGradient id="paint13_linear_212_94" x1="89.7161" y1="203.974" x2="266.112" y2="-26.3151" gradientUnits="userSpaceOnUse">
<stop stop-color="#EE4E5D"/>
<stop offset="0.0001" stop-color="white" stop-opacity="0"/>
<stop offset="0.95" stop-color="#C08DC9"/>
</linearGradient>
<linearGradient id="paint14_linear_212_94" x1="94.8305" y1="203.849" x2="273.478" y2="-29.3806" gradientUnits="userSpaceOnUse">
<stop stop-color="#EE4E5D"/>
<stop offset="0.0001" stop-color="white" stop-opacity="0"/>
<stop offset="0.95" stop-color="#C08DC9"/>
</linearGradient>
<linearGradient id="paint15_linear_212_94" x1="100.456" y1="202.311" x2="279.995" y2="-32.0812" gradientUnits="userSpaceOnUse">
<stop stop-color="#EE4E5D"/>
<stop offset="0.0001" stop-color="white" stop-opacity="0"/>
<stop offset="0.95" stop-color="#C08DC9"/>
</linearGradient>
<linearGradient id="paint16_linear_212_94" x1="97.9031" y1="192.706" x2="276.971" y2="-41.072" gradientUnits="userSpaceOnUse">
<stop stop-color="#EE4E5D"/>
<stop offset="0.0001" stop-color="white" stop-opacity="0"/>
<stop offset="0.95" stop-color="#C08DC9"/>
</linearGradient>
<linearGradient id="paint17_linear_212_94" x1="94.2782" y1="180.579" x2="271.505" y2="-50.7952" gradientUnits="userSpaceOnUse">
<stop stop-color="#EE4E5D"/>
<stop offset="0.0001" stop-color="white" stop-opacity="0"/>
<stop offset="0.95" stop-color="#C08DC9"/>
</linearGradient>
<linearGradient id="paint18_linear_212_94" x1="91.1912" y1="167.206" x2="265.235" y2="-60.0131" gradientUnits="userSpaceOnUse">
<stop stop-color="#EE4E5D"/>
<stop offset="0.0001" stop-color="white" stop-opacity="0"/>
<stop offset="0.95" stop-color="#C08DC9"/>
</linearGradient>
<linearGradient id="paint19_linear_212_94" x1="88.6308" y1="152.683" x2="258.161" y2="-68.6432" gradientUnits="userSpaceOnUse">
<stop stop-color="#EE4E5D"/>
<stop offset="0.0001" stop-color="white" stop-opacity="0"/>
<stop offset="0.95" stop-color="#C08DC9"/>
</linearGradient>
<linearGradient id="paint20_linear_212_94" x1="86.6465" y1="137.128" x2="250.373" y2="-76.6209" gradientUnits="userSpaceOnUse">
<stop stop-color="#EE4E5D"/>
<stop offset="0.0001" stop-color="white" stop-opacity="0"/>
<stop offset="0.95" stop-color="#C08DC9"/>
</linearGradient>
<linearGradient id="paint21_linear_212_94" x1="85.237" y1="120.645" x2="241.918" y2="-83.9056" gradientUnits="userSpaceOnUse">
<stop stop-color="#EE4E5D"/>
<stop offset="0.0001" stop-color="white" stop-opacity="0"/>
<stop offset="0.95" stop-color="#C08DC9"/>
</linearGradient>
<linearGradient id="paint22_linear_212_94" x1="71.1517" y1="120.698" x2="232.856" y2="-90.4114" gradientUnits="userSpaceOnUse">
<stop stop-color="#EE4E5D"/>
<stop offset="0.0001" stop-color="white" stop-opacity="0"/>
<stop offset="0.95" stop-color="#C08DC9"/>
</linearGradient>
<linearGradient id="paint23_linear_212_94" x1="55.3745" y1="123.083" x2="223.274" y2="-96.1144" gradientUnits="userSpaceOnUse">
<stop stop-color="#EE4E5D"/>
<stop offset="0.0001" stop-color="white" stop-opacity="0"/>
<stop offset="0.95" stop-color="#C08DC9"/>
</linearGradient>
<linearGradient id="paint24_linear_212_94" x1="40.4195" y1="124.648" x2="213.222" y2="-100.952" gradientUnits="userSpaceOnUse">
<stop stop-color="#EE4E5D"/>
<stop offset="0.0001" stop-color="white" stop-opacity="0"/>
<stop offset="0.95" stop-color="#C08DC9"/>
</linearGradient>
<linearGradient id="paint25_linear_212_94" x1="26.385" y1="125.404" x2="202.781" y2="-104.886" gradientUnits="userSpaceOnUse">
<stop stop-color="#EE4E5D"/>
<stop offset="0.0001" stop-color="white" stop-opacity="0"/>
<stop offset="0.95" stop-color="#C08DC9"/>
</linearGradient>
</defs>
</svg>
