<svg width="391" height="704" viewBox="0 0 391 704" fill="none" xmlns="http://www.w3.org/2000/svg">
<path d="M405.613 2.99929C362.143 -10.3077 317.632 38.8435 303.262 74.2598C296.254 91.5356 293.143 110.365 294.068 128.98C295.105 149.889 304.381 168.848 306.063 189.544C307.542 207.686 304.6 226.77 294.34 241.807C267.706 280.839 205.465 270.433 191.372 320.739C185.926 340.173 191.511 360.937 198.836 379.742C207.136 401.055 224.313 430.832 216.948 454.46C211.007 473.52 188.553 475.663 171.915 479.271C149.694 484.087 128.979 491.654 113.729 509.399C108.819 515.115 97.8594 528.209 96.3776 546.504C95.5941 556.195 98.2824 568.136 101.611 577.155C106.212 589.628 110.422 602.491 110.65 615.915C110.845 627.255 107.758 639.144 100.658 648.147C94.226 656.301 83.5691 661.429 74.5086 666.208C55.5713 676.192 34.5587 683.501 17.5223 696.746C9.71014 702.822 2.73498 710.662 0.859164 720.674C-1.35959 732.517 2.54163 751.079 33.9359 778.682C33.9359 778.682 46.3596 788.41 62.1706 793.239C113.401 808.894 602.816 738.002 629.968 496.263C642.749 382.48 537.549 369.487 461.524 105.828C445.327 49.6863 434.738 11.9145 405.613 2.99929Z" fill="url(#paint0_linear_317_323)" fill-opacity="0.1"/>
<defs>
<linearGradient id="paint0_linear_317_323" x1="100.402" y1="130.275" x2="382.11" y2="733.562" gradientUnits="userSpaceOnUse">
<stop stop-color="#5116AD"/>
<stop offset="1" stop-color="#E1345D"/>
</linearGradient>
</defs>
</svg>
