<svg width="199" height="117" viewBox="0 0 199 117" fill="none" xmlns="http://www.w3.org/2000/svg">
<path d="M98.3714 20.3968C103.077 17.6799 108.023 17.5414 109.994 22.0288C110.901 24.1594 111.022 26.874 111.031 29.9117L111.037 32.3678C111.119 41.3846 111.202 50.7245 113.87 57.6012C116.367 64.1226 122.692 69.0173 130.567 64.4705C132.255 63.4961 133.547 62.3612 134.501 61.0982C135.736 59.4789 136.632 57.2786 137.358 55.2406C139.036 50.7758 140.432 46.1502 141.715 41.7189C142.552 38.905 143.333 36.188 144.227 33.406C147.299 23.8632 150.603 16.8407 154.7 11.1735C157.712 7.02392 161.148 3.81352 164.428 1.91984C167.138 0.35509 169.742 -0.310738 171.91 0.136632C175.405 0.837859 177.386 4.03205 179.254 7.09702C180.273 8.77471 181.349 10.4844 182.648 11.7411C184.174 13.2559 186.148 14.123 188.402 14.3107C189.843 14.3775 191.133 14.0819 192.25 13.4374C192.661 13.1998 193.049 12.9155 193.412 12.5837L194.266 15.587C193.648 16.1499 192.996 16.6292 192.317 17.0213C190.649 17.9841 188.814 18.4226 186.892 18.2902C184.244 18.136 181.931 17.0759 180.123 15.3355C178.71 13.95 177.578 12.1435 176.503 10.369C174.691 7.46525 172.993 4.69029 170.174 4.11674C168.448 3.75675 166.495 4.31641 164.537 5.4472C161.635 7.12263 158.72 10.0524 156.509 13.1075C152.917 18.0945 149.892 24.5022 147.1 33.236C146.206 35.9535 145.425 38.6705 144.587 41.4201C143.248 46.0131 141.909 50.6706 140.12 55.3942C139.169 57.9501 137.994 60.7006 136.198 63.097C134.738 65.1048 132.884 66.7582 130.69 68.0249C121.127 73.5459 113.9 68.2012 110.892 60.4857C108.11 53.1571 108.027 43.5586 107.944 34.2187L107.881 31.7951C107.873 29.08 107.81 26.6564 107.073 25.0749C105.638 21.758 101.854 21.9812 98.2778 24.0461C97.3298 24.5935 96.3966 25.2701 95.5251 26.0447C91.6474 29.5783 87.8885 35.2448 84.0239 43.4319C76.9674 58.5125 72.6179 74.4903 68.3797 89.9507L66.4279 97.0985C65.4798 100.559 64.4188 103.891 62.2861 106.871C60.6027 109.267 58.6349 110.791 57.0603 111.83C56.273 112.349 55.4856 112.868 54.698 113.323C42.6039 120.305 30.9882 117.171 27.0671 105.386C26.5557 103.868 26.1566 102.156 25.7574 100.509C25.13 97.8285 24.5595 95.3092 23.4836 93.4053C20.9068 88.6526 15.1585 88.0795 9.49389 91.3495C7.81274 92.3201 6.13901 93.6294 4.55733 95.2683L3.42285 92.557C5.33978 90.5752 7.36865 88.9911 9.40364 87.8162C16.255 83.8606 23.1913 84.5328 26.2917 90.2303C27.5376 92.4246 28.1653 95.2344 28.7927 97.9154C29.1353 99.5301 29.5341 101.113 30.0454 102.565C33.4666 113.013 44.0953 115.863 54.7514 109.711C55.4248 109.322 56.0969 108.898 56.7689 108.438C57.9498 107.626 59.4116 106.523 60.4777 105.001C61.8808 103.026 62.7184 100.341 63.499 97.4947L65.4509 90.4114C69.7449 74.6598 74.2061 58.4233 81.5427 42.7279C85.7991 33.6669 90.0631 27.2556 94.7277 23.0737C95.8848 22.0247 97.1197 21.1194 98.3714 20.3968Z" fill="#D4DAE8"/>
<path d="M5.10823 87.4098C2.34861 89.003 -0.00893294 93.0865 2.54473e-05 96.258C0.00942351 99.5801 2.38197 100.782 5.14159 99.1885C8.03267 97.5194 10.2596 93.6621 10.2502 90.34C10.2413 87.1685 7.99932 85.7406 5.10823 87.4098Z" fill="#7766FF"/>
<path d="M143.121 35.3589C140.361 36.9522 138.004 41.0356 138.013 44.2071C138.022 47.5292 140.395 48.731 143.154 47.1377C146.045 45.4685 148.272 41.6112 148.263 38.2892C148.254 35.1177 146.012 33.6898 143.121 35.3589Z" fill="#5B5E71"/>
<path d="M193.087 8.50417C190.327 10.0974 187.97 14.1809 187.979 17.3524C187.988 20.6745 190.361 21.8762 193.12 20.283C196.011 18.6138 198.238 14.7565 198.229 11.4344C198.22 8.26294 195.978 6.83505 193.087 8.50417Z" fill="#56CCF2"/>
<path d="M61.2596 99.9066C58.5 101.5 56.1424 105.583 56.1514 108.755C56.1608 112.077 58.5333 113.279 61.293 111.685C64.184 110.016 66.411 106.159 66.4016 102.837C66.3926 99.6653 64.1507 98.2374 61.2596 99.9066Z" fill="#2F80ED"/>
<path d="M107.33 16.7847C104.57 18.378 102.213 22.4614 102.222 25.633C102.231 28.9551 104.604 30.1568 107.363 28.5635C110.254 26.8943 112.481 23.0371 112.472 19.7151C112.463 16.5435 110.221 15.1156 107.33 16.7847Z" fill="#4212B4"/>
</svg>
