<svg width="155" height="787" viewBox="0 0 155 787" fill="none" xmlns="http://www.w3.org/2000/svg">
<path d="M-422.816 619.51C-443.53 619.51 -459.21 613.393 -468.657 601.313C-489.603 574.521 -478.414 521.711 -437.955 456.434C-364.121 337.264 -214.829 211.743 -105.182 176.627C-58.8766 161.798 -24.4959 164.973 -8.35098 185.609C12.5949 212.401 1.40567 265.211 -39.0536 330.488C-112.887 449.659 -262.179 575.179 -371.826 610.296C-391.03 616.452 -408.142 619.51 -422.778 619.51H-422.816ZM-54.1919 169.735C-68.5946 169.735 -85.4752 172.755 -104.485 178.834C-213.706 213.834 -362.418 338.89 -436.019 457.673C-475.936 522.06 -487.164 573.902 -466.837 599.919C-451.351 619.743 -417.86 622.646 -372.562 608.128C-263.341 573.127 -114.629 448.072 -41.0281 329.288C-1.1109 264.902 10.117 213.06 -10.2094 187.042C-19.1917 175.543 -34.2526 169.735 -54.1919 169.735Z" fill="url(#paint0_linear_182_215)" fill-opacity="0.1"/>
<path d="M-432.068 621.291C-456.382 621.291 -474.153 613.858 -484.297 599.184C-505.282 568.791 -490.143 511.838 -442.715 442.883C-358.777 320.848 -199.108 199.083 -86.7899 171.439C-40.5232 160.056 -8.00095 165.709 7.29227 187.816C28.2769 218.209 13.1386 275.162 -34.2897 344.116C-118.228 466.152 -277.897 587.917 -390.215 615.561C-405.779 619.394 -419.756 621.291 -432.068 621.291ZM-44.9369 167.993C-57.0553 167.993 -70.8773 169.89 -86.2479 173.684C-198.101 201.212 -357.151 322.59 -440.818 444.2C-487.666 512.303 -502.804 568.326 -482.4 597.867C-467.726 619.123 -436.017 624.466 -390.757 613.316C-278.904 585.788 -119.854 464.41 -36.1869 342.8C10.6606 274.697 25.799 218.673 5.39517 189.132C-4.28409 175.117 -21.397 168.032 -44.8982 168.032L-44.9369 167.993Z" fill="url(#paint1_linear_182_215)" fill-opacity="0.1"/>
<path d="M-439.308 622.221C-468.423 622.221 -489.098 613.161 -499.783 595.467C-520.574 561.086 -501.061 499.952 -446.238 427.706C-352.001 303.541 -182.304 186.809 -68.0117 167.49L-67.8182 168.612L-68.0117 167.49C-22.7129 159.824 8.68658 168.148 22.8183 191.455C43.6093 225.836 24.0959 286.97 -30.7273 359.216C-124.964 483.381 -294.661 600.113 -408.953 619.433C-419.91 621.291 -430.015 622.182 -439.308 622.182V622.221ZM-37.6577 167.064C-46.7949 167.064 -56.8226 167.954 -67.6633 169.813C-181.453 189.055 -350.491 305.361 -444.457 429.139C-497.886 499.526 -517.864 561.28 -497.848 594.306C-484.258 616.761 -453.633 624.698 -409.341 617.226C-295.513 597.984 -126.513 481.678 -32.547 357.9C20.8824 287.512 40.8604 225.759 20.8437 192.733C10.5837 175.775 -9.39429 167.102 -37.6577 167.102V167.064Z" fill="url(#paint2_linear_182_215)" fill-opacity="0.1"/>
<path d="M-444.496 622.685C-479.651 622.685 -503.887 611.573 -515.115 590.085C-535.055 551.872 -510.16 484.93 -448.483 410.981C-343.754 285.46 -164.572 175.117 -49.0017 165.05C-4.90308 161.217 25.2188 172.213 38.1115 196.876C58.0507 235.089 33.1557 302.031 -28.5204 375.981C-133.25 501.501 -312.432 611.844 -428.002 621.911C-433.732 622.414 -439.23 622.646 -444.496 622.646V622.685ZM-48.9243 166.212L-48.8081 167.373C-163.836 177.401 -342.36 287.357 -446.741 412.491C-507.798 485.666 -532.615 551.678 -513.102 589.04C-500.674 612.812 -471.326 623.421 -428.234 619.665C-313.206 609.637 -134.682 499.681 -30.3014 374.548C30.7552 301.373 55.5729 235.36 36.0595 197.999C23.6313 174.226 -5.71613 163.618 -48.8081 167.373L-48.9243 166.212Z" fill="url(#paint3_linear_182_215)" fill-opacity="0.1"/>
<path d="M-447.128 622.801H-447.167C-489.872 622.801 -518.561 608.979 -530.06 582.807C-548.993 539.792 -518.793 468.669 -449.219 392.629C-333.997 266.644 -145.871 164.16 -29.8367 164.16H-29.798C12.9069 164.16 41.5961 177.982 53.0951 204.116C72.0277 247.13 41.8285 318.253 -27.7459 394.294C-142.968 520.279 -331.093 622.762 -447.128 622.762V622.801ZM-29.8754 166.483C-145.329 166.483 -332.681 268.618 -447.554 394.216C-516.47 469.559 -546.553 539.753 -527.969 581.916C-516.858 607.16 -488.904 620.517 -447.167 620.517H-447.128C-331.674 620.517 -144.323 518.382 -29.4495 392.784C39.4667 317.44 69.5498 247.247 50.9656 205.084C39.8539 179.84 11.9003 166.483 -29.8367 166.483H-29.8754Z" fill="url(#paint4_linear_182_215)" fill-opacity="0.1"/>
<path d="M-447.014 622.801C-453.712 622.801 -460.177 622.492 -466.411 621.911C-507.606 617.962 -534.669 601.236 -544.619 573.437C-561.964 525.157 -525.996 450.124 -448.408 372.728C-322.616 247.208 -126.205 154.055 -10.5959 165.05C30.5989 169 57.662 185.725 67.6123 213.524C84.9575 261.804 48.9895 336.838 -28.5994 414.233C-147.615 532.978 -329.817 622.763 -447.014 622.763V622.801ZM-30.1093 166.483C-146.725 166.483 -328.191 255.997 -446.82 374.354C-523.751 451.092 -559.487 525.235 -542.49 572.663C-532.849 599.532 -506.483 615.793 -466.217 619.626C-351.228 630.583 -155.668 537.74 -30.2642 412.646C46.6664 335.909 82.4022 261.765 65.4055 214.337C55.765 187.468 29.3986 171.206 -10.867 167.374C-17.0617 166.793 -23.4887 166.483 -30.1093 166.483Z" fill="url(#paint5_linear_182_215)" fill-opacity="0.1"/>
<path d="M-443.644 622.995C-458.589 622.995 -472.566 621.756 -485.459 619.162C-525.027 611.225 -550.31 591.363 -558.518 561.706C-573.462 507.734 -531.338 429.062 -445.851 351.24C-309.567 227.23 -105.761 144.956 8.45367 167.838C48.0225 175.775 73.3046 195.637 81.5126 225.294C96.4573 279.266 54.3333 357.938 -31.1537 435.76C-152.067 545.793 -326.138 622.956 -443.644 622.995ZM-33.5155 166.289C-150.402 166.289 -323.777 243.22 -444.303 352.905C-529.131 430.107 -571.023 507.928 -556.311 561.048C-548.335 589.814 -523.672 609.095 -484.994 616.839C-472.218 619.394 -458.318 620.633 -443.49 620.633C-326.603 620.633 -153.228 543.702 -32.7025 434.017C52.1264 356.816 94.0182 278.995 79.3058 225.875C71.3301 197.108 46.6674 177.827 7.98914 170.084C-4.78748 167.528 -18.6869 166.289 -33.5155 166.289Z" fill="url(#paint6_linear_182_215)" fill-opacity="0.1"/>
<path d="M-436.481 623.653C-461.531 623.653 -484.413 620.633 -504.197 614.361C-542.101 602.281 -565.409 579.09 -571.604 547.264C-583.257 487.253 -534.59 405.367 -441.398 328.243C-294.816 206.865 -84.5827 137.058 27.1932 172.678C65.0972 184.757 88.4048 207.949 94.5995 239.774C106.253 299.786 57.5861 381.672 -35.6057 458.796C-156.248 558.686 -319.982 623.653 -436.52 623.653H-436.481ZM-40.6776 165.631C-156.596 165.631 -319.672 230.405 -439.927 329.985C-532.422 406.606 -580.818 487.64 -569.319 546.8C-563.318 577.735 -540.553 600.345 -503.5 612.154C-392.344 647.58 -183.117 577.967 -37.0769 457.015C55.4179 380.394 103.814 299.36 92.3152 240.2C86.3141 209.265 63.5485 186.655 26.4963 174.846C6.86682 168.612 -15.8214 165.631 -40.6776 165.631Z" fill="url(#paint7_linear_182_215)" fill-opacity="0.1"/>
<path d="M-425.061 625.24C-462.384 625.24 -495.719 619.472 -522.473 607.353C-558.712 590.898 -579.851 564.029 -583.607 529.648C-590.847 463.442 -535.288 378.962 -434.972 303.657C-278.362 186.074 -62.8248 130.437 45.4666 179.608C81.7057 196.063 102.845 222.932 106.601 257.313C113.841 323.519 58.282 407.999 -42.0337 483.304C-159.966 571.811 -311.272 625.24 -425.1 625.24H-425.061ZM-52.0615 164.005C-165.27 164.005 -316.034 217.28 -433.579 305.554C-533.236 380.356 -588.446 464.062 -581.284 529.455C-577.606 562.984 -556.931 589.195 -521.505 605.301C-413.91 654.162 -199.418 598.642 -43.3889 481.523C56.2687 406.722 111.479 323.016 104.316 257.623C100.638 224.094 79.9635 197.882 44.5375 181.776C18.0163 169.735 -15.0093 164.044 -52.0227 164.044L-52.0615 164.005Z" fill="url(#paint8_linear_182_215)" fill-opacity="0.1"/>
<path d="M-409.186 628.299C-461.106 628.299 -506.637 618.581 -540.089 598.061C-574.624 576.883 -593.324 545.948 -594.176 508.548C-595.802 436.147 -533.119 349.885 -426.454 277.756C-260.165 165.283 -40.5621 125.443 63.0446 188.939C97.5801 210.117 116.28 241.052 117.132 278.452C118.758 350.853 56.0755 437.115 -50.5898 509.244C-163.217 585.401 -300.276 628.26 -409.186 628.26V628.299ZM-67.8962 160.946C-176.304 160.946 -312.859 203.69 -425.138 279.653C-531.106 351.357 -593.441 436.882 -591.853 508.509C-591.04 545.058 -572.727 575.373 -538.85 596.125C-435.94 659.234 -217.46 619.394 -51.8287 507.386C54.1397 435.682 116.474 350.156 114.887 278.53C114.074 241.981 95.7604 211.666 61.8831 190.913C28.7413 170.587 -16.4026 160.946 -67.8575 160.946H-67.8962Z" fill="url(#paint9_linear_182_215)" fill-opacity="0.1"/>
<path d="M-389.055 633.294C-457.738 633.294 -517.363 618 -556.777 586.291C-589.609 559.886 -605.482 524.305 -602.772 483.343C-597.545 405.134 -527.584 318.021 -415.692 250.421C-240.227 144.376 -17.9523 122.036 79.7693 200.631C112.601 227.036 128.475 262.617 125.765 303.58C120.538 381.788 50.5767 468.901 -61.3154 536.501C-166.045 599.803 -287.423 633.255 -389.055 633.255V633.294ZM-87.9526 155.913C-189.12 155.913 -310.072 189.326 -414.492 252.435C-525.764 319.686 -595.261 406.064 -600.449 483.536C-603.159 523.686 -587.518 558.609 -555.305 584.51C-458.281 662.564 -237.207 640.147 -62.4768 534.565C48.7958 467.314 118.331 380.936 123.52 303.464C126.191 263.314 110.588 228.391 78.3755 202.49C39.3488 171.09 -19.8107 155.952 -87.8752 155.952L-87.9526 155.913Z" fill="url(#paint10_linear_182_215)" fill-opacity="0.1"/>
<path d="M-365.592 640.843C-452.783 640.843 -528.358 618 -572.418 572.043C-603.43 539.715 -616.013 498.791 -608.812 453.763C-595.532 370.444 -518.408 283.795 -402.567 221.964C-218.467 123.739 4.89081 120.603 95.4111 214.995C126.423 247.324 139.006 288.248 131.805 333.276C118.525 416.595 41.4009 503.243 -74.4403 565.074C-168.871 615.484 -273.717 640.843 -365.592 640.843ZM-111.338 148.402C-202.826 148.402 -307.284 173.684 -401.483 223.978C-516.704 285.46 -593.364 371.489 -606.528 454.111C-613.613 498.442 -601.223 538.669 -570.753 570.456C-480.93 664.151 -258.772 660.821 -75.5244 563.061C39.6973 501.578 116.357 415.549 129.521 332.927C136.606 288.596 124.216 248.369 93.7462 216.583C50.0735 171.052 -24.8439 148.441 -111.338 148.441V148.402Z" fill="url(#paint11_linear_182_215)" fill-opacity="0.1"/>
<path d="M-340.271 651.336C-447.091 651.336 -539.935 618.388 -586.744 555.085C-615.704 515.942 -624.299 468.94 -611.6 419.189C-589.299 331.921 -505.36 247.092 -387.041 192.269C-195.083 103.336 27.7723 121.107 109.697 231.876C138.658 271.019 147.253 318.021 134.554 367.773C112.253 455.041 28.3143 539.87 -90.0048 594.693C-172.24 632.79 -260.205 651.336 -340.271 651.336ZM-136.62 137.91C-216.377 137.91 -304.032 156.378 -386.035 194.359C-503.734 248.873 -587.208 333.16 -609.316 419.769C-621.86 468.824 -613.381 515.129 -584.846 553.73C-503.541 663.686 -281.964 681.148 -90.934 592.641C26.7656 538.127 110.239 453.84 132.347 367.231C144.891 318.176 136.412 271.871 107.878 233.27C61.4948 170.51 -30.6129 137.91 -136.62 137.91Z" fill="url(#paint12_linear_182_215)" fill-opacity="0.1"/>
<path d="M-314.949 665.158C-441.67 665.158 -552.4 619.007 -599.519 535.378C-626.04 488.299 -629.718 434.404 -610.205 379.543C-578.302 289.874 -488.13 208.413 -368.959 161.643C-169.915 83.5125 50.5391 123.856 122.514 251.583C149.035 298.663 152.713 352.518 133.2 407.419C101.297 497.087 11.1251 578.548 -108.046 625.318C-176.768 652.304 -248.085 665.158 -314.949 665.158ZM-161.94 124.088C-228.533 124.088 -299.579 136.903 -368.108 163.812C-486.659 210.349 -576.366 291.307 -608.037 380.317C-627.318 434.559 -623.678 487.795 -597.506 534.256C-526.073 661.015 -306.896 700.932 -108.898 623.188C9.65387 576.651 99.3611 495.693 131.032 406.644C150.313 352.402 146.673 299.166 120.501 252.706C73.8079 169.813 -36.1096 124.049 -161.94 124.049V124.088Z" fill="url(#paint13_linear_182_215)" fill-opacity="0.1"/>
<path d="M-291.487 682.542C-437.76 682.542 -566.068 619.433 -610.515 512.884C-633.978 456.628 -631.694 395.068 -603.856 334.824C-562.235 244.653 -466.682 168.148 -348.247 130.205C-143.163 64.4638 72.9941 129.005 133.547 274.116C157.01 330.333 154.726 391.932 126.888 452.176C85.2674 542.347 -10.2861 618.852 -128.721 656.795C-183.235 674.256 -238.523 682.542 -291.449 682.542H-291.487ZM-185.442 106.743C-238.174 106.743 -293.23 114.989 -347.588 132.412C-465.365 170.161 -560.416 246.201 -601.765 335.792C-629.332 395.417 -631.616 456.357 -608.386 511.993C-564.287 617.691 -436.87 680.257 -291.565 680.257C-238.832 680.257 -183.777 672.011 -129.418 654.588C-11.6025 616.8 83.409 540.799 124.797 451.208C152.325 391.545 154.609 330.643 131.418 275.007C87.3193 169.309 -40.0981 106.743 -185.403 106.743H-185.442Z" fill="url(#paint14_linear_182_215)" fill-opacity="0.1"/>
<path d="M-271.354 703.487C-436.404 703.487 -580.973 619.201 -619.535 487.447C-639.087 420.66 -629.486 350.776 -591.814 285.267C-540.049 195.327 -442.792 127.108 -324.938 98.0701C-114.86 46.3055 94.8315 136.671 142.492 299.515C162.044 366.301 152.442 436.185 114.771 501.695C63.0449 591.634 -34.2509 659.853 -152.105 688.891C-192.255 698.764 -232.366 703.487 -271.354 703.487ZM-205.612 85.7968C-244.445 85.7968 -284.363 90.4816 -324.357 100.316C-441.592 129.199 -538.346 197.031 -589.762 286.428C-627.163 351.357 -636.687 420.66 -617.29 486.827C-579.037 617.574 -435.359 701.203 -271.354 701.203C-232.521 701.203 -192.603 696.518 -152.609 686.684C-35.3737 657.801 61.38 589.969 112.796 500.572C150.158 435.643 159.682 366.379 140.285 300.211C102.033 169.464 -41.6071 85.8355 -205.651 85.8355L-205.612 85.7968Z" fill="url(#paint15_linear_182_215)" fill-opacity="0.1"/>
<path d="M-255.479 727.995C-438.456 727.995 -597.002 617.923 -626.233 459.106C-640.52 381.517 -621.742 300.676 -573.384 231.566C-513.102 145.382 -413.019 84.8676 -298.881 65.5479C-85.0858 29.3862 115.933 147.047 149.229 327.894C163.516 405.483 144.738 486.285 96.3807 555.434C36.0597 641.656 -64.0237 702.171 -178.161 721.452C-204.218 725.866 -230.12 727.995 -255.518 727.995H-255.479ZM-221.486 61.3277C-246.768 61.3277 -272.515 63.4571 -298.455 67.8322C-412.051 87.0358 -511.553 147.202 -571.526 232.883C-619.535 301.528 -638.158 381.711 -623.987 458.68C-594.95 616.336 -437.372 725.672 -255.518 725.672C-230.236 725.672 -204.489 723.543 -178.549 719.168C-64.9916 699.964 34.511 639.798 94.4836 554.079C142.493 485.472 161.115 405.289 146.945 328.281C117.907 170.626 -39.6708 61.289 -221.524 61.289L-221.486 61.3277Z" fill="url(#paint16_linear_182_215)" fill-opacity="0.1"/>
<path d="M-244.484 755.871C-444.69 755.871 -614.115 615.097 -630.492 427.784C-647.915 228.895 -486.233 51.6871 -270.076 32.7545C-165.385 23.5786 -63.676 52.5002 16.3133 114.138C96.3413 175.814 145.047 262.811 153.488 359.216C161.928 455.583 129.057 549.742 60.954 624.389C-7.11047 698.996 -102.277 745.108 -206.967 754.245C-219.551 755.329 -232.095 755.871 -244.523 755.871H-244.484ZM-232.134 33.4127C-244.639 33.4127 -257.222 33.9548 -269.883 35.0775C-484.762 53.8553 -645.515 229.94 -628.208 427.59C-611.908 613.703 -443.49 753.548 -244.484 753.548C-232.134 753.548 -219.705 753.006 -207.161 751.922C-103.051 742.824 -8.42688 696.944 59.2504 622.801C126.928 548.658 159.566 455.118 151.203 359.41C142.84 263.701 94.4442 177.246 14.9195 115.957C-54.9647 62.102 -141.536 33.4127 -232.134 33.4127Z" fill="url(#paint17_linear_182_215)" fill-opacity="0.1"/>
<path d="M-238.522 787C-455.492 787 -632.003 610.489 -632.003 393.481C-632.003 176.472 -455.492 0 -238.522 0C-21.5524 0 154.958 176.511 154.958 393.481C154.958 610.451 -21.5524 786.961 -238.522 786.961V787ZM-238.522 2.32302C-454.215 2.32302 -629.68 177.788 -629.68 393.481C-629.68 609.173 -454.176 784.677 -238.484 784.677C-22.7913 784.677 152.713 609.173 152.713 393.481C152.713 177.788 -22.7913 2.32302 -238.522 2.32302Z" fill="url(#paint18_linear_182_215)" fill-opacity="0.1"/>
<defs>
<linearGradient id="paint0_linear_182_215" x1="-478.995" y1="393.481" x2="1.98647" y2="393.481" gradientUnits="userSpaceOnUse">
<stop stop-color="#FB5155"/>
<stop offset="0.95" stop-color="#461D7C"/>
<stop offset="1" stop-color="#6129AC"/>
</linearGradient>
<linearGradient id="paint1_linear_182_215" x1="-493.532" y1="393.513" x2="16.5276" y2="393.513" gradientUnits="userSpaceOnUse">
<stop stop-color="#FB5155"/>
<stop offset="0.95" stop-color="#461D7C"/>
<stop offset="1" stop-color="#6129AC"/>
</linearGradient>
<linearGradient id="paint2_linear_182_215" x1="-507.911" y1="393.481" x2="30.946" y2="393.481" gradientUnits="userSpaceOnUse">
<stop stop-color="#FB5155"/>
<stop offset="0.95" stop-color="#461D7C"/>
<stop offset="1" stop-color="#6129AC"/>
</linearGradient>
<linearGradient id="paint3_linear_182_215" x1="-521.853" y1="393.506" x2="44.8494" y2="393.506" gradientUnits="userSpaceOnUse">
<stop stop-color="#FB5155"/>
<stop offset="0.95" stop-color="#461D7C"/>
<stop offset="1" stop-color="#6129AC"/>
</linearGradient>
<linearGradient id="paint4_linear_182_215" x1="-535.599" y1="393.492" x2="58.6343" y2="393.492" gradientUnits="userSpaceOnUse">
<stop stop-color="#FB5155"/>
<stop offset="0.95" stop-color="#461D7C"/>
<stop offset="1" stop-color="#6129AC"/>
</linearGradient>
<linearGradient id="paint5_linear_182_215" x1="-548.899" y1="393.497" x2="71.892" y2="393.497" gradientUnits="userSpaceOnUse">
<stop stop-color="#FB5155"/>
<stop offset="0.95" stop-color="#461D7C"/>
<stop offset="1" stop-color="#6129AC"/>
</linearGradient>
<linearGradient id="paint6_linear_182_215" x1="-561.48" y1="393.518" x2="84.4747" y2="393.518" gradientUnits="userSpaceOnUse">
<stop stop-color="#FB5155"/>
<stop offset="0.95" stop-color="#461D7C"/>
<stop offset="1" stop-color="#6129AC"/>
</linearGradient>
<linearGradient id="paint7_linear_182_215" x1="-573.302" y1="393.525" x2="96.2978" y2="393.525" gradientUnits="userSpaceOnUse">
<stop stop-color="#FB5155"/>
<stop offset="0.95" stop-color="#461D7C"/>
<stop offset="1" stop-color="#6129AC"/>
</linearGradient>
<linearGradient id="paint8_linear_182_215" x1="-584.231" y1="393.486" x2="107.225" y2="393.486" gradientUnits="userSpaceOnUse">
<stop stop-color="#FB5155"/>
<stop offset="0.95" stop-color="#461D7C"/>
<stop offset="1" stop-color="#6129AC"/>
</linearGradient>
<linearGradient id="paint9_linear_182_215" x1="-594.202" y1="393.521" x2="117.158" y2="393.521" gradientUnits="userSpaceOnUse">
<stop stop-color="#FB5155"/>
<stop offset="0.95" stop-color="#461D7C"/>
<stop offset="1" stop-color="#6129AC"/>
</linearGradient>
<linearGradient id="paint10_linear_182_215" x1="-603.064" y1="393.489" x2="126.057" y2="393.489" gradientUnits="userSpaceOnUse">
<stop stop-color="#FB5155"/>
<stop offset="0.95" stop-color="#461D7C"/>
<stop offset="1" stop-color="#6129AC"/>
</linearGradient>
<linearGradient id="paint11_linear_182_215" x1="-610.781" y1="393.533" x2="133.774" y2="393.533" gradientUnits="userSpaceOnUse">
<stop stop-color="#FB5155"/>
<stop offset="0.95" stop-color="#461D7C"/>
<stop offset="1" stop-color="#6129AC"/>
</linearGradient>
<linearGradient id="paint12_linear_182_215" x1="-617.299" y1="393.502" x2="140.253" y2="393.502" gradientUnits="userSpaceOnUse">
<stop stop-color="#FB5155"/>
<stop offset="0.95" stop-color="#461D7C"/>
<stop offset="1" stop-color="#6129AC"/>
</linearGradient>
<linearGradient id="paint13_linear_182_215" x1="-622.539" y1="393.495" x2="145.534" y2="393.495" gradientUnits="userSpaceOnUse">
<stop stop-color="#FB5155"/>
<stop offset="0.95" stop-color="#461D7C"/>
<stop offset="1" stop-color="#6129AC"/>
</linearGradient>
<linearGradient id="paint14_linear_182_215" x1="-626.564" y1="393.517" x2="149.596" y2="393.517" gradientUnits="userSpaceOnUse">
<stop stop-color="#FB5155"/>
<stop offset="0.95" stop-color="#461D7C"/>
<stop offset="1" stop-color="#6129AC"/>
</linearGradient>
<linearGradient id="paint15_linear_182_215" x1="-629.405" y1="393.499" x2="152.362" y2="393.499" gradientUnits="userSpaceOnUse">
<stop stop-color="#FB5155"/>
<stop offset="0.95" stop-color="#461D7C"/>
<stop offset="1" stop-color="#6129AC"/>
</linearGradient>
<linearGradient id="paint16_linear_182_215" x1="-630.893" y1="393.523" x2="153.889" y2="393.523" gradientUnits="userSpaceOnUse">
<stop stop-color="#FB5155"/>
<stop offset="0.95" stop-color="#461D7C"/>
<stop offset="1" stop-color="#6129AC"/>
</linearGradient>
<linearGradient id="paint17_linear_182_215" x1="-631.773" y1="393.498" x2="154.782" y2="393.498" gradientUnits="userSpaceOnUse">
<stop stop-color="#FB5155"/>
<stop offset="0.95" stop-color="#461D7C"/>
<stop offset="1" stop-color="#6129AC"/>
</linearGradient>
<linearGradient id="paint18_linear_182_215" x1="-631.997" y1="393.52" x2="154.953" y2="393.52" gradientUnits="userSpaceOnUse">
<stop stop-color="#FB5155"/>
<stop offset="0.95" stop-color="#461D7C"/>
<stop offset="1" stop-color="#6129AC"/>
</linearGradient>
</defs>
</svg>
