<svg width="40" height="41" viewBox="0 0 40 41" fill="none" xmlns="http://www.w3.org/2000/svg">
<path fill-rule="evenodd" clip-rule="evenodd" d="M14.6951 0.0380859C12.4796 0.0397202 10.6865 1.83413 10.6881 4.04528C10.6865 6.25642 12.4812 8.05083 14.6968 8.05247H18.7054V4.04691C18.7071 1.83577 16.9124 0.0413544 14.6951 0.0380859C14.6968 0.0380859 14.6968 0.0380859 14.6951 0.0380859V0.0380859ZM14.6951 10.7261H4.00866C1.79309 10.7277 -0.00163305 12.5222 4.47515e-06 14.7333C-0.00327057 16.9444 1.79146 18.7389 4.00703 18.7421H14.6951C16.9107 18.7405 18.7054 16.9461 18.7038 14.7349C18.7054 12.5222 16.9107 10.7277 14.6951 10.7261Z" fill="#36C5F0"/>
<path fill-rule="evenodd" clip-rule="evenodd" d="M40.0798 14.7333C40.0814 12.5222 38.2867 10.7277 36.0711 10.7261C33.8556 10.7277 32.0608 12.5222 32.0625 14.7333V18.7421H36.0711C38.2867 18.7405 40.0814 16.9461 40.0798 14.7333ZM29.3917 14.7333V4.04528C29.3933 1.83577 27.6002 0.0413544 25.3846 0.0380859C23.1691 0.0397202 21.3743 1.83413 21.376 4.04528V14.7333C21.3727 16.9444 23.1674 18.7389 25.383 18.7421C27.5986 18.7405 29.3933 16.9461 29.3917 14.7333Z" fill="#2EB67D"/>
<path fill-rule="evenodd" clip-rule="evenodd" d="M25.3837 40.1183C27.5992 40.1166 29.394 38.3222 29.3923 36.1111C29.394 33.8999 27.5992 32.1055 25.3837 32.1039H21.375V36.1111C21.3734 38.3206 23.1681 40.115 25.3837 40.1183ZM25.3837 29.4286H36.0718C38.2874 29.427 40.0821 27.6326 40.0805 25.4214C40.0837 23.2103 38.289 21.4159 36.0734 21.4126H25.3853C23.1697 21.4142 21.375 23.2086 21.3766 25.4198C21.375 27.6326 23.1681 29.427 25.3837 29.4286Z" fill="#ECB22E"/>
<path fill-rule="evenodd" clip-rule="evenodd" d="M1.11968e-06 25.4213C-0.0016364 27.6324 1.79309 29.4268 4.00866 29.4284C6.22423 29.4268 8.01896 27.6324 8.01732 25.4213V21.4141H4.00866C1.79309 21.4157 -0.0016364 23.2101 1.11968e-06 25.4213ZM10.6881 25.4213V36.1093C10.6848 38.3204 12.4796 40.1148 14.6951 40.1181C16.9107 40.1165 18.7054 38.3221 18.7038 36.1109V25.4245C18.7071 23.2134 16.9124 21.419 14.6968 21.4157C12.4796 21.4157 10.6865 23.2101 10.6881 25.4213C10.6881 25.4229 10.6881 25.4213 10.6881 25.4213Z" fill="#E01E5A"/>
</svg>
