<svg width="40" height="40" viewBox="0 0 40 40" fill="none" xmlns="http://www.w3.org/2000/svg">
<path d="M0 8.78906C0 3.935 3.935 0 8.78906 0H31.2109C36.065 0 40 3.935 40 8.78906V31.2109C40 36.065 36.065 40 31.2109 40H8.78906C3.935 40 0 36.065 0 31.2109V8.78906Z" fill="#FFFC00"/>
<path d="M32.3102 26.7966C27.8672 24.6441 27.1591 21.3207 27.1275 21.0742C27.0894 20.7756 27.0462 20.5408 27.3753 20.2371C27.6927 19.9436 29.1009 19.0713 29.4916 18.7984C30.1375 18.3465 30.4219 17.8953 30.2122 17.3407C30.0656 16.957 29.7086 16.8124 29.3326 16.8124C29.214 16.8128 29.0957 16.8261 28.98 16.8521C28.2704 17.0061 27.5813 17.3619 27.1825 17.4581C27.1346 17.4704 27.0854 17.4771 27.0359 17.4779C26.8233 17.4779 26.7427 17.3832 26.7632 17.1272C26.8131 16.351 26.9186 14.836 26.7962 13.4208C26.6283 11.4737 26.0008 10.509 25.2568 9.65575C24.8969 9.24198 23.2255 7.46436 20 7.46436C16.7746 7.46436 15.1054 9.24198 14.7477 9.65062C14.0014 10.5038 13.3747 11.4686 13.2083 13.4157C13.0859 14.8309 13.1958 16.3451 13.2413 17.122C13.2559 17.3656 13.1812 17.4727 12.9686 17.4727C12.9191 17.4719 12.8699 17.4652 12.822 17.4529C12.4239 17.3568 11.7348 17.001 11.0252 16.8469C10.9095 16.821 10.7913 16.8077 10.6726 16.8073C10.2951 16.8073 9.93958 16.954 9.79297 17.3355C9.58332 17.8902 9.86628 18.3414 10.5143 18.7933C10.905 19.0662 12.3132 19.9378 12.6306 20.232C12.959 20.5357 12.9165 20.7705 12.8784 21.0691C12.8469 21.3192 12.138 24.6426 7.6957 26.7915C7.43547 26.9177 6.9927 27.1847 7.7734 27.6161C8.99907 28.294 9.81496 28.2213 10.4491 28.63C10.9871 28.977 10.669 29.7253 11.0604 29.9953C11.5413 30.3276 12.9627 29.9718 14.799 30.5785C16.3384 31.0862 17.2738 32.5205 20.0037 32.5205C22.7336 32.5205 23.6961 31.0796 25.2084 30.5785C27.041 29.9718 28.4654 30.3276 28.947 29.9953C29.3377 29.7253 29.0203 28.977 29.5584 28.63C30.1924 28.2213 31.0076 28.294 32.234 27.6161C33.0132 27.1898 32.5705 26.9228 32.3102 26.7966Z" fill="white"/>
<path d="M34.2431 26.5437C34.0437 26.0008 33.664 25.7103 33.2315 25.4697C33.1501 25.422 33.0754 25.3838 33.0116 25.3545C32.8826 25.2877 32.7506 25.2232 32.6194 25.155C31.2713 24.4396 30.2187 23.5373 29.4885 22.4676C29.2812 22.1665 29.1014 21.8473 28.9512 21.5139C28.8889 21.3356 28.8918 21.2344 28.9365 21.1419C28.9809 21.0707 29.0396 21.0095 29.1088 20.9622C29.3405 20.8088 29.5794 20.6533 29.7414 20.5484C30.0303 20.3613 30.259 20.2131 30.4063 20.1082C30.9598 19.7208 31.3468 19.3093 31.5887 18.8493C31.7575 18.5315 31.8559 18.181 31.8773 17.8217C31.8987 17.4625 31.8425 17.1028 31.7126 16.7672C31.3461 15.8017 30.4349 15.2023 29.3309 15.2023C29.0981 15.2021 28.8658 15.2267 28.6382 15.2757C28.5773 15.2889 28.5165 15.3028 28.4571 15.3182C28.4674 14.658 28.4527 13.961 28.3941 13.2751C28.1859 10.8636 27.3421 9.59949 26.4625 8.59147C25.8992 7.95979 25.2356 7.42538 24.4986 7.00973C23.1637 6.24674 21.65 5.85938 19.9999 5.85938C18.3497 5.85938 16.8433 6.24674 15.507 7.00973C14.7681 7.42551 14.1033 7.96099 13.5394 8.5944C12.6598 9.60243 11.816 10.8687 11.6078 13.278C11.5492 13.9639 11.5345 14.6646 11.5441 15.3212C11.4847 15.3058 11.4246 15.2918 11.3637 15.2786C11.1361 15.2296 10.9038 15.205 10.671 15.2053C9.56627 15.2053 8.65362 15.8047 8.28856 16.7701C8.15807 17.1059 8.10133 17.4658 8.1222 17.8255C8.14307 18.1851 8.24106 18.536 8.40951 18.8544C8.65215 19.3144 9.03921 19.726 9.59266 20.1133C9.73927 20.2161 9.96872 20.3643 10.2575 20.5535C10.4137 20.6548 10.6417 20.803 10.8652 20.9512C10.9435 21.0018 11.01 21.0686 11.0602 21.1471C11.1072 21.2432 11.1086 21.3466 11.039 21.5374C10.8909 21.8637 10.714 22.1763 10.5104 22.4713C9.79645 23.5167 8.77457 24.403 7.46973 25.1124C6.77846 25.4792 6.06007 25.7243 5.75658 26.5496C5.52787 27.1725 5.67741 27.8812 6.25873 28.4784C6.47207 28.7013 6.71952 28.8887 6.99178 29.0337C7.55828 29.3453 8.16066 29.5865 8.78557 29.752C8.91453 29.7853 9.03695 29.8401 9.1477 29.9141C9.35955 30.0997 9.3295 30.3792 9.61172 30.7886C9.75339 31.0002 9.93341 31.1833 10.1425 31.3286C10.7348 31.7379 11.4004 31.7636 12.1056 31.7908C12.7426 31.815 13.4647 31.8429 14.2894 32.115C14.631 32.228 14.9858 32.4466 15.397 32.702C16.3844 33.3094 17.7362 34.1406 19.9984 34.1406C22.2606 34.1406 23.6219 33.305 24.6166 32.6953C25.025 32.4444 25.3776 32.228 25.7096 32.118C26.5343 31.8451 27.2564 31.8179 27.8934 31.7937C28.5986 31.7666 29.2642 31.7409 29.8565 31.3315C30.1041 31.1587 30.3104 30.9332 30.4606 30.6712C30.6636 30.3257 30.6585 30.0843 30.8491 29.9156C30.953 29.8451 31.068 29.7925 31.1892 29.76C31.8227 29.5941 32.4332 29.3506 33.0072 29.0352C33.2965 28.8799 33.5568 28.6759 33.7769 28.4321L33.7842 28.4233C34.3296 27.8394 34.4667 27.1512 34.2431 26.5437ZM32.2324 27.6251C31.006 28.303 30.1908 28.2304 29.5567 28.639C29.0179 28.986 29.3368 29.7344 28.9453 30.0043C28.4645 30.3367 27.0431 29.9809 25.2068 30.5876C23.6923 31.0887 22.7261 32.5295 20.0021 32.5295C17.278 32.5295 16.3346 31.0916 14.7952 30.5839C12.9625 29.9772 11.5382 30.333 11.0566 30.0007C10.6659 29.7307 10.9833 28.9824 10.4452 28.6354C9.81038 28.2267 8.99522 28.2994 7.76955 27.6251C6.98885 27.1937 7.43161 26.9267 7.69185 26.8005C12.1342 24.648 12.843 21.3246 12.8746 21.0781C12.9127 20.7795 12.9552 20.5447 12.6268 20.241C12.3094 19.9475 10.9012 19.0752 10.5104 18.8023C9.86389 18.3504 9.57947 17.8992 9.78912 17.3446C9.93573 16.9609 10.2935 16.8164 10.6688 16.8164C10.7874 16.8167 10.9056 16.83 11.0214 16.856C11.731 17.01 12.4201 17.3659 12.8181 17.462C12.866 17.4743 12.9152 17.4809 12.9647 17.4818C13.1773 17.4818 13.2521 17.3747 13.2374 17.1311C13.192 16.3542 13.082 14.8399 13.2044 13.4247C13.3723 11.4776 13.9991 10.5129 14.7438 9.65965C15.1016 9.24955 16.7825 7.47193 19.9969 7.47193C23.2114 7.47193 24.8967 9.24221 25.2544 9.65085C25.9999 10.5041 26.6274 11.4688 26.7938 13.4159C26.9162 14.8311 26.8107 16.3461 26.7608 17.1223C26.744 17.3783 26.8209 17.473 27.0335 17.473C27.083 17.4722 27.1322 17.4655 27.1801 17.4532C27.5789 17.357 28.268 17.0012 28.9776 16.8472C29.0933 16.8212 29.2116 16.8079 29.3302 16.8075C29.7077 16.8075 30.0632 16.9543 30.2099 17.3358C30.4195 17.8904 30.1366 18.3416 29.4893 18.7935C29.0985 19.0664 27.6903 19.938 27.3729 20.2322C27.0438 20.5359 27.087 20.7707 27.1252 21.0693C27.1567 21.3195 27.8648 24.6429 32.3079 26.7917C32.5703 26.923 33.0131 27.1901 32.2324 27.6251Z" fill="black"/>
</svg>
