<svg width="174" height="195" viewBox="0 0 174 195" fill="none" xmlns="http://www.w3.org/2000/svg">
<path d="M201.505 156.615C201.486 156.797 201.468 156.977 201.449 157.157C200.607 165.379 199.908 172.207 198.483 177.499C197.029 182.899 194.848 186.586 191.097 188.519L191.097 188.519C185.439 191.434 178.876 190.089 172.916 186.77C166.962 183.456 161.721 178.229 158.795 173.605C155.938 169.09 154.1 163.935 153.411 158.634L153.411 158.634C153.027 155.677 153.244 152.744 153.491 149.759C153.502 149.631 153.512 149.502 153.523 149.373C153.76 146.528 154 143.633 153.714 140.71C153.193 135.373 151.337 129.944 147.519 126.067C143.135 121.613 137.206 120.385 131.544 119.211C130.817 119.06 130.094 118.911 129.38 118.755C123.045 117.375 117.291 115.549 114.087 108.947L113.637 109.165L114.087 108.947C111.601 103.827 112.093 97.742 113.213 92.001C113.455 90.7608 113.773 89.4176 114.109 87.9989C114.212 87.5655 114.316 87.125 114.42 86.6783C114.864 84.777 115.305 82.7742 115.601 80.7711C116.192 76.7805 116.224 72.7029 114.485 69.3698C113.048 66.6155 110.579 65.4071 107.909 64.8624C105.866 64.4457 103.641 64.4072 101.616 64.3721C101.023 64.3619 100.447 64.3519 99.8979 64.3328L99.8979 64.3328C93.33 64.1052 87.1492 63.0183 81.9984 58.8351C80.3052 57.4591 76.6115 54.368 75.2868 49.3799C74.588 46.7471 74.7293 43.2741 75.2088 40.559C75.8806 36.7513 76.4353 32.7813 75.792 28.8395C75.2476 25.5 73.7075 22.1448 71.1065 19.8442C68.9528 17.9392 65.8985 16.9855 63.2583 16.1612C63.0062 16.0825 62.758 16.005 62.5146 15.9279L62.3637 16.4046L62.5145 15.9279C60.6148 15.3269 58.6551 14.8111 56.7047 14.2979C55.6027 14.0079 54.5037 13.7187 53.4201 13.4153C50.3982 12.5692 47.452 11.6023 44.7201 10.1729C42.215 8.86161 39.9435 7.05422 38.9537 4.45587C37.7992 1.42525 37.8359 -3.89352 45.3305 -13.3419L45.3529 -13.3666C45.3749 -13.3907 45.4083 -13.4269 45.4526 -13.4743C45.5413 -13.5689 45.6739 -13.7078 45.8466 -13.8818C46.1922 -14.23 46.6982 -14.7183 47.3362 -15.2747C48.6143 -16.3893 50.4112 -17.7678 52.4996 -18.8424L52.2708 -19.287L52.4996 -18.8424C53.3071 -19.258 54.6291 -19.684 56.4358 -20.0932C58.2333 -20.5003 60.4795 -20.8839 63.1153 -21.226C68.3863 -21.91 75.1939 -22.4248 83.0451 -22.6314C98.7478 -23.0445 118.601 -22.224 138.652 -19.0685C158.706 -15.9124 178.931 -10.4245 195.392 -1.51865C211.851 7.38618 224.507 19.6832 229.52 36.4466C234.073 51.6694 229.659 61.6083 222.862 76.9146C222.631 77.4328 222.399 77.9572 222.163 78.4881C214.975 94.7042 205.571 116.878 201.505 156.615ZM201.505 156.615L202.002 156.666L201.505 156.615Z" fill="url(#paint0_linear_256_22)" stroke="url(#paint1_linear_256_22)"/>
<defs>
<linearGradient id="paint0_linear_256_22" x1="170.425" y1="177.264" x2="28.4686" y2="6.08976" gradientUnits="userSpaceOnUse">
<stop stop-color="#E34C65"/>
<stop offset="1" stop-color="#692CA9"/>
</linearGradient>
<linearGradient id="paint1_linear_256_22" x1="183.715" y1="265.878" x2="96.9387" y2="-299.212" gradientUnits="userSpaceOnUse">
<stop stop-color="#AD0757"/>
<stop offset="1" stop-color="#5417D7" stop-opacity="0.78"/>
</linearGradient>
</defs>
</svg>
