<svg width="24" height="11" viewBox="0 0 24 11" fill="none" xmlns="http://www.w3.org/2000/svg">
<path fill-rule="evenodd" clip-rule="evenodd" d="M5.81735 3.87802C5.60901 3.90766 5.40067 3.94448 5.19413 3.98848C3.55437 4.3405 1.86162 5.27173 1.1055 6.85132C0.920514 7.23746 0.711283 8.04836 0.796594 8.66978C0.854964 9.09274 1.03547 9.44476 1.31296 9.68184C1.71706 10.0276 2.24328 10.2018 2.81352 10.2404C3.46816 10.2853 4.18387 10.147 4.71011 10.0213C6.89765 9.50224 7.8657 7.73676 7.89174 5.77102C7.89354 5.67044 7.89174 5.56987 7.88815 5.46839C8.71252 5.4666 9.54047 5.5124 10.3568 5.5124C13.9174 5.51419 17.6126 5.72432 21.167 5.41721C21.6411 5.3759 21.994 4.95743 21.9527 4.48328C21.9114 4.00824 21.493 3.65622 21.0188 3.69753C17.513 4.00015 13.8689 3.78733 10.3577 3.78643C9.4426 3.78553 8.51405 3.74063 7.59179 3.7532C7.24067 2.61094 6.59772 1.55398 5.7518 0.837375C3.69895 -0.903859 0.88461 0.261753 0.0512609 2.57681C-0.11038 3.02492 0.123083 3.51972 0.571188 3.68136C1.01929 3.843 1.5141 3.60952 1.67575 3.16142C2.11307 1.94731 3.55796 1.24058 4.63556 2.15385C5.14922 2.59028 5.55333 3.20182 5.81735 3.87802ZM6.16397 5.57077C5.96102 5.5986 5.75807 5.63363 5.55692 5.67673C4.41555 5.92099 3.18888 6.49751 2.66265 7.59667C2.58632 7.75561 2.53334 8.27197 2.51897 8.42732C2.69228 8.52521 2.91857 8.527 3.14038 8.52251C3.55705 8.51353 3.98272 8.42014 4.31139 8.34201C5.62517 8.02951 6.14961 6.92855 6.16578 5.74767C6.16667 5.6893 6.16576 5.63003 6.16397 5.57077Z" fill="#FB5155"/>
<path fill-rule="evenodd" clip-rule="evenodd" d="M21.5809 4.64344C20.8696 5.26127 19.9986 5.76236 19.2586 6.24279C18.4603 6.76094 17.644 7.23509 16.808 7.68948C16.3895 7.91667 16.2341 8.44201 16.4613 8.86048C16.6894 9.27895 17.2138 9.4343 17.6323 9.20621C18.5079 8.73116 19.3619 8.23367 20.1988 7.69038C21.4497 6.87858 22.98 5.96261 23.8394 4.7063C24.0172 4.44678 24.0163 4.21599 23.983 4.03818C23.9471 3.8496 23.8582 3.67988 23.6993 3.53979C23.6122 3.46346 23.4873 3.38264 23.3149 3.33864C23.2583 3.32427 23.1102 3.3117 23.0338 3.30631C22.8973 3.27129 22.7617 3.23267 22.6279 3.18957C22.1619 3.0396 21.7227 2.82588 21.2782 2.62113C19.8181 1.95032 18.3741 1.25706 16.9094 0.591637C16.4757 0.394974 15.9638 0.587147 15.7672 1.02088C15.5696 1.45462 15.7618 1.96648 16.1955 2.16405C17.6575 2.82767 19.0997 3.52004 20.558 4.18995C20.8966 4.3462 21.2342 4.50515 21.5809 4.64344Z" fill="#0B0B7F"/>
</svg>
